<?xml version="1.0" standalone="no"?>
<!DOCTYPE svg PUBLIC "-//W3C//DTD SVG 1.1//EN" "http://www.w3.org/Graphics/SVG/1.1/DTD/svg11.dtd" >
<svg xmlns="http://www.w3.org/2000/svg" xmlns:xlink="http://www.w3.org/1999/xlink" version="1.1">
<metadata>
Created by FontForge 20161116 at Wed Sep  4 19:06:32 2013
 By Jimmy Wärting
Copyright (c) 2013 by Anna Pocius. All rights reserved.
</metadata>
<defs>
<font id="Unique" horiz-adv-x="1079" >
  <font-face 
    font-family="Unique"
    font-weight="400"
    font-stretch="normal"
    units-per-em="2048"
    panose-1="2 0 5 6 8 0 0 2 0 4"
    ascent="1638"
    descent="-410"
    x-height="1102"
    cap-height="1441"
    bbox="-376 -527 2620 1902"
    underline-thickness="125"
    underline-position="-236"
    unicode-range="U+0020-FB06"
  />
<missing-glyph horiz-adv-x="1259" 
d="M117 -344v1901h1024v-1901h-1024zM232 -230h795v1672h-795v-1672z" />
    <glyph glyph-name="fl" unicode="fl" horiz-adv-x="1127" 
d="M942 273v-89t11.5 -86.5t39 -65.5t81.5 -26q3 0 3 -3t-3 -3h-135q-78 0 -122.5 17.5t-67 48t-28 71.5t-5.5 87v957q0 58 8 99t28 70q-50 19 -108 19h-75q-59 0 -101 -11.5t-69 -36.5t-40 -64.5t-14 -96.5v-61h219v-50h-219v-816q0 -65 -10.5 -109.5t-36.5 -72
t-69.5 -39.5t-109.5 -12v1049h-119v50h119v97q0 46 17.5 87t48 71.5t71 48t86.5 17.5h600v-1147z" />
    <glyph glyph-name="threequarters" unicode="&#x33;&#x2f;&#x34;" horiz-adv-x="1348" 
d="M322 725q-50 0 -92 19.5t-72.5 52.5t-49 76t-21.5 90h-37v-125q0 -30 11.5 -57t31.5 -47t46.5 -31.5t56.5 -11.5h251q30 0 57 11.5t47 31.5t31.5 47t11.5 57v105q0 42 -22.5 77.5t-58.5 53.5q36 18 56.5 52.5t20.5 76.5v71q0 30 -11 57t-30 47t-45.5 31.5t-56.5 11.5
h-245q-49 0 -75.5 -15t-38.5 -37t-14.5 -48t-2.5 -47v-48h40q11 69 54.5 114.5t115.5 47.5h18q41 0 69.5 -7.5t46 -24.5t25.5 -45t8 -69v-6q0 -41 -8 -69t-25.5 -45t-46 -24.5t-69.5 -7.5h-93v-32l93 -1q41 0 69.5 -7.5t46 -24.5t25.5 -45t8 -68v-42q0 -77 -28 -111t-98 -34
zM1125 1404q13 25 24.5 37t24.5 16t30.5 3.5t43.5 -0.5l-892 -1410q-15 -26 -25.5 -40t-23.5 -20.5t-32.5 -8t-50.5 -1.5zM1232 220h-71v-100q0 -66 -41 -92t-108 -26v218h-291v29l307 452q12 17 24.5 24.5t35.5 7.5h73v-484h71v-29zM755 249h257v377z" />
    <glyph glyph-name="ff" unicode="ff" horiz-adv-x="1109" 
d="M701 1193q0 47 11 88t32.5 71.5t55 48t78.5 17.5h235q36 0 55.5 -7t28.5 -23t10.5 -40.5t1.5 -59.5v-90h-59q-4 36 -13 66t-25 51.5t-40 33.5t-57 12q-43 0 -64.5 -29t-23.5 -72v-161h219v-50h-219v-816q0 -65 -10.5 -109.5t-36.5 -72t-69.5 -39.5t-109.5 -12v1049h-356
v-816q0 -65 -10.5 -109.5t-36.5 -72t-69.5 -39.5t-109.5 -12v1049h-119v50h119v94q0 46 16 87t45.5 72t70 48.5t90.5 17.5h264v-60h-134q-39 0 -63.5 -8.5t-38.5 -23.5t-19 -35t-5 -43v-149h356v94z" />
    <glyph glyph-name="ffi" unicode="ffi" horiz-adv-x="1675" 
d="M703 1099v92q0 45 10.5 86t36 72.5t69 50t108.5 18.5h488q21 -1 40.5 -9.5t34.5 -23t23.5 -34.5t8.5 -44t-9 -45.5t-24.5 -37t-36.5 -25t-44 -9.5q-24 0 -45 9.5t-36.5 25.5t-25 37t-9.5 45q0 7 2.5 11t4 6.5t0.5 5t-8 5.5q-14 6 -46 11t-71 8.5t-81 5t-76 1.5
q-24 0 -41 -10t-27.5 -26t-15 -35.5t-4.5 -38.5v-152h233v-50h-233v-816q0 -80 -13.5 -126t-41.5 -70t-70.5 -30.5t-100.5 -6.5v1049h-358v-816q0 -65 -10.5 -109.5t-36.5 -72t-69.5 -39.5t-109.5 -12v1049h-119v50h119v94q0 46 16 87t45.5 72t70 48.5t90.5 17.5h264v-60
h-134q-39 0 -63.5 -8.5t-38.5 -23.5t-19 -35t-5 -43v-149h358zM1519 232q0 -65 -10.5 -109.5t-36 -71.5t-69 -39t-109.5 -12v881q0 67 12 112.5t38.5 73.5t69.5 40.5t105 12.5v-888z" />
    <glyph glyph-name="f_f_j" unicode="ffj" horiz-adv-x="1675" 
d="M703 1099v92q0 45 10.5 86t36 72.5t69 50t108.5 18.5h488q21 -1 40.5 -9.5t34.5 -23t23.5 -34.5t8.5 -44t-9 -45.5t-24.5 -37t-36.5 -25t-44 -9.5q-24 0 -45 9.5t-36.5 25.5t-25 37t-9.5 45q0 7 2.5 11t4 6.5t0.5 5t-8 5.5q-14 6 -46 11t-71 8.5t-81 5t-76 1.5
q-24 0 -41 -10t-27.5 -26t-15 -35.5t-4.5 -38.5v-152h233v-50h-233v-816q0 -80 -13.5 -126t-41.5 -70t-70.5 -30.5t-100.5 -6.5v1049h-358v-816q0 -65 -10.5 -109.5t-36.5 -72t-69.5 -39.5t-109.5 -12v1049h-119v50h119v94q0 46 16 87t45.5 72t70 48.5t90.5 17.5h264v-60
h-134q-39 0 -63.5 -8.5t-38.5 -23.5t-19 -35t-5 -43v-149h358zM1519 -99q0 -46 -5.5 -86.5t-28 -71t-67 -48t-122.5 -17.5h-149h-6t-13 0.5t-12.5 1l-5.5 0.5l5.5 0.5t12.5 1t13 0.5h6q55 0 85 27t43.5 67.5t16 87t2.5 85.5v932q0 67 12 112.5t38.5 73.5t69.5 40.5t105 12.5
v-1219z" />
    <glyph glyph-name="ffl" unicode="ffl" horiz-adv-x="1702" 
d="M1517 273v-89t11.5 -86.5t39 -65.5t81.5 -26q3 0 3 -3t-3 -3h-135q-78 0 -122.5 17.5t-67 48t-28 71.5t-5.5 87v957q0 58 8 99t28 70q-13 5 -39.5 8.5t-56 6t-56.5 3.5t-41 1q-102 0 -151.5 -48t-51.5 -161v-61h219v-50h-219v-816q0 -65 -10.5 -109.5t-36.5 -72
t-69.5 -39.5t-109.5 -12v1049h-360v-816q0 -65 -10.5 -109.5t-36.5 -72t-69.5 -39.5t-109.5 -12v1049h-119v50h119v94q0 46 16 87t45.5 72t70 48.5t90.5 17.5h264v-60h-134q-39 0 -63.5 -8.5t-38.5 -23.5t-19 -35t-5 -43v-149h360v97q0 46 17.5 87t48 71.5t71 48t86.5 17.5
h589v-1147z" />
    <glyph glyph-name="fi" unicode="fi" horiz-adv-x="1082" 
d="M0 1049v50v-50zM0 1099h120v97q0 46 16 86.5t45.5 70.5t70 47.5t90.5 17.5h463h17q21 -1 40.5 -9.5t34.5 -23t23.5 -34.5t8.5 -44t-9 -45.5t-24.5 -37t-36.5 -25t-44 -9.5q-24 0 -45 9.5t-36.5 25.5t-25 37t-9.5 45q0 14 -1.5 17.5t-14.5 10.5q-14 6 -42 11t-62.5 8.5
t-72.5 5t-72 1.5q-45 0 -66.5 -31.5t-21.5 -78.5v-152h219v-50h-219v-816q0 -65 -10.5 -109.5t-36.5 -72t-69.5 -39.5t-109.5 -12v1049h-120v50zM926 232q0 -65 -10.5 -109.5t-36 -71.5t-69 -39t-109.5 -12v881q0 67 12 112.5t38.5 73.5t69.5 40.5t105 12.5v-888z" />
    <glyph glyph-name="f_j" unicode="fj" horiz-adv-x="995" 
d="M0 1102h125v98q0 46 16 86.5t45.5 70.5t70 47.5t90.5 17.5h471q21 -1 40.5 -9.5t34.5 -23t23.5 -34.5t8.5 -44t-9 -45.5t-24.5 -37t-36.5 -25t-44 -9.5q-24 0 -45 9.5t-36.5 25.5t-25 37t-9.5 45q0 14 -1.5 17.5t-14.5 10.5q-14 6 -40.5 11t-59.5 8.5t-69.5 5t-70.5 1.5
q-45 0 -66.5 -31.5t-21.5 -78.5v-154h219v-50h-219v-818q0 -65 -10.5 -109.5t-36.5 -72t-69.5 -39.5t-109.5 -12v1052h-125v50zM922 -100q0 -46 -5.5 -86.5t-28 -71t-67 -48t-122.5 -17.5h-149q-2 0 -2 2t2 2q55 0 85 27t43.5 67.5t16 87t2.5 85.5v933q0 67 12 112.5
t38.5 73.5t69.5 40.5t105 12.5v-1220z" />
    <glyph glyph-name="onehalf" unicode="&#x31;&#x2f;&#x32;" horiz-adv-x="1281" 
d="M337 1440v-599q0 -44 -6.5 -73.5t-23.5 -47.5t-46 -26t-74 -8v627l-62 -117h-47l107 203q12 23 29.5 32t49.5 9h73zM1034 730q28 0 53.5 -11t44.5 -30t30 -44.5t11 -53.5v-56q0 -47 -12 -80t-32 -58t-47 -46t-58 -43l-163 -101q-14 -10 -25.5 -25.5t-19.5 -33.5t-12 -37
t-4 -37v-46h204q78 0 109.5 31t31.5 108v4h36v-35q0 -20 -4.5 -44t-19 -45t-42 -35t-73.5 -14h-414v84q0 67 29.5 120.5t81.5 90.5l157 113q27 20 52 38.5t43.5 37.5t29.5 39t11 42v13q0 64 -21 91t-73 32h-67q-71 0 -114.5 -43t-53.5 -110h-38v45q0 21 2.5 45.5t14 45
t36.5 34.5t71 14h245zM951 1404q13 25 24.5 37t24.5 16t30.5 3.5t43.5 -0.5l-892 -1410q-15 -26 -25.5 -40t-23.5 -20.5t-32.5 -8t-50.5 -1.5z" />
    <glyph glyph-name="onethird" unicode="&#x31;&#x2f;&#x33;" horiz-adv-x="1231" 
d="M859 34q-50 0 -92 19.5t-72.5 52.5t-49 76t-21.5 90h-37v-125q0 -30 11.5 -57t31.5 -47t46.5 -31.5t56.5 -11.5h251q30 0 57 11.5t47 31.5t31.5 47t11.5 57v105q0 42 -22.5 77.5t-58.5 53.5q36 18 56.5 52.5t20.5 76.5v71q0 30 -11 57t-30 47t-45.5 31.5t-56.5 11.5h-245
q-49 0 -75.5 -15t-38.5 -37t-14.5 -48t-2.5 -47v-48h40q11 69 54.5 114.5t115.5 47.5h18q41 0 69.5 -7.5t46 -24.5t25.5 -45t8 -69v-6q0 -41 -8 -69t-25.5 -45t-46 -24.5t-69.5 -7.5h-93v-32l93 -1q41 0 69.5 -7.5t46 -24.5t25.5 -45t8 -68v-42q0 -77 -28 -111t-98 -34z
M309 1440v-599q0 -44 -6.5 -73.5t-23.5 -47.5t-46 -26t-74 -8v627l-62 -117h-47l107 203q12 23 29.5 32t49.5 9h73zM811 1387q13 25 20.5 37t16 16t22 3.5t39.5 -0.5l-746 -1393q-14 -25 -21 -39t-17 -21t-26.5 -8.5t-47.5 -1.5z" />
    <glyph glyph-name="onequarter" unicode="&#x31;&#x2f;&#x34;" horiz-adv-x="1174" 
d="M336 1440v-599q0 -44 -6.5 -73.5t-23.5 -47.5t-46 -26t-74 -8v627l-62 -117h-47l107 203q12 23 29.5 32t49.5 9h73zM1046 196h-71v-78q0 -66 -41 -92t-108 -26v196h-291v29l307 452q12 17 24.5 24.5t35.5 7.5h73v-484h71v-29zM569 225h257v377zM951 1404q13 25 24.5 37
t24.5 16t30.5 3.5t43.5 -0.5l-892 -1410q-15 -26 -25.5 -40t-23.5 -20.5t-32.5 -8t-50.5 -1.5z" />
    <glyph glyph-name="oneeighth" unicode="&#x31;&#x2f;&#x38;" horiz-adv-x="1223" 
d="M309 1443v-602q0 -44 -6.5 -73.5t-23.5 -47.5t-46 -26t-74 -8v630l-62 -117h-47l107 203q12 23 29.5 32t49.5 9h73zM751 0q-24 0 -44.5 9t-36.5 25t-25 36.5t-9 44.5v186q0 35 19 62.5t48 41.5q-26 15 -41 41.5t-15 58.5v110q0 24 8.5 44.5t23.5 36.5t35.5 25t44.5 9h241
q24 0 44.5 -9t35.5 -25t23.5 -36.5t8.5 -44.5v-110q0 -32 -15 -58.5t-41 -41.5q29 -14 48 -41.5t19 -62.5v-186q0 -24 -9 -44.5t-25 -36.5t-36.5 -25t-44.5 -9h-232h-25zM873 703q-49 0 -69 -28t-20 -85v-59q0 -57 20 -85.5t69 -28.5q51 0 71 28.5t20 85.5v59q0 57 -20 85
t-71 28zM873 390q-54 0 -75.5 -27t-21.5 -87v-136q0 -60 21.5 -87t75.5 -27q55 0 77.5 27t22.5 87v136q0 60 -22.5 87t-77.5 27zM813 1387q13 25 20.5 37t16 16t22 3.5t39.5 -0.5l-746 -1393q-14 -25 -21 -39t-17 -21t-26.5 -8.5t-47.5 -1.5z" />
    <glyph glyph-name="twothirds" unicode="&#x32;&#x2f;&#x33;" horiz-adv-x="1440" 
d="M456 1421q28 0 53.5 -11t44.5 -30t30 -44.5t11 -53.5v-56q0 -47 -12 -80t-32 -58t-47 -46t-58 -43l-163 -101q-14 -10 -25.5 -25.5t-19.5 -33.5t-12 -37t-4 -37v-46h204q78 0 109.5 31t31.5 108v4h36v-35q0 -20 -4.5 -44t-19 -45t-42 -35t-73.5 -14h-414v84
q0 67 29.5 120.5t81.5 90.5l157 113q27 20 52 38.5t43.5 37.5t29.5 39t11 42v13q0 64 -21 91t-73 32h-67q-71 0 -114.5 -43t-53.5 -110h-38v45q0 21 2.5 45.5t14 45t36.5 34.5t71 14h245zM1068 34q-50 0 -92 19.5t-72.5 52.5t-49 76t-21.5 90h-37v-125q0 -30 11.5 -57
t31.5 -47t46.5 -31.5t56.5 -11.5h251q30 0 57 11.5t47 31.5t31.5 47t11.5 57v105q0 42 -22.5 77.5t-58.5 53.5q36 18 56.5 52.5t20.5 76.5v71q0 30 -11 57t-30 47t-45.5 31.5t-56.5 11.5h-245q-49 0 -75.5 -15t-38.5 -37t-14.5 -48t-2.5 -47v-48h40q11 69 54.5 114.5
t115.5 47.5h18q41 0 69.5 -7.5t46 -24.5t25.5 -45t8 -69v-6q0 -41 -8 -69t-25.5 -45t-46 -24.5t-69.5 -7.5h-93v-32l93 -1q41 0 69.5 -7.5t46 -24.5t25.5 -45t8 -68v-42q0 -77 -28 -111t-98 -34zM1006 1387q13 25 20.5 37t16 16t22 3.5t39.5 -0.5l-746 -1393
q-14 -25 -21 -39t-17 -21t-26.5 -8.5t-47.5 -1.5z" />
    <glyph glyph-name="threeeighths" unicode="&#x33;&#x2f;&#x38;" horiz-adv-x="1407" 
d="M322 725q-50 0 -92 19.5t-72.5 52.5t-49 76t-21.5 90h-37v-125q0 -30 11.5 -57t31.5 -47t46.5 -31.5t56.5 -11.5h251q30 0 57 11.5t47 31.5t31.5 47t11.5 57v105q0 42 -22.5 77.5t-58.5 53.5q36 18 56.5 52.5t20.5 76.5v72q0 30 -11 57t-30 47t-45.5 31.5t-56.5 11.5
h-245q-49 0 -75.5 -15t-38.5 -37t-14.5 -48t-2.5 -47v-48h40q11 69 54.5 114.5t115.5 47.5h18q41 0 69.5 -7.5t46 -24.5t25.5 -45t8 -69v-7q0 -41 -8 -69t-25.5 -45t-46 -24.5t-69.5 -7.5h-93v-32l93 -1q41 0 69.5 -7.5t46 -24.5t25.5 -45t8 -68v-42q0 -77 -28 -111t-98 -34
zM935 0q-24 0 -44.5 9t-36.5 25t-25 36.5t-9 44.5v186q0 35 19 62.5t48 41.5q-26 15 -41 41.5t-15 58.5v110q0 24 8.5 44.5t23.5 36.5t35.5 25t44.5 9h241q24 0 44.5 -9t35.5 -25t23.5 -36.5t8.5 -44.5v-110q0 -32 -15 -58.5t-41 -41.5q29 -14 48 -41.5t19 -62.5v-186
q0 -24 -9 -44.5t-25 -36.5t-36.5 -25t-44.5 -9h-232h-25zM1057 703q-49 0 -69 -28t-20 -85v-59q0 -57 20 -85.5t69 -28.5q51 0 71 28.5t20 85.5v59q0 57 -20 85t-71 28zM1057 390q-54 0 -75.5 -27t-21.5 -87v-136q0 -60 21.5 -87t75.5 -27q55 0 77.5 27t22.5 87v136
q0 60 -22.5 87t-77.5 27zM1026 1387q13 25 20.5 37t16 16t22 3.5t39.5 -0.5l-746 -1393q-14 -25 -21 -39t-17 -21t-26.5 -8.5t-47.5 -1.5z" />
    <glyph glyph-name="fiveeighths" unicode="&#x35;&#x2f;&#x38;" horiz-adv-x="1321" 
d="M105 1422q-20 -1 -23.5 -13.5t-3.5 -47.5v-275h30q4 52 30 72.5t86 20.5q30 0 54.5 -5t41 -18t25.5 -35.5t9 -56.5v-234q0 -59 -21.5 -85.5t-75.5 -27.5q-30 0 -60.5 11.5t-55.5 35t-42 58.5t-20 82h-29v-98q0 -24 9 -45t25 -36.5t36.5 -24.5t44.5 -9h229q23 0 44 9
t36.5 24.5t24.5 36.5t9 45v284q0 24 -9 44.5t-24.5 36.5t-36.5 25t-44 9h-201q-32 0 -52.5 -8.5t-33.5 -21.5v143h219q33 0 62 3.5t51 14.5t34.5 31.5t12.5 54.5h-381zM849 0q-24 0 -44.5 9t-36.5 25t-25 36.5t-9 44.5v186q0 35 19 62.5t48 41.5q-26 15 -41 40.5t-15 59.5
v110q0 24 8.5 44.5t23.5 36.5t35.5 25t44.5 9h241q24 0 44.5 -9t35.5 -25t23.5 -36.5t8.5 -44.5v-110q0 -32 -15 -58.5t-41 -41.5q29 -14 48 -41.5t19 -62.5v-186q0 -24 -9 -44.5t-25 -36.5t-36.5 -25t-44.5 -9h-232h-25zM971 703q-49 0 -69 -28t-20 -85v-59q0 -57 20 -85.5
t69 -28.5q51 0 71 28.5t20 85.5v59q0 57 -20 85t-71 28zM971 390q-54 0 -75.5 -27t-21.5 -87v-136q0 -60 21.5 -87t75.5 -27q55 0 77.5 27t22.5 87v136q0 60 -22.5 87t-77.5 27zM946 1387q13 25 20.5 37t16 16t22 3.5t39.5 -0.5l-746 -1393q-14 -25 -21 -39t-17 -21
t-26.5 -8.5t-47.5 -1.5z" />
    <glyph glyph-name="seveneighths" unicode="&#x37;&#x2f;&#x38;" horiz-adv-x="1243" 
d="M420 1396h-219q-63 0 -90.5 -29t-27.5 -83v-13h-29v84q0 24 1.5 37t8 20t18.5 8.5t33 1.5h481l-382 -736q-49 0 -73 13t-31 34.5t1 49.5t23 57zM771 0q-24 0 -44.5 9t-36.5 25t-25 36.5t-9 44.5v186q0 35 19 62.5t48 41.5q-26 15 -41 40.5t-15 59.5v110q0 24 8.5 44.5
t23.5 36.5t35.5 25t44.5 9h241q24 0 44.5 -9t35.5 -25t23.5 -36.5t8.5 -44.5v-110q0 -32 -15 -58.5t-41 -41.5q29 -14 48 -41.5t19 -62.5v-186q0 -24 -9 -44.5t-25 -36.5t-36.5 -25t-44.5 -9h-232h-25zM893 703q-49 0 -69 -28t-20 -85v-59q0 -57 20 -85.5t69 -28.5
q51 0 71 28.5t20 85.5v59q0 57 -20 85t-71 28zM893 390q-54 0 -75.5 -27t-21.5 -87v-136q0 -60 21.5 -87t75.5 -27q55 0 77.5 27t22.5 87v136q0 60 -22.5 87t-77.5 27zM810 1387q13 25 20.5 37t16 16t22 3.5t39.5 -0.5l-746 -1393q-14 -25 -21 -39t-17 -21t-26.5 -8.5
t-47.5 -1.5z" />
    <glyph glyph-name="fb" unicode="fb" horiz-adv-x="1673" 
d="M921 1101h378q46 0 86 -17.5t70 -47.5t47.5 -70.5t17.5 -86.5v-657q0 -46 -17.5 -86.5t-47.5 -70.5t-70 -47.5t-86 -17.5h-604v1183q0 58 8 99t28 70q-13 5 -38 8.5t-52.5 6t-53 3.5t-39.5 1q-102 0 -151.5 -49t-51.5 -162v-60h219v-50h-219v-817q0 -65 -10.5 -109.5
t-36.5 -72t-69.5 -39.5t-109.5 -12v1050h-119v50h119v98q0 46 17.5 87t48 71.5t71 48t86.5 17.5h579v-321zM921 1051v-1002h148q63 0 107 11.5t71.5 38t39.5 69.5t12 105v557q0 62 -12 104.5t-39.5 68.5t-71.5 37t-107 11h-148z" />
    <glyph glyph-name="fh" unicode="fh" horiz-adv-x="1670" 
d="M942 1103h372q46 0 87 -17.5t72 -47.5t49 -71t18 -87v-647q0 -66 -10.5 -110.5t-36 -71.5t-69.5 -39t-110 -12v831q0 114 -42.5 167.5t-145.5 53.5h-184v-819q0 -66 -10.5 -110.5t-36 -71.5t-69.5 -39t-110 -12v1218v-1q5 87 36 133q-50 19 -108 19h-75q-59 0 -101 -11.5
t-69 -36.5t-40 -64.5t-14 -96.5v-59h219v-50h-219v-818q0 -65 -10.5 -109.5t-36.5 -72t-69.5 -39.5t-109.5 -12v1051h-119v50h119v95q0 46 17.5 87t48 71.5t71 48t86.5 17.5h600v-317z" />
    <glyph glyph-name="fk" unicode="fk" horiz-adv-x="1610" 
d="M942 548l420 484q8 9 18.5 21t25 23t33.5 18.5t43 7.5h55q0 -4 -2 -4q-1 -1 -2 0q-17 0 -30.5 -6.5t-25 -16t-22.5 -21.5t-21 -22l-319 -366l388 -571q8 -11 19.5 -27t25 -30t28.5 -24t31 -10h3q0 -4 -3 -4h-111h-81.5t-69.5 10.5t-64 36.5t-64 77l-275 419v-309
q0 -66 -10.5 -110.5t-36.5 -72t-69 -39.5t-109 -12v1183q0 58 7.5 99t27.5 70q-50 19 -108 19h-75q-59 0 -101 -11.5t-69 -36.5t-40 -64.5t-14 -96.5v-63h219v-50h-219v-816q0 -65 -10.5 -109.5t-36.5 -72t-69.5 -39.5t-109.5 -12v1049h-119v50h119v99q0 46 17.5 87t48 71.5
t71 48t86.5 17.5h600v-874z" />
    <glyph glyph-name="ft" unicode="ft" horiz-adv-x="1159" 
d="M942 1102h217v-49h-217v-783q0 -24 -0.5 -53t1.5 -58.5t8 -57t19.5 -49t35 -34.5t55.5 -13q4 0 4 -3q0 -2 -4 -2h-119q-70 0 -113.5 15.5t-68 44.5t-33.5 70.5t-11 93.5v829h-371v-820q0 -65 -10.5 -109.5t-36.5 -72t-69.5 -39.5t-109.5 -12v1052h-119v50h119v96
q0 46 17.5 87t48 71.5t71 48t86.5 17.5h600v-320zM716 1183q0 58 8 99t28 70q-50 19 -108 19h-75q-59 0 -101 -11.5t-69 -36.5t-40 -64.5t-14 -96.5v-60h371v81z" />
    <glyph glyph-name="fw" unicode="fw" horiz-adv-x="1951" 
d="M1046 220l163 505l-92 285q-6 18 -12 33.5t-15 27.5t-22.5 18.5t-33.5 6.5h-2q-1 0 -1 3l3 2h86q58 1 96 -9.5t64 -32.5t43.5 -56.5t32.5 -80.5l228 -702l267 833q8 21 21 34.5t38 13.5h63l3 -2q0 -3 -2 -3h-1q-30 0 -44.5 -11t-26.5 -42l-336 -1064q-8 0 -29 3.5
t-46.5 18.5t-52 46.5t-44.5 88.5l-159 506l-206 -663q-7 0 -27.5 3.5t-46.5 18.5t-53 46.5t-45 88.5l-277 874q-5 12 -8 22.5t-8 19.5h-219v-819q0 -65 -10.5 -109.5t-36.5 -72t-69.5 -39.5t-109.5 -12v1052h-119v50h119v98q0 46 16 86.5t45.5 70.5t70 47.5t90.5 17.5h190
q36 0 55.5 -7t28.5 -23t10.5 -40.5t1.5 -59.5v-90h-59q-4 36 -13 66t-25 51.5t-40 33.5t-57 12q-45 0 -66.5 -31.5t-21.5 -78.5v-153h219v-1h18q58 0 97 -11t65.5 -33t43.5 -56t31 -79z" />
    <glyph glyph-name="fv" unicode="fv" horiz-adv-x="1408" 
d="M1430 1102q1 0 1 -0.5t1 -0.5q0 -1 1 -1q0 -4 -3 -4q-27 0 -41.5 -13.5t-22.5 -41.5l-336 -1062q-7 0 -28 3t-46.5 17.5t-52 46t-44.5 88.5l-277 874q-9 25 -18 45v-1h-219v-819q0 -65 -10.5 -109.5t-36.5 -72t-69.5 -39.5t-109.5 -12v1052h-119v50h119v97q0 46 16 86.5
t45.5 70.5t70 47.5t90.5 17.5h190q36 0 55.5 -7t28.5 -23t10.5 -40.5t1.5 -59.5v-90h-59q-4 36 -13 66t-25 51.5t-40 33.5t-57 12q-45 0 -66.5 -31.5t-21.5 -78.5v-152h238q58 0 97.5 -13.5t66 -37.5t43.5 -57t30 -72l228 -704l267 836q10 29 20.5 38.5t35.5 9.5h59z" />
    <glyph glyph-name="fy" unicode="fy" horiz-adv-x="1416" 
d="M581 1102q58 0 97 -10.5t65.5 -32t44 -55.5t32.5 -82l230 -699l269 831q10 31 22 39.5t37 8.5h59q4 0 4 -2q0 -1 -4 -1q-29 0 -43 -13.5t-24 -42.5l-381 -1204q-14 -51 -34.5 -84.5t-45.5 -52.5t-53 -26.5t-56 -7.5h-21q-74 -1 -118.5 21t-68 55.5t-31 73t-8.5 72.5
q14 0 24 -1t16.5 -6.5t11 -16t7.5 -29.5q14 -62 56.5 -91.5t128.5 -26.5q63 1 99.5 52t60.5 139l24 79q-15 6 -32 16.5t-33.5 27.5t-31 42.5t-26.5 61.5l-279 871q-4 12 -7.5 23t-7.5 20h-219v-818q0 -65 -10.5 -109.5t-36.5 -72t-69.5 -39.5t-109.5 -12v1051h-119v51h119
v98q0 46 16 86.5t45.5 70.5t70 47.5t90.5 17.5h190q36 0 55.5 -7t28.5 -23t10.5 -40.5t1.5 -59.5v-90h-59q-4 36 -13 66t-25 51.5t-40 33.5t-57 12q-45 0 -66.5 -31.5t-21.5 -78.5v-153h236z" />
    <glyph glyph-name="fx" unicode="fx" horiz-adv-x="1476" 
d="M1333 0q-23 0 -52.5 6.5t-60.5 22.5t-61 42t-52 64l-213 361l-290 -429q-11 -16 -21 -28.5t-22.5 -21t-29 -13t-40.5 -4.5h-45q-2 0 -3 1q-1 0 -1 1q0 3 4 3q34 0 52.5 15t38.5 44l324 486q-68 116 -116 197t-79.5 135t-50.5 85.5t-29 48.5t-14.5 24t-7.5 12h-219v-819
q0 -65 -10.5 -109.5t-36.5 -72t-69.5 -39.5t-109.5 -12v1052h-119v50h119v98q0 46 16 86.5t45.5 70.5t70 47.5t90.5 17.5h190q36 0 55.5 -7t28.5 -23t10.5 -40.5t1.5 -59.5v-90h-59q-4 36 -13 66t-25 51.5t-40 33.5t-57 12q-45 0 -66.5 -31.5t-21.5 -78.5v-153h261
q47 0 81.5 -4t62 -17.5t51.5 -40t51 -71.5l157 -267l220 343q11 16 21.5 27t23 18t28.5 9.5t40 2.5h37q2 0 2 -4v-1h-2q-29 0 -48 -12t-34 -38l-255 -402l322 -548q25 -40 55.5 -66t77.5 -26q1 0 1.5 -0.5t1.5 -0.5h1q0 -4 -4 -4h-164z" />
    <glyph glyph-name="ty" unicode="ty" horiz-adv-x="1409" 
d="M480 1100h94q58 0 97 -10t65.5 -31.5t44 -55t32.5 -81.5l230 -699l269 829q10 31 22 39.5t37 8.5h59q4 0 4 -2q0 -1 -4 -1q-29 0 -43 -13.5t-24 -42.5l-381 -1202q-14 -51 -34.5 -84.5t-45.5 -52.5t-53 -26.5t-56 -7.5h-21q-74 -1 -118.5 21t-68 55.5t-31 73t-8.5 72.5
q14 0 24 -1t16.5 -6.5t11 -16t7.5 -29.5q14 -62 56.5 -91.5t128.5 -26.5q63 1 99.5 52t60.5 139l24 79q-15 6 -32 16.5t-33.5 27.5t-31 42.5t-26.5 61.5l-279 871q-8 24 -15 42h-212v-780q0 -24 -0.5 -53t1.5 -58.5t8 -57t19.5 -49t35.5 -34.5t55 -13q4 0 4 -3q0 -2 -4 -2
h-119q-78 0 -123 19t-68 54t-29 85t-6 112v780h-119v49h119v103q0 67 11.5 113t38.5 74t70 40t106 12v-342h132q1 1 3 1z" />
    <glyph glyph-name="ffy" unicode="ffy" horiz-adv-x="2023" 
d="M1163 1102q58 0 97 -10.5t65.5 -32t44 -55.5t32.5 -82l230 -699l269 831q10 31 22 39.5t37 8.5h59q4 0 4 -2q0 -1 -4 -1q-29 0 -43 -13.5t-24 -42.5l-381 -1204q-14 -51 -34.5 -84.5t-45.5 -52.5t-53 -26.5t-56 -7.5h-21q-74 -1 -118.5 21t-68 55.5t-31 73t-8.5 72.5
q14 0 24 -1t16.5 -6.5t11 -16t7.5 -29.5q14 -62 56.5 -91.5t128.5 -26.5q63 1 99.5 52t60.5 139l24 79q-15 6 -32 16.5t-33.5 27.5t-31 42.5t-26.5 61.5q-71 222 -120 375t-81.5 253.5t-50.5 156.5t-27 83.5t-11.5 35l-3.5 10.5h-219v-818q0 -65 -10.5 -109.5t-36.5 -72
t-69.5 -39.5t-109.5 -12v1051h-356v-818q0 -65 -10.5 -109.5t-36.5 -72t-69.5 -39.5t-109.5 -12v1052h-119v50h119v95q0 46 16 87t45.5 72t70 48.5t90.5 17.5h264v-60h-134q-39 0 -63.5 -8.5t-38.5 -23.5t-19 -35t-5 -43v-150h356v98q0 46 16 86.5t45.5 70.5t70 47.5
t90.5 17.5h190q36 0 55.5 -7t28.5 -23t10.5 -40.5t1.5 -59.5v-90h-59q-4 36 -13 66t-25 51.5t-40 33.5t-57 12q-45 0 -66.5 -31.5t-21.5 -78.5v-153h236z" />
    <glyph glyph-name="rt" unicode="rt" horiz-adv-x="1145" 
d="M928 270q0 -24 -0.5 -53t1.5 -58.5t8 -57t19.5 -49t35 -34.5t55.5 -13q4 0 4 -3q0 -2 -4 -2h-119q-78 0 -123 19t-68 54t-29 85t-6 112v783h-253q-29 0 -52 -13.5t-39 -36t-24 -52.5t-8 -63v-655q0 -65 -10.5 -109.5t-36 -72t-69.5 -39.5t-110 -12v863q0 67 12 113
t38.5 74t69.5 40t106 12h376v100q0 67 11.5 113t38.5 74t70 40t106 12v-339h217v-49h-217v-783z" />
    <glyph glyph-name="rs" unicode="rs" horiz-adv-x="1624" 
d="M922 1102h354q74 0 114.5 -22.5t59.5 -56t22.5 -72t3.5 -71.5v-73h-61q-8 53 -29.5 98t-56 77.5t-81 51t-103.5 18.5h-57q-62 0 -103 -10t-65.5 -33t-35 -60.5t-10.5 -93.5q0 -42 24.5 -73t65.5 -54.5t93.5 -41.5t108 -33t109.5 -29.5t99 -31.5q32 -12 59.5 -32.5
t47.5 -48t31.5 -60.5t11.5 -69v-159q0 -46 -17.5 -86.5t-48 -71t-71.5 -48t-87 -17.5h-317q-75 0 -129 14t-88 46t-50 84t-16 127v96h57v-96q0 -62 12 -104.5t38.5 -68.5t69.5 -37t106 -11h139q63 0 106 7.5t69.5 29.5t38 60t11.5 100v25q0 50 -28 81.5t-73.5 53t-103.5 36
t-118.5 31t-118.5 37.5t-103.5 55.5t-73.5 85.5t-28 126v102q0 46 17.5 86.5t47.5 70.5t70.5 47.5t86.5 17.5zM697 1053h-248q-29 0 -52 -13.5t-39 -36t-24 -52.5t-8 -63v-655q0 -65 -10.5 -109.5t-36 -72t-69.5 -39.5t-110 -12v863q0 67 12 113t38.5 74t69.5 40t106 12h371
v-49z" />
    <glyph glyph-name="ra" unicode="ra" horiz-adv-x="1661" 
d="M1297 734v95q0 119 -57 170t-176 51q-59 0 -100.5 -11.5t-67.5 -38t-37.5 -68.5t-11.5 -103v-24h-58v164q0 46 3 72t15 39t35.5 16.5t65.5 3.5h389q41 0 80.5 -19.5t71 -51t50.5 -71.5t19 -81v-653q0 -45 -18 -84.5t-49 -69.5t-71 -48.5t-83 -21.5h-381q-46 0 -86 17.5
t-70 48t-47.5 71.5t-17.5 87v287q0 46 17.5 86.5t47.5 71t70 48t86 17.5h381zM1297 684h-153q-63 0 -106.5 -11.5t-70.5 -37.5t-39 -68.5t-12 -103.5v-190q0 -57 10 -97t32 -66.5t57.5 -40.5t86.5 -18q54 3 91 16.5t60.5 40t33.5 67t10 98.5v411zM697 1053h-248
q-29 0 -52 -13.5t-39 -36t-24 -52.5t-8 -63v-655q0 -65 -10.5 -109.5t-36 -72t-69.5 -39.5t-110 -12v863q0 67 12 113t38.5 74t69.5 40t106 12h371v-49z" />
    <glyph glyph-name="Fi" unicode="Fi" horiz-adv-x="1344" 
d="M380 1373v-620h77q42 0 83.5 15.5t75.5 47t57 79t28 111.5h43v-541h-43q-7 59 -31 103.5t-58 74.5t-74.5 45t-80.5 15h-77v-469q0 -66 -10.5 -110.5t-36.5 -72t-69.5 -39.5t-110.5 -12v1291q0 50 2 76.5t13 38.5t34 14t66 2h869q21 -1 40.5 -9.5t34.5 -23t23.5 -34.5
t8.5 -44t-9 -45.5t-24.5 -37t-36.5 -25t-44 -9.5q-24 0 -45 9.5t-36.5 25.5t-25 37t-9.5 45q0 14 -1.5 17.5t-14.5 10.5q-13 6 -30.5 12t-45 11t-67.5 8t-98 3h-377zM1241 232q0 -65 -10.5 -109.5t-36 -71.5t-69 -39t-109.5 -12v881q0 67 12 112.5t38.5 73.5t69.5 40.5
t105 12.5v-888z" />
    <glyph glyph-name=".notdef" horiz-adv-x="1259" 
d="M117 -344v1901h1024v-1901h-1024zM232 -230h795v1672h-795v-1672z" />
    <glyph glyph-name="NULL" horiz-adv-x="0" 
 />
    <glyph glyph-name="nonmarkingreturn" horiz-adv-x="537" 
 />
    <glyph glyph-name="space" unicode=" " horiz-adv-x="537" 
 />
    <glyph glyph-name="exclam" unicode="!" horiz-adv-x="431" 
d="M214 239q26 0 48.5 -10.5t39.5 -27.5t27 -40.5t10 -48.5q0 -28 -10 -52t-27 -41.5t-39.5 -27.5t-48.5 -10q-27 0 -51 10.5t-42 28.5t-28.5 42t-10.5 50q0 25 10.5 48t28.5 40.5t42 28t51 10.5zM240 439h-52l-85 762q-7 67 4 113t40 74.5t75.5 40.5t109.5 12z" />
    <glyph glyph-name="quotedbl" unicode="&#x22;" horiz-adv-x="723" 
d="M288 1531q27 -32 27 -64q0 -30 -14 -66t-29.5 -80.5t-28 -99t-9.5 -122.5h-24q4 68 -8.5 122.5t-28.5 98.5t-30 80t-14 67q0 16 7.5 33t20 31t29.5 22.5t36 8.5t36 -7.5t30 -23.5zM568 1531q26 -32 26 -64q0 -30 -14 -66t-29.5 -80.5t-27.5 -99t-9 -122.5h-24
q4 68 -8.5 122.5t-29 98.5t-30.5 80t-14 67q0 16 7.5 33t20 31t29.5 22.5t37 8.5q18 0 35 -7.5t31 -23.5z" />
    <glyph glyph-name="numbersign" unicode="#" horiz-adv-x="953" 
d="M50 772q0 24 6 36.5t20 17.5t37 5h58h97v218q24 0 36 -6t17 -20t5.5 -37.5t0.5 -57.5v-97h288v218q24 0 36 -6t17 -20t5.5 -37.5t0.5 -57.5v-97h229q0 -24 -6 -36t-20 -17t-37.5 -5.5t-57.5 -0.5h-108v-288h229q0 -24 -6 -36t-20 -17t-37.5 -5.5t-57.5 -0.5h-108v-229
q-24 0 -36.5 6t-17.5 20t-5 37v58v108h-288v-229q-24 0 -36.5 6t-17.5 20t-5 37v58v108h-218q0 24 6 36.5t20 17.5t37 5h58h97v288h-218zM327 484h288v288h-288v-288z" />
    <glyph glyph-name="ampersand" unicode="&#x26;" horiz-adv-x="1136" 
d="M1236 1h-166q-66 0 -108 18t-80 58q-23 -31 -62.5 -53.5t-108.5 -22.5h-438q-46 0 -86.5 17.5t-71 48t-48 71t-17.5 86.5v157q0 78 29 143t76 120t106.5 102t121.5 89l-120 188q-28 45 -35.5 95.5t3 99t37.5 91t68 72.5q25 19 61 30t89 11h165q46 0 86.5 -17.5t71 -48
t48 -71t17.5 -86.5v-90q0 -60 -15 -109t-41 -89.5t-62 -74.5t-78 -64l200 -299v240q0 6 2.5 15.5t10.5 19t22.5 16t38.5 6.5h-19h25h20q2 0 2 -2h-2q-12 0 -20.5 -6.5t-14 -16.5t-8 -21.5t-2.5 -21.5v-315l193 -290q8 -12 20.5 -28.5t27 -31t30.5 -24.5t32 -10v-2zM504 653
q-40 -28 -80.5 -58t-73 -64.5t-53.5 -75t-22 -88.5v-119q-1 -62 11 -100.5t39 -60.5t70.5 -29.5t106.5 -7.5l149 2q77 0 125.5 17t73.5 59zM543 1373q-15 0 -33 -0.5t-36.5 -3t-36 -8t-29.5 -15.5q-12 -9 -19 -24t-8 -33t4 -37.5t17 -38.5l155 -257l64 51q37 31 57 72.5
t20 95.5q0 104 -35 151t-120 47z" />
    <glyph glyph-name="quotesingle" unicode="'" horiz-adv-x="471" 
d="M302 1531q26 -30 26 -64q0 -30 -14 -66t-29.5 -80.5t-27.5 -99t-9 -122.5h-24q4 68 -8.5 122.5t-28.5 98.5t-30 80t-14 67q0 16 7 33t20 31t29.5 22.5t36.5 8.5q18 0 35 -7.5t31 -23.5z" />
    <glyph glyph-name="parenleft" unicode="(" horiz-adv-x="643" 
d="M643 1503h-32q-64 0 -108 -11.5t-71.5 -38t-39.5 -70t-12 -107.5v-1222q0 -65 12 -108.5t39.5 -69.5t71.5 -37.5t108 -11.5h32v-51h-263q-47 0 -88.5 18t-72 48.5t-48.5 72t-18 88.5v1322q0 47 18 88.5t48.5 73t72 49.5t88.5 18h263v-51z" />
    <glyph glyph-name="parenright" unicode=")" horiz-adv-x="643" 
d="M0 1554h263q47 0 88.5 -18t72 -49.5t48.5 -73t18 -88.5v-1322q0 -47 -18 -88.5t-48.5 -72t-72 -48.5t-88.5 -18h-263v51h32q64 0 108 11.5t71.5 37.5t39.5 69.5t12 108.5v1222q0 64 -12 107.5t-39.5 70t-71.5 38t-108 11.5h-32v51z" />
    <glyph glyph-name="asterisk" unicode="*" horiz-adv-x="706" 
d="M376 1411q24 -29 24 -58q0 -30 -24 -60q-5 -6 -12 -17.5t-15 -30.5t-15 -47t-12 -68v-3l2 2q33 24 53.5 44t33.5 36.5t19 28t9 19.5q22 61 80 61q38 0 62.5 -23t24.5 -57q0 -21 -7.5 -37t-19.5 -27t-27 -17t-31 -6q-11 0 -19.5 2t-26.5 2q-20 0 -55.5 -7.5t-90.5 -31.5
l2 -1q54 -23 89 -30t55 -7q18 0 26.5 2t19.5 2q16 0 31 -6t27 -17.5t19.5 -27.5t7.5 -36q0 -34 -24.5 -57t-62.5 -23q-58 0 -80 61q-3 7 -9 19t-19 28t-33.5 36.5t-53.5 44.5l-2 1v-2q5 -40 12 -68.5t15 -47.5t15 -30t12 -17q24 -30 24 -60q0 -15 -6.5 -30t-17.5 -28
t-26.5 -21t-33.5 -8t-33.5 8t-27 20.5t-18 28t-6.5 30.5q0 31 24 60q5 6 12.5 17t15.5 30t15 47t12 69v2q-1 0 -2 -1q-33 -24 -54 -44.5t-33.5 -36.5t-18.5 -28t-9 -19q-24 -61 -80 -61q-38 0 -63 23t-25 57q0 20 7.5 36t19.5 27.5t27.5 17.5t31.5 6q11 0 19.5 -2t26.5 -2
q20 0 55 7t89 30l2 1l-2 2q-54 23 -89 30t-55 7q-18 0 -26.5 -2t-19.5 -2q-16 0 -31.5 6t-27.5 17t-19.5 27t-7.5 37q0 34 25 57t63 23q56 0 80 -61q3 -8 9 -19.5t18.5 -28t33.5 -36.5t54 -44l2 -2v3q-5 40 -12 68t-14.5 47t-15 30t-13.5 18q-24 28 -24 60q0 15 6.5 30.5
t18 27.5t27 20t33.5 8q17 0 32.5 -7t27.5 -21z" />
    <glyph glyph-name="plus" unicode="+" horiz-adv-x="1166" 
d="M153 493q0 24 6 36.5t20 17.5t37 5h58h273v285q0 34 1.5 57.5t8 37.5t20 20t37.5 6v-406h399q0 -24 -6 -36t-20 -17t-37.5 -5.5t-57.5 -0.5h-278v-271q0 -35 -1.5 -58t-8.5 -37t-20 -20t-37 -6v392h-394z" />
    <glyph glyph-name="comma" unicode="," horiz-adv-x="518" 
d="M156 -190q33 32 60 74t37 90q-21 0 -40.5 1.5t-37.5 8t-33 19.5t-27 34t-14 47t5 50.5t22.5 46t38.5 35.5t50 16.5t52.5 -5.5t46.5 -25.5t33 -43.5q22 -52 11 -108t-43 -106t-78 -90.5t-92 -62.5q0 8 1 9.5t8 9.5v0z" />
    <glyph glyph-name="hyphen" unicode="-" horiz-adv-x="692" 
d="M100 543q0 24 6 36.5t20 17.5t37 5h58h371q0 -24 -6 -36t-20 -17t-37.5 -5.5t-57.5 -0.5h-371z" />
    <glyph glyph-name="period" unicode="." horiz-adv-x="511" 
d="M230 224q26 0 49 -10t40.5 -27.5t28 -41t10.5 -49.5t-10.5 -49.5t-28 -41.5t-40.5 -28.5t-49 -10.5t-49.5 10.5t-41.5 28.5t-28.5 41.5t-10.5 49.5t10.5 49t28.5 40.5t41.5 28t49.5 10.5z" />
    <glyph glyph-name="slash" unicode="/" horiz-adv-x="980" 
d="M0 -271q221 409 441 818.5t441 818.5q13 25 20.5 37t16 16t22 3.5t39.5 -0.5q-221 -409 -434 -811.5t-434 -811.5q-15 -26 -22.5 -40t-17 -20.5t-25.5 -8t-47 -1.5z" />
    <glyph glyph-name="zero" unicode="0" horiz-adv-x="1009" 
d="M324 1q-46 0 -87 17.5t-71.5 48t-48 71t-17.5 86.5v974q0 46 17.5 87t48 71.5t71.5 48t87 17.5h364q46 0 86 -17.5t70 -48t47.5 -71.5t17.5 -87v-974q0 -46 -17.5 -86.5t-47.5 -71t-70 -48t-86 -17.5h-364zM507 51q100 0 141 53.5t41 166.5v879q0 114 -41 167.5
t-141 53.5q-52 0 -87 -13.5t-56.5 -40.5t-31 -68.5t-9.5 -98.5v-879q0 -56 9.5 -97.5t31 -68.5t56.5 -40.5t87 -13.5z" />
    <glyph glyph-name="one" unicode="1" horiz-adv-x="570" 
d="M417 1422v-1188q0 -66 -10.5 -110.5t-36 -72t-69 -39.5t-110.5 -12v1229l-95 -178h-71l161 307q19 35 45.5 49.5t74.5 14.5h111z" />
    <glyph glyph-name="two" unicode="2" horiz-adv-x="989" 
d="M702 1422q46 0 87 -17.5t71.5 -48t48 -71t17.5 -86.5v-92q0 -75 -19 -128t-51.5 -93.5t-76.5 -74t-93 -69.5l-261 -192q-46 -33 -72.5 -79t-26.5 -104v-318h328q63 0 106 11.5t70 37.5t39 69t12 105v95h58v-145q-1 -33 -8 -71.5t-30.5 -72t-67.5 -56t-118 -22.5h-615v380
q0 108 47 193.5t131 144.5l253 183q44 31 83.5 61t69.5 60.5t48 62t18 67.5v22q0 52 -8 88t-26 59t-47 35t-71 16h-108q-56 0 -102.5 -18.5t-81 -51t-56.5 -77.5t-30 -99h-61v73q0 22 1.5 47.5t7 50t18 47.5t34.5 40t55.5 27.5t83.5 10.5h343z" />
    <glyph glyph-name="three" unicode="3" horiz-adv-x="1029" 
d="M514 51q53 0 89.5 13t59.5 40t33 69t10 100v265q0 62 -12 104t-38.5 68t-69.5 37.5t-106 11.5l-143 1v50h143q63 0 106 11.5t69.5 37.5t38.5 68.5t12 104.5v117q0 62 -12 104.5t-38.5 69t-69.5 38t-106 11.5h-29q-54 -2 -98 -21.5t-77 -52t-54 -77t-29 -96.5h-62v73
q1 33 4.5 72t22 73t59 56.5t114.5 22.5h374q46 0 86 -17.5t69 -48t46 -71.5t17 -87v-215q0 -65 -31 -117.5t-86 -80.5q55 -28 89 -81t34 -118v-362q0 -46 -17.5 -87t-48 -71.5t-71.5 -48t-87 -17.5h-382q-46 0 -86.5 17.5t-71 48t-48 71.5t-17.5 87v191h57q5 -72 32.5 -138
t74 -116t110 -80t140.5 -30z" />
    <glyph glyph-name="four" unicode="4" horiz-adv-x="999" 
d="M949 416h-142v-182q0 -66 -10 -110.5t-35.5 -72t-69.5 -39.5t-111 -12v416h-581v58l614 902q12 16 23.5 28t25 20t31 12t40.5 4h73v-966h142v-58zM68 474h513v752z" />
    <glyph glyph-name="five" unicode="5" horiz-adv-x="936" 
d="M792 1422q0 -67 -12 -107t-39 -61.5t-71.5 -28t-108.5 -6.5h-426v-276q26 25 66 41t102 16h311q45 0 85.5 -17.5t71 -48t48 -71.5t17.5 -87v-552q0 -47 -17.5 -87.5t-48 -71t-71 -48t-85.5 -17.5h-366q-46 0 -86.5 17.5t-71 47.5t-48 70.5t-17.5 87.5v192h56
q6 -91 38.5 -159.5t81.5 -114t108 -68.5t118 -23q52 1 88 14t58 40t32 68.5t10 98.5v456q0 66 -17 109.5t-49.5 68.5t-79.5 35t-106 10t-100 -9.5t-67.5 -30.5t-40 -55.5t-17.5 -85.5h-59v535q0 33 1 55.5t6 36t15.5 20t29.5 6.5h661z" />
    <glyph glyph-name="six" unicode="6" horiz-adv-x="1063" 
d="M505 51q100 0 141.5 53.5t41.5 166.5v456q0 112 -41.5 166t-141.5 54q-101 0 -142 -54t-41 -166v-456q0 -113 41 -166.5t142 -53.5zM322 0q-46 0 -86.5 17.5t-70.5 48t-47.5 71t-17.5 87.5v976q0 46 17.5 86.5t47.5 70.5t70.5 47.5t86.5 17.5h363q75 0 115.5 -22.5
t59 -55.5t22 -72t3.5 -72v-72h-62q-8 55 -30.5 100.5t-58 77t-83 49t-105.5 17.5q-59 0 -101.5 -12t-69.5 -38t-40 -68.5t-13 -102.5v-153h365q46 0 86.5 -17.5t71 -48t48 -71t17.5 -86.5v-551q0 -47 -17.5 -87.5t-48 -71t-71 -48t-86.5 -17.5h-365z" />
    <glyph glyph-name="seven" unicode="7" horiz-adv-x="1003" 
d="M740 1371h-427q-122 0 -176.5 -57t-54.5 -163v-26h-57v166q0 46 3.5 72.5t15.5 39.5t36 16t65 3h858l-750 -1444q-59 31 -91 60.5t-41 64t3.5 77.5t42.5 100l566 1091h7z" />
    <glyph glyph-name="eight" unicode="8" horiz-adv-x="1029" 
d="M324 0q-46 0 -87 17.5t-71.5 48t-48 71.5t-17.5 87v362q0 68 36.5 122t93.5 81q-51 29 -80 80.5t-29 113.5v215q0 46 17 87t46.5 71.5t69 48t85.5 17.5h350q46 0 86 -17.5t69.5 -48t46.5 -71.5t17 -87v-215q0 -62 -29 -113.5t-80 -80.5q28 -14 52 -34.5t41.5 -47t27 -57
t9.5 -64.5v-362q0 -46 -17.5 -87t-48 -71.5t-71.5 -48t-87 -17.5h-381zM513 1369q-96 0 -135.5 -54t-39.5 -165v-117q0 -111 39.5 -166t135.5 -55q97 0 137 55t40 166v117q0 111 -40 165t-137 54zM513 759q-53 0 -89 -13t-58.5 -40t-32.5 -68.5t-10 -99.5v-266q0 -57 10 -99
t32.5 -69t58.5 -40t89 -13t90 13t60 40t33 69t10 99v266q0 115 -43.5 168t-149.5 53z" />
    <glyph glyph-name="nine" unicode="9" horiz-adv-x="1064" 
d="M505 1372q-101 0 -142 -54.5t-41 -167.5v-456q0 -113 41 -167t142 -54q100 0 141.5 54t41.5 167v456q0 113 -41.5 167.5t-141.5 54.5zM687 1422q46 0 87 -17.5t71.5 -48t48 -71t17.5 -86.5v-977q0 -45 -17.5 -85.5t-48 -71t-71.5 -48t-87 -17.5h-362q-75 0 -115.5 22.5
t-59 56t-22 73t-3.5 72.5v71h61q9 -55 31 -100t57.5 -77.5t83 -50.5t106.5 -18q115 0 169.5 51t54.5 171v150h-365q-46 0 -86.5 17.5t-71 48t-48 71.5t-17.5 87v554q0 46 17.5 86.5t48 71t71 48t86.5 17.5h364z" />
    <glyph glyph-name="colon" unicode=":" horiz-adv-x="561" 
d="M281 896q53 0 90 -38t37 -91q0 -50 -37.5 -87.5t-89.5 -37.5q-51 0 -89.5 37.5t-38.5 87.5q0 53 38 91t90 38zM281 222q53 0 90 -37t37 -89q0 -53 -37 -91t-90 -38q-51 0 -89.5 39t-38.5 90t37.5 88.5t90.5 37.5z" />
    <glyph glyph-name="semicolon" unicode=";" horiz-adv-x="571" 
d="M291 904q53 0 90 -38t37 -91q0 -51 -37.5 -88t-89.5 -37q-51 0 -89.5 37t-38.5 88q0 53 38 91t90 38zM213 -190q33 32 60 74t37 90q-21 0 -40.5 1.5t-37.5 8t-33 19.5t-27 34t-14 47t5 50.5t22.5 46t38.5 35.5t50 16.5t52.5 -5.5t46.5 -25.5t33 -43.5q22 -52 11 -108
t-43 -106t-78 -90.5t-92 -62.5q0 8 1 9.5t8 9.5z" />
    <glyph glyph-name="less" unicode="&#x3c;" horiz-adv-x="1001" 
d="M0 743l999 525q0 -30 -1 -45.5t-7 -25t-20 -17t-41 -22.5l-849 -464l849 -455q30 -15 44.5 -25.5t20.5 -23t5.5 -29t-1.5 -42.5l-999 535v89z" />
    <glyph glyph-name="equal" unicode="=" horiz-adv-x="1166" 
d="M153 781q0 24 6 36.5t20 17.5t37 5h58h739q0 -24 -6 -36t-20 -17t-37.5 -5.5t-57.5 -0.5h-739zM153 433q0 24 6 36.5t20 17.5t37 5h58h739q0 -24 -6 -36t-20 -17t-37.5 -5.5t-57.5 -0.5h-739z" />
    <glyph glyph-name="greater" unicode="&#x3e;" horiz-adv-x="1001" 
d="M1001 654l-999 -535q-1 26 -1.5 42.5t5.5 29t20.5 23t44.5 25.5l849 455l-849 464q-27 15 -41 22.5t-20 17t-7 25t-1 45.5l999 -525v-89z" />
    <glyph glyph-name="question" unicode="?" horiz-adv-x="885" 
d="M375 225q25 0 48.5 -10.5t41 -28t28 -41t10.5 -49.5q0 -27 -10.5 -50.5t-28.5 -41t-41 -28t-48 -10.5q-26 0 -49.5 10.5t-41 28.5t-28 41.5t-10.5 49.5q0 27 10.5 50.5t28 41t41 27.5t49.5 10zM565 1154q0 61 -11.5 103t-37.5 68t-68.5 37t-104.5 11h-16q-56 0 -102 -18
t-80 -50.5t-56 -77t-30 -96.5h-59v71q0 22 1 46.5t6.5 49t17.5 47t34 39.5t55.5 27.5t82.5 10.5h368q46 0 86 -17.5t70 -47.5t47 -70t17 -85v-339q0 -46 -17.5 -86t-47.5 -70t-70 -47.5t-86 -17.5q-50 0 -82 -14.5t-50 -41.5t-25 -64.5t-8 -83.5h-49v157q0 65 37.5 119
t96.5 82q20 10 35.5 22t25.5 32.5t15 51t5 77.5v175z" />
    <glyph glyph-name="at" unicode="@" horiz-adv-x="1734" 
d="M1007 695q-36 11 -75.5 11.5t-77.5 0.5q-63 0 -106 -11t-69.5 -37t-38 -68.5t-11.5 -105.5v-189q0 -56 9.5 -97.5t31 -68.5t56.5 -40t86 -13q106 -2 150.5 51t44.5 168v399zM1358 1101q46 0 87 -17.5t71 -47.5t47.5 -70.5t17.5 -86.5v-632q0 -45 -17.5 -85.5t-47.5 -71
t-71 -48t-87 -17.5h-130q-38 0 -71.5 12.5t-62.5 34.5q-30 -22 -64 -34.5t-71 -12.5h-284q-46 0 -86.5 17.5t-70.5 48t-47.5 71t-17.5 85.5v287q0 46 18 86.5t48 70.5t70.5 47.5t85.5 17.5h426q31 0 47.5 -5.5t24 -19.5t8 -39.5t0.5 -65.5v-330q1 -43 9 -82.5t23 -70
t37.5 -48.5t52.5 -18q31 0 51.5 18t32 48.5t16 70t4.5 82.5v534q0 62 -12 104.5t-38.5 68.5t-69.5 37.5t-106 11.5h-677q-64 0 -107.5 -11.5t-70 -37.5t-38 -68.5t-11.5 -104.5v-878q0 -62 11.5 -104.5t38 -68.5t70 -37.5t107.5 -11.5h1077v-49h-1256q-46 0 -87 17.5
t-71.5 47.5t-48.5 70.5t-18 86.5v976q0 46 18 86.5t48.5 70.5t71.5 47.5t87 17.5h1033z" />
    <glyph glyph-name="A" unicode="A" horiz-adv-x="1084" 
d="M1114 4q2 0 2 -2t-2 -2h-83q-58 0 -101 15t-73 39t-48 53.5t-27 58.5l-115 387h-417l-162 -502q-11 -32 -23.5 -41.5t-40.5 -9.5h-47q-2 0 -2 2t2 2q26 0 37 17t20 42l400 1258q14 43 39.5 67.5t52.5 36.5t50.5 14.5t33.5 2.5l430 -1351q5 -15 10 -30.5t13.5 -28
t20.5 -20.5t30 -8zM266 605h386l-184 639z" />
    <glyph glyph-name="B" unicode="B" horiz-adv-x="1217" 
d="M819 1422q46 0 86.5 -17.5t71 -48t48 -71t17.5 -85.5v-265q0 -56 -25 -103t-67 -78q36 -9 67 -29.5t53 -49t34.5 -63.5t12.5 -74v-314q0 -46 -17.5 -86.5t-47.5 -71t-70.5 -48t-86.5 -17.5h-741v1291q0 46 1.5 72t12.5 39t34.5 16t68.5 3h548zM380 1369v-609h212
q63 0 106.5 11.5t70.5 37.5t38.5 69t11.5 105v167q0 63 -11.5 105t-38.5 67.5t-70.5 36t-106.5 10.5h-212zM380 711v-660h289q63 0 106 11t70 37t38.5 68t11.5 105v219q0 62 -11.5 104t-38.5 68t-70 37t-106 11h-289z" />
    <glyph glyph-name="C" unicode="C" horiz-adv-x="1177" 
d="M829 1422q46 0 86.5 -17.5t71 -48t48.5 -71.5t18 -87v-191h-57q-7 93 -35 161.5t-71 113.5t-97.5 67t-114.5 22h-75q-60 0 -103 -12t-70.5 -38.5t-40.5 -68.5t-13 -102v-878q0 -61 13 -103.5t40.5 -69t70.5 -38.5t103 -12h75q61 0 122 26t110 76.5t79.5 125.5t30.5 173
v100h57v-327q0 -46 -18 -86.5t-48.5 -71t-71 -48t-86.5 -17.5h-477q-46 0 -86.5 17.5t-71 48t-48 71t-17.5 86.5v975q0 46 17.5 87t48 71.5t71 48t86.5 17.5h453z" />
    <glyph glyph-name="D" unicode="D" horiz-adv-x="1326" 
d="M382 1371v-1320h393q47 4 79.5 18.5t53 40.5t29.5 65.5t9 94.5v882q0 109 -38.5 164t-132.5 55h-393zM154 1290q0 46 1.5 72.5t12 39.5t35 16.5t70.5 3.5h673q46 0 87.5 -18t72.5 -48.5t49 -71.5t18 -87v-972q0 -46 -18 -87t-49 -71.5t-72.5 -48.5t-87.5 -18h-792v1290z
" />
    <glyph glyph-name="E" unicode="E" horiz-adv-x="1176" 
d="M380 1373v-620h78q42 0 83.5 16t75.5 47.5t57 79t28 111.5h43v-542h-43q-8 59 -32 103t-58 73.5t-74 44.5t-80 16h-78v-653h281q83 0 149.5 33.5t113 89t71.5 128.5t25 151v100h56v-329q0 -46 -17.5 -86.5t-48 -70.5t-71.5 -47.5t-87 -17.5h-699v1292q0 49 2 75.5
t12.5 38.5t34 14t66.5 2h651q45 0 68.5 -3t34.5 -16t12.5 -39t1.5 -72v-284h-55v142q0 63 -12 105.5t-39 69t-70.5 37.5t-106.5 11h-373z" />
    <glyph glyph-name="F" unicode="F" horiz-adv-x="1114" 
d="M380 1373v-620h77q42 0 83.5 15.5t75.5 47t57 79t28 111.5h43v-541h-43q-7 59 -31 103.5t-58 74.5t-74.5 45t-80.5 15h-77v-469q0 -66 -10.5 -110.5t-36.5 -72t-69.5 -39.5t-110.5 -12v1291q0 50 2 76.5t13 38.5t34 14t66 2h628q44 0 68 -5t35 -19.5t13 -40t2 -65.5v-284
h-58v143q0 62 -12 104.5t-38.5 68.5t-69.5 37.5t-106 11.5h-350z" />
    <glyph glyph-name="G" unicode="G" horiz-adv-x="1218" 
d="M861 1422q46 0 86.5 -17.5t70.5 -48t47.5 -71t17.5 -86.5v-191h-56q-5 73 -33 139.5t-74.5 116t-110 79t-140.5 29.5h-67q-63 0 -106.5 -11t-70 -37t-38.5 -68.5t-12 -105.5v-877q0 -62 12 -105t38.5 -69t70 -37.5t106.5 -11.5h67q63 0 106.5 11.5t71 37.5t39.5 69
t12 105v329h-194v50h296q34 0 57 -2t36.5 -11t19 -28.5t5.5 -55.5v-331q0 -46 -17.5 -86.5t-47.5 -71t-70.5 -48.5t-86.5 -18h-521q-46 0 -86.5 18t-70.5 48.5t-47.5 71t-17.5 86.5v975q0 46 15 86.5t43.5 71t69.5 48t94 17.5h486z" />
    <glyph glyph-name="H" unicode="H" horiz-adv-x="1303" 
d="M923 709h-543v-465q0 -81 -12.5 -129t-40 -73.5t-70.5 -33.5t-104 -8v1196q1 244 227 244v-681h543v438q0 244 227 244v-1197q0 -81 -12.5 -129t-40 -73.5t-70.5 -33.5t-104 -8v709z" />
    <glyph glyph-name="I" unicode="I" horiz-adv-x="532" 
d="M379 234q0 -65 -10.5 -110t-36 -72.5t-69 -39.5t-110.5 -12v1201q0 67 12 113t38.5 74.5t69.5 40.5t106 12v-1207z" />
    <glyph glyph-name="J" unicode="J" horiz-adv-x="985" 
d="M832 226q0 -46 -17.5 -87t-47.5 -72t-70.5 -49t-85.5 -18h-392q-41 0 -76.5 19.5t-61.5 51.5t-41 72.5t-15 82.5v325h56v-99q0 -100 31.5 -174.5t81 -124t111.5 -74.5t124 -25q50 0 84.5 13t55.5 40t30.5 68.5t9.5 97.5v928q0 68 11.5 114t38 74t69 40t104.5 12v-1215z
" />
    <glyph glyph-name="K" unicode="K" horiz-adv-x="1228" 
d="M378 740l565 640l19.5 19.5t25 20t33.5 15.5t44 6h65q5 0 4 -2.5t-4 -2.5q-38 0 -62 -13t-51 -43l-468 -525l560 -755q12 -17 25 -34t27.5 -30.5t32 -22.5t39.5 -9q2 0 2 -3q0 -1 -2 -1h-183q-47 0 -76.5 2t-53.5 14t-47 37.5t-56 72.5l-439 608v-503q0 -65 -10.5 -109
t-36 -71t-69 -39t-109.5 -12v1203q0 67 12 112.5t38.5 73.5t69.5 40t105 12v-701z" />
    <glyph glyph-name="L" unicode="L" horiz-adv-x="988" 
d="M381 50h169q83 0 149 33.5t112.5 89t71.5 127.5t25 150v101h55v-328q0 -46 -18 -86.5t-48.5 -71t-71 -48t-85.5 -17.5h-587v1200q0 67 12 113t39 74t70.5 40t106.5 12v-1389z" />
    <glyph glyph-name="M" unicode="M" horiz-adv-x="1496" 
d="M1343 1441v-1206q0 -66 -10.5 -110.5t-36.5 -72.5t-69.5 -40t-110.5 -12v1340l-407 -1340h-96l-405 1355v-1236q0 -34 -1 -56.5t-6.5 -36.5t-16.5 -20t-31 -6v1259q0 63 14 99t44.5 54.5t78 23.5t113.5 5l338 -1159l292 977q21 69 44.5 106.5t58.5 54t84.5 19t122.5 2.5z
" />
    <glyph glyph-name="N" unicode="N" horiz-adv-x="1294" 
d="M1141 1441v-1441q-52 0 -96 0.5t-78.5 7t-60 21.5t-40.5 44l-660 1266l2 -1221q0 -33 -1 -55.5t-6 -36.5t-16 -20t-32 -6v1230q0 57 10 97.5t36 65.5t71.5 36.5t116.5 11.5l699 -1349v1229q0 34 1.5 57t7.5 37t17 20t29 6z" />
    <glyph glyph-name="O" unicode="O" horiz-adv-x="1321" 
d="M944 1422q46 0 87 -17.5t71.5 -47.5t48 -71t17.5 -88v-974q0 -46 -17.5 -87t-48 -71.5t-71.5 -48t-87 -17.5h-567q-46 0 -86.5 17.5t-71 48t-48.5 71.5t-18 87v974q0 47 18 88t48.5 71t71 47.5t86.5 17.5h567zM603 1373q-63 0 -106 -11t-70 -37t-38.5 -68.5t-11.5 -104.5
v-880q0 -62 11.5 -104.5t38.5 -68.5t70 -37.5t106 -11.5h114q63 0 106.5 11.5t70 37.5t38.5 68.5t12 104.5v880q0 62 -12 104.5t-38.5 68.5t-70 37t-106.5 11h-114z" />
    <glyph glyph-name="P" unicode="P" horiz-adv-x="1139" 
d="M869 1422q45 0 85 -18t70 -48.5t47.5 -71t17.5 -86.5v-264q0 -46 -17.5 -86.5t-47.5 -71t-70.5 -48.5t-86.5 -18h-490v-478q0 -65 -10 -109.5t-35.5 -71.5t-69 -39t-109.5 -12v1289q0 50 2 77t12.5 39.5t33.5 14.5t65 2h603zM377 1371v-610h263q62 0 105.5 11t71 37
t40 68.5t12.5 104.5v166q0 63 -12.5 105.5t-40 68.5t-71 37.5t-105.5 11.5h-263z" />
    <glyph glyph-name="Q" unicode="Q" horiz-adv-x="1316" 
d="M761 -291q-47 0 -87.5 11t-70.5 37t-47.5 68t-17.5 105v72h-165q-45 0 -85 17.5t-70 48t-47.5 71t-17.5 87.5v974q0 46 17.5 86.5t47.5 70.5t70 47.5t85 17.5h569q46 0 86 -17.5t70 -47.5t47.5 -70.5t17.5 -86.5v-974q0 -47 -17.5 -87.5t-47.5 -71t-70 -48t-86 -17.5
h-181q-1 -25 -1 -46.5v-41.5q0 -38 4 -67t18 -48.5t40 -29t71 -9.5v-51h-132zM600 1372q-63 0 -106 -11t-70 -37t-39 -68.5t-12 -104.5v-877q0 -62 12 -104.5t39 -68.5t70 -37.5t106 -11.5h115q63 0 106 11.5t70 37.5t39 68.5t12 104.5v877q0 62 -12 104.5t-39 68.5t-70 37
t-106 11h-115z" />
    <glyph glyph-name="R" unicode="R" horiz-adv-x="1192" 
d="M865 1422q46 0 86.5 -17.5t71 -48t48 -71.5t17.5 -87v-264q0 -46 -17.5 -87t-48 -71.5t-71 -48t-86.5 -17.5h-223l450 -613q12 -17 24.5 -33.5t27 -29t32 -21t41.5 -9.5q0 -4 -2 -4h-209q-28 0 -54 5.5t-51 19.5t-50 38t-52 60l-421 587v-477q0 -65 -10 -109.5t-35.5 -72
t-69 -39.5t-110.5 -12v1286q0 51 2 79t12.5 40.5t33.5 14.5t66 2h598zM378 1371v-610h261q63 0 106.5 11t70.5 37t39 68.5t12 105.5v166q0 63 -12 105.5t-39 68.5t-70.5 37t-106.5 11h-261z" />
    <glyph glyph-name="S" unicode="S" horiz-adv-x="1139" 
d="M156 551v-100q0 -79 25 -151.5t71.5 -128t113 -89t149.5 -33.5h74q63 0 106.5 14t70 42t38.5 70t12 97v68q0 54 -15.5 93t-42 68t-62.5 50t-78 40q-54 24 -114 49.5t-119 55.5t-112.5 65.5t-92.5 77.5q-21 22 -36 50.5t-24.5 60t-14 64t-4.5 63.5q0 25 1 60.5t8.5 74
t25.5 76t51.5 67.5t86.5 48.5t131 18.5h350q46 0 87.5 -17.5t72 -48t48.5 -71t18 -86.5v-190h-58q-5 73 -33 139t-75 115.5t-110.5 79t-139.5 29.5h-14q-67 0 -110.5 -11.5t-69.5 -37.5t-36.5 -68.5t-10.5 -105.5q0 -36 8.5 -71t39 -70.5t89 -73.5t158.5 -80
q42 -18 89 -36.5t94 -42t89.5 -53t75.5 -69.5t52.5 -92t19.5 -119v-88q0 -172 -81 -263t-247 -91h-387q-46 0 -86.5 17.5t-71 48t-48 71t-17.5 86.5v328h55z" />
    <glyph glyph-name="T" unicode="T" horiz-adv-x="953" 
d="M362 0v1370h-78q-63 0 -106 -11t-70 -37t-38.5 -68t-11.5 -104v-142h-58v283q0 46 2.5 72t13.5 39t35 16.5t67 3.5h714q44 0 68.5 -3.5t36 -16.5t14 -39.5t2.5 -71.5v-283h-58v142q0 62 -12 104t-39 68t-70.5 37t-106.5 11h-79v-1131q0 -67 -11.5 -113t-38.5 -74t-70 -40
t-106 -12z" />
    <glyph glyph-name="U" unicode="U" horiz-adv-x="1159" 
d="M153 1201q0 67 12 112.5t39 73.5t70.5 40.5t106.5 12.5v-1169q0 -72 22.5 -115t53.5 -66.5t63 -31t51 -7.5h151q63 0 106.5 11t71 37t39.5 69t12 106v1047q0 34 1 56.5t6 36.5t16.5 20t31.5 6v-1215q0 -34 -7 -73.5t-30 -73t-68 -56t-120 -22.5h-404q-46 0 -87 17.5
t-71.5 48.5t-48 71.5t-17.5 87.5v976z" />
    <glyph glyph-name="V" unicode="V" horiz-adv-x="1005" 
d="M585 218q81 285 161 576t161 574q9 34 23.5 43.5t44.5 9.5h52l1 -1q2 -2 2 -3q-33 -3 -48 -15t-25 -45l-391 -1378q-7 0 -30 2.5t-51 17t-55 46t-43 89.5l-329 1194q-6 21 -12.5 37t-16 27.5t-24.5 18t-37 6.5q0 4 4 4h96q43 0 81.5 -10t70.5 -30.5t55 -52t34 -74.5z" />
    <glyph glyph-name="W" unicode="W" horiz-adv-x="1642" 
d="M573 218l218 800l-88 310q-5 17 -11 33t-14.5 28t-21.5 19.5t-33 7.5h-1q-1 0 -1 3l2 2h91q57 0 98.5 -15.5t70 -39.5t45.5 -53.5t25 -57.5l276 -1037q82 284 161 576t160 574q8 32 21 42.5t37 10.5h59q-1 1 -10 -4t-20 -14t-21 -20.5t-13 -24.5l-392 -1378q-9 0 -32.5 3
t-50.5 17.5t-53.5 46t-41.5 88.5l-216 789l-261 -944q-8 0 -30.5 3t-50 17.5t-55 46t-44.5 88.5l-327 1193q-6 17 -11.5 33t-13.5 28t-20.5 19.5t-32.5 7.5q-3 0 -3 3v1h1q1 1 2 1h87q56 0 98 -15.5t71.5 -39.5t47.5 -53.5t26 -57.5z" />
    <glyph glyph-name="X" unicode="X" horiz-adv-x="1085" 
d="M957 0q-30 0 -62 5.5t-61.5 20.5t-56 41t-45.5 67l-252 527l-328 -597q-17 -32 -43.5 -48t-69.5 -16h-63l-1 2v3q0 1 1 1q35 0 59.5 13t42.5 45l373 663l-282 589q-9 16 -18 33.5t-21 32t-27 24t-35 9.5q-2 0 -2 3v1q0 2 2 2h106q46 0 82 -2.5t65 -15.5t53 -39t47 -74
l197 -412l249 479q18 35 44 49.5t73 14.5h50q1 0 3 -2l1 -1q0 -3 -4 -3q-33 0 -55.5 -14.5t-36.5 -43.5l-293 -548l341 -713q8 -16 20 -32t27.5 -29t33 -21t35.5 -8q4 0 4 -4q0 -1 -1 -1q-1 -1 -3 -1h-149z" />
    <glyph glyph-name="Y" unicode="Y" horiz-adv-x="1034" 
d="M389 681l-301 637q-9 19 -19.5 37t-23.5 31.5t-29.5 22t-38.5 8.5q-2 0 -2 2t2 2h111q46 0 82 -2.5t65 -15t53.5 -39t46.5 -73.5l245 -522l305 586q18 35 43.5 50.5t69.5 15.5h59q2 0 2 -2t-2 -2q-35 0 -57 -14t-39 -48l-344 -655v-461q0 -66 -12 -112t-39 -74
t-70.5 -40.5t-106.5 -12.5v681z" />
    <glyph glyph-name="Z" unicode="Z" horiz-adv-x="1178" 
d="M819 1372h-276q-77 0 -140.5 -29.5t-110 -79.5t-74 -116t-32.5 -140h-57v192q0 46 17.5 86.5t48 71t71 48t86.5 17.5h733l-722 -1374h300q83 0 149.5 34t113 90.5t71 129t24.5 149.5v100h57v-327q0 -46 -17.5 -87t-48 -71.5t-71.5 -48t-87 -17.5h-754z" />
    <glyph glyph-name="bracketleft" unicode="[" horiz-adv-x="555" 
d="M100 1291q0 46 2 72t13.5 39t35 16.5t67.5 3.5h237v-50h-118v-1640h118v-51h-237q-44 0 -67.5 3t-35 16t-13.5 39.5t-2 72.5v1479z" />
    <glyph glyph-name="backslash" unicode="\" horiz-adv-x="991" 
d="M980 -271q-32 0 -47.5 1.5t-25 8t-17 20.5t-22.5 40q-221 409 -434 811.5t-434 811.5q26 0 39.5 0.5t22 -3.5t15.5 -16t21 -37q221 -409 441 -818.5t441 -818.5z" />
    <glyph glyph-name="bracketright" unicode="]" horiz-adv-x="555" 
d="M455 -188q0 -46 -2 -72.5t-13.5 -39.5t-35.5 -16t-67 -3h-237v51h118v1640h-118v50h237q43 0 67 -3.5t35.5 -16.5t13.5 -39t2 -72v-1479z" />
    <glyph glyph-name="asciicircum" unicode="^" horiz-adv-x="1716" 
d="M1139 1247l-281 185l-281 -185l201 266q14 23 31.5 26.5t47.5 3.5h2q30 0 47.5 -3.5t31.5 -26.5z" />
    <glyph glyph-name="underscore" unicode="_" horiz-adv-x="1010" 
d="M0 -59q0 24 6 36.5t20 17.5t37 5h58h889q0 -24 -6 -36t-20 -17t-37.5 -5.5t-57.5 -0.5h-889z" />
    <glyph glyph-name="grave" unicode="`" horiz-adv-x="1709" 
d="M769 1502q42 -5 63 -27q22 -22 37.5 -57t36 -78t50.5 -90t80 -93h-31q-45 45 -90 72t-85.5 45.5t-74.5 33t-55 35.5q-11 12 -17.5 29t-7.5 35.5t5 36.5t20 32q27 29 69 26z" />
    <glyph glyph-name="a" unicode="a" horiz-adv-x="1076" 
d="M702 734v95q0 119 -57 170t-176 51q-59 0 -100.5 -11.5t-67.5 -38t-37.5 -68.5t-11.5 -103v-24h-58v164q0 46 3 72t15 39t35.5 16.5t65.5 3.5h389q41 0 80.5 -19.5t71 -51t50.5 -71.5t19 -81v-653q0 -45 -18 -84.5t-49 -69.5t-71 -48.5t-83 -21.5h-381q-46 0 -86 17.5
t-70 48t-47.5 71.5t-17.5 87v287q0 46 17.5 86.5t47.5 71t70 48t86 17.5h381zM702 684h-153q-63 0 -106.5 -11.5t-70.5 -37.5t-39 -68.5t-12 -103.5v-190q0 -57 10 -97t32 -66.5t57.5 -40.5t86.5 -18q54 3 91 16.5t60.5 40t33.5 67t10 98.5v411z" />
    <glyph glyph-name="b" unicode="b" horiz-adv-x="1078" 
d="M326 1442v-340h378q46 0 86 -17.5t70 -47.5t47.5 -70.5t17.5 -86.5v-658q0 -46 -17.5 -86.5t-47.5 -70.5t-70 -47.5t-86 -17.5h-604v1202q0 68 12 114t39 74t70 40t105 12zM326 1052v-1003h148q63 0 107 11.5t71.5 38t39.5 69.5t12 105v558q0 62 -12 104.5t-39.5 68.5
t-71.5 37t-107 11h-148z" />
    <glyph glyph-name="c" unicode="c" horiz-adv-x="976" 
d="M816 807q-8 52 -32 96.5t-61 77.5t-85.5 51.5t-105.5 18.5t-97 -11.5t-65 -38t-36.5 -69t-11.5 -103.5v-557q0 -63 11.5 -105.5t38.5 -68.5t70.5 -37t106.5 -11h46q62 0 104 11.5t68 38t37.5 68.5t11.5 104v95h60v-143q0 -33 -7 -72.5t-30.5 -73t-68 -56t-118.5 -22.5
h-328q-44 0 -84.5 17.5t-71.5 48t-49.5 71t-18.5 87.5v654q0 46 18.5 87t50 71.5t71.5 48t84 17.5h328q74 0 118.5 -22.5t68 -56t30.5 -73t7 -72.5v-71h-60z" />
    <glyph glyph-name="d" unicode="d" horiz-adv-x="1078" 
d="M699 1052h-151q-63 0 -106 -11t-69.5 -37t-38 -68.5t-11.5 -104.5v-559q0 -56 10 -97.5t32 -69t58 -41t88 -13.5q103 0 145.5 54t42.5 167v780zM323 0q-44 0 -84 15.5t-71 42.5t-49.5 64.5t-18.5 81.5v675q0 46 17.5 87t48 71t71 47.5t86.5 17.5h376v101q0 67 11.5 113
t38 74t70 40t106.5 12v-1238q0 -55 -15 -93.5t-44 -62.5t-71.5 -35.5t-96.5 -12.5h-375z" />
    <glyph glyph-name="e" unicode="e" horiz-adv-x="1023" 
d="M511 1050q-104 0 -147 -52.5t-43 -166.5v-95h380v95q0 57 -10 98.5t-32.5 68t-58.5 39.5t-89 13zM321 687v-416q0 -62 12 -105t38.5 -69t70 -37.5t106.5 -11.5h11q63 0 106 11.5t70 37.5t38.5 69t11.5 105v95h57v-144q0 -33 -7 -72t-30 -72.5t-67 -55.5t-118 -22h-299
q-40 0 -79.5 19t-71 50.5t-51 71t-19.5 81.5v658q0 44 18 83t49 69t70.5 48.5t83.5 21.5h380q46 0 86.5 -17.5t70.5 -48t47.5 -71t17.5 -85.5v-193h-602z" />
    <glyph glyph-name="f" unicode="f" horiz-adv-x="527" 
d="M345 1255v-153h219v-50h-219v-819q0 -65 -10.5 -109.5t-36.5 -72t-69.5 -39.5t-109.5 -12v1052h-119v50h119v98q0 46 16 86.5t45.5 70.5t70 47.5t90.5 17.5h190q36 0 55.5 -7t28.5 -23t10.5 -40.5t1.5 -59.5v-90h-59q-4 36 -13 66t-25 51.5t-40 33.5t-57 12
q-45 0 -66.5 -31.5t-21.5 -78.5z" />
    <glyph glyph-name="g" unicode="g" horiz-adv-x="1080" 
d="M159 -103q4 -47 19 -79.5t42 -52.5t68 -29t97 -9h92q106 0 163.5 34t57.5 119v120h-387q-44 0 -82.5 18t-67 48.5t-45 70.5t-16.5 85v658q0 45 15.5 85.5t43.5 71t67 48t85 17.5h616v-1222q0 -56 -15 -95t-44 -63t-72 -34.5t-98 -10.5h-387q-70 0 -111.5 22.5t-63.5 55.5
t-29 71.5t-7 70.5h59zM511 51q103 0 145 53t42 166v782h-148q-63 0 -106.5 -11.5t-70.5 -37.5t-39 -68.5t-12 -105.5v-559q0 -113 43 -166t146 -53z" />
    <glyph glyph-name="h" unicode="h" horiz-adv-x="1077" 
d="M326 1440v-338h372q46 0 87 -17.5t72 -47.5t49 -71t18 -87v-646q0 -66 -10.5 -110.5t-36 -71.5t-69.5 -39t-110 -12v830q0 114 -42.5 167.5t-145.5 53.5h-184v-818q0 -66 -10.5 -110.5t-36 -71.5t-69.5 -39t-110 -12v1200q0 68 11.5 114t38.5 74t70 40t106 12z" />
    <glyph glyph-name="i" unicode="i" horiz-adv-x="480" 
d="M215 1470q25 0 48 -10t40 -27t27 -40t10 -49t-10 -49.5t-27 -41t-40 -28t-48 -10.5q-26 0 -49 10.5t-40.5 28t-28 41t-10.5 49.5q0 25 10.5 48t28 40.5t40.5 27.5t49 10zM326 232q0 -65 -10.5 -109.5t-36 -71.5t-69 -39t-109.5 -12v881q0 67 12 112.5t38.5 73.5
t69.5 40.5t105 12.5v-888z" />
    <glyph glyph-name="j" unicode="j" horiz-adv-x="514" 
d="M361 -100q0 -46 -5.5 -86.5t-28 -71t-67 -48t-122.5 -17.5h-149q-2 0 -2 2t2 2q55 0 85 27t43.5 67.5t16 87t2.5 85.5v935q0 68 11.5 114t38 73.5t69.5 39.5t106 12v-1222zM248 1471q26 0 49 -10.5t40.5 -27.5t27.5 -40.5t10 -48.5q0 -27 -10 -50.5t-27.5 -41.5
t-40.5 -28t-49 -10t-49 10.5t-41 28t-28.5 41t-10.5 50.5q0 25 10.5 48t28.5 40.5t41 28t49 10.5z" />
    <glyph glyph-name="k" unicode="k" horiz-adv-x="993" 
d="M325 1442v-894l420 480q8 9 18.5 21t25 23t33.5 18.5t43 7.5h51h4q0 -4 -2 -4q-1 -1 -2 0q-17 0 -30.5 -6.5t-25 -16t-22.5 -21.5t-21 -22l-312 -356l388 -577q8 -12 19 -27.5t24.5 -29.5t29 -24t31.5 -10h3q0 -4 -3 -4h-118h-81.5t-69.5 10.5t-64 36.5t-64 77l-275 419
v-309q0 -66 -10.5 -110.5t-36.5 -72t-69 -39.5t-109 -12v1202q0 68 12 114t38.5 74t69.5 40t105 12z" />
    <glyph glyph-name="l" unicode="l" horiz-adv-x="511" 
d="M326 1443v-1170v-89t11.5 -86.5t39 -65.5t81.5 -26q3 0 3 -3t-3 -3h-135q-78 0 -122.5 17.5t-67 48t-28 71.5t-5.5 87v980q0 67 12 113t38.5 74t69.5 40t106 12z" />
    <glyph glyph-name="m" unicode="m" horiz-adv-x="1673" 
d="M1300 1102q45 0 86 -17.5t72 -48t49.5 -71.5t18.5 -87v-644q0 -65 -10.5 -110t-36 -72.5t-69.5 -39.5t-110 -12v830q0 115 -44.5 168t-141.5 53h-186v-817q0 -52 -7 -91t-22.5 -66.5t-42 -44.5t-65.5 -25q-26 -5 -66 -7h-25v841q-2 109 -47 159.5t-139 50.5h-186v-817
q0 -65 -10.5 -110t-37 -72.5t-70.5 -39.5t-110 -12v1102h1200v0z" />
    <glyph glyph-name="n" unicode="n" 
d="M700 1102q45 0 86 -17.5t72 -48t49.5 -71.5t18.5 -87v-644q0 -65 -10.5 -110t-36 -72.5t-69.5 -39.5t-110 -12v830q0 115 -44.5 168t-141.5 53h-186v-817q0 -65 -10.5 -110t-37 -72.5t-70.5 -39.5t-110 -12v1102h414h186v0z" />
    <glyph glyph-name="o" unicode="o" horiz-adv-x="1075" 
d="M679 1102q48 0 92 -15t77.5 -43.5t53.5 -70.5t20 -96v-653q0 -54 -20 -95.5t-53.5 -70t-77.5 -43.5t-92 -15h-335q-48 0 -92 15t-77.5 43.5t-54 70t-20.5 95.5v653q0 54 20.5 96t54 70.5t77.5 43.5t92 15h335zM322 272q0 -57 10 -99t32.5 -69t58.5 -40t88 -13t88.5 13
t59 40t32.5 69t10 99v558q0 57 -10 99t-32.5 69t-59 40t-88.5 13t-88 -13t-58.5 -40t-32.5 -69t-10 -99v-558z" />
    <glyph glyph-name="p" unicode="p" horiz-adv-x="1075" 
d="M100 1102h600q45 0 85.5 -17.5t71 -48t48 -71.5t17.5 -87v-655q0 -47 -17.5 -88t-48 -71t-71 -47.5t-85.5 -17.5h-374v-104q0 -67 -11.5 -112.5t-38.5 -73.5t-70 -40t-106 -12v1445zM326 49h148q63 0 106 11.5t70 37.5t38.5 68.5t11.5 104.5v558q0 114 -42 168t-144 54
h-188v-1002z" />
    <glyph glyph-name="q" unicode="q" horiz-adv-x="1075" 
d="M922 -343q-63 0 -106 12t-70 40t-38.5 73.5t-11.5 112.5v104h-374q-45 0 -85.5 17.5t-71 47.5t-48 71t-17.5 88v655q0 46 17.5 87t48 71.5t71 48t85.5 17.5h374q105 0 165.5 -54.5t60.5 -169.5v-1221zM696 829q0 114 -42.5 168t-145.5 54q-102 0 -144 -54t-42 -168v-558
q0 -62 11.5 -104.5t38.5 -68.5t70 -37.5t106 -11.5h148v780z" />
    <glyph glyph-name="r" unicode="r" horiz-adv-x="754" 
d="M643 805q-7 43 -22.5 85.5t-39.5 75.5t-57 53.5t-75 20.5q-59 0 -91 -43t-32 -109v-655q0 -65 -10.5 -109.5t-36 -72t-69.5 -39.5t-110 -12v863q0 67 12 113t38.5 74t69.5 40t106 12h211q52 0 84 -17t50.5 -46t25 -68t7.5 -83v-83h-61z" />
    <glyph glyph-name="s" unicode="s" horiz-adv-x="1024" 
d="M322 1102h354q74 0 114.5 -22.5t59.5 -56t22.5 -72t3.5 -71.5v-73h-61q-8 53 -29.5 98t-56 77.5t-81 51t-103.5 18.5h-57q-62 0 -103 -10t-65.5 -33t-35 -60.5t-10.5 -93.5q0 -42 24.5 -73t65.5 -54.5t93.5 -41.5t108 -33t109.5 -29.5t99 -31.5q32 -12 59.5 -32.5
t47.5 -48t31.5 -60.5t11.5 -69v-159q0 -46 -17.5 -86.5t-48 -71t-71.5 -48t-87 -17.5h-317q-75 0 -129 14t-88 46t-50 84t-16 127v96h57v-96q0 -62 12 -104.5t38.5 -68.5t69.5 -37t106 -11h139q63 0 106 7.5t69.5 29.5t38 60t11.5 100v25q0 50 -28 81.5t-73.5 53t-103.5 36
t-118.5 31t-118.5 37.5t-103.5 55.5t-73.5 85.5t-28 126v102q0 46 17.5 86.5t47.5 70.5t70.5 47.5t86.5 17.5z" />
    <glyph glyph-name="t" unicode="t" horiz-adv-x="562" 
d="M345 270q0 -24 -0.5 -53t1.5 -58.5t8 -57t19.5 -49t35.5 -34.5t55 -13q4 0 4 -3q0 -2 -4 -2h-119q-78 0 -123 19t-68 54t-29 85t-6 112v783h-119v49h119v100q0 67 11.5 113t38.5 74t70 40t106 12v-339h217v-49h-217v-783z" />
    <glyph glyph-name="u" unicode="u" 
d="M323 0q-70 0 -113.5 19t-68 54.5t-33 84.5t-8.5 109v620q0 65 10.5 109.5t36.5 72t70 39.5t110 12v-896q0 -45 12 -78t38.5 -54.5t69.5 -31.5t106 -10h89q112 0 169.5 40t57.5 130v781q0 34 1.5 57t7 36.5t17 19.5t31.5 6v-900q0 -43 -11.5 -82.5t-39.5 -70t-75.5 -49
t-119.5 -18.5h-357z" />
    <glyph glyph-name="v" unicode="v" horiz-adv-x="940" 
d="M937 1102q1 0 1 -0.5t1 -0.5q0 -1 1 -1q0 -4 -3 -4q-27 0 -41.5 -13.5t-22.5 -41.5l-336 -1062q-7 0 -28 3t-46.5 17.5t-52 46t-44.5 88.5l-277 875q-7 19 -13.5 35.5t-15.5 27.5t-22.5 17.5t-34.5 6.5q-3 0 -3 4l1 1q1 0 1 0.5t1 0.5h87q58 0 98.5 -13.5t69 -37.5
t46.5 -57t30 -72l221 -704l267 836q10 29 20.5 38.5t35.5 9.5h59z" />
    <glyph glyph-name="w" unicode="w" horiz-adv-x="1488" 
d="M558 220l163 505l-92 286q-6 18 -12 33.5t-15 27.5t-22.5 18.5t-33.5 6.5h-2q-1 0 -1 3l3 2h86q58 1 97.5 -9.5t67 -33t45.5 -57t33 -80.5l221 -702l267 834q8 21 21 34.5t38 13.5h63l3 -2q0 -3 -2 -3h-1q-30 0 -44.5 -11t-26.5 -42l-336 -1065q-8 0 -29 3.5t-46.5 18.5
t-52 46.5t-44.5 88.5l-159 506l-206 -663q-7 0 -27.5 3.5t-46.5 18.5t-53 46.5t-45 88.5l-277 875q-7 20 -13.5 36t-16 27t-23.5 17t-36 6h-2q-1 0 -1 3l3 2h91q58 0 98.5 -11t68 -33t45.5 -56t32 -79z" />
    <glyph glyph-name="x" unicode="x" horiz-adv-x="1059" 
d="M891 0q-23 0 -54 6.5t-63.5 22.5t-63 42t-52.5 64l-206 361l-290 -429q-11 -16 -21 -28.5t-22.5 -21t-29 -13t-40.5 -4.5h-45q-2 0 -3 1q-1 0 -1 1q0 3 4 3q34 0 52.5 15t38.5 44l324 486l-260 444q-11 17 -20.5 35.5t-21.5 33.5t-28 24.5t-38 9.5l-2 1q0 2 1 3q0 1 1 1
h113q47 0 83 -4t65 -18.5t54 -41t51 -71.5l150 -265l220 343q11 16 21.5 27t23 18t28.5 9.5t40 2.5h37q2 0 2 -4v-1h-2q-29 0 -48 -12t-34 -38l-255 -402l322 -548q25 -40 55.5 -66t77.5 -26q1 0 1.5 -0.5t1.5 -0.5h1q0 -4 -4 -4h-164z" />
    <glyph glyph-name="y" unicode="y" horiz-adv-x="907" 
d="M-47 1102h94q58 0 98 -10t67.5 -31.5t46.5 -55t34 -81.5l223 -701l269 831q10 31 22 39.5t37 8.5h59q4 0 4 -2q0 -1 -4 -1q-29 0 -43 -13.5t-24 -42.5l-381 -1204q-14 -51 -34.5 -84.5t-45.5 -52.5t-53 -26.5t-56 -7.5h-21q-74 -1 -118.5 21t-68 55.5t-31 73t-8.5 72.5
q14 0 24 -1t16.5 -6.5t11 -16t7.5 -29.5q14 -62 56.5 -91.5t128.5 -26.5q63 1 99.5 52t60.5 139l24 79q-15 6 -32 16.5t-33.5 27.5t-31 42.5t-26.5 61.5l-279 873q-7 22 -14 38.5t-16.5 28t-24 17t-37.5 5.5q-3 0 -3 1q0 2 3 2z" />
    <glyph glyph-name="z" unicode="z" horiz-adv-x="1059" 
d="M362 48h314q62 0 105 10.5t69.5 32t38.5 55t12 79.5v141h58v-143q0 -33 -7 -72t-30.5 -72.5t-67.5 -56t-119 -22.5h-642l595 1053h-245q-63 0 -106.5 -11.5t-70 -37.5t-38.5 -68.5t-12 -104.5v-24h-58v165q0 33 1.5 57.5t12 40.5t34.5 24t70 8h683z" />
    <glyph glyph-name="braceleft" unicode="{" horiz-adv-x="842" 
d="M256 298q0 70 -16.5 113.5t-48.5 67.5t-80 33t-111 10v45q63 1 111 9.5t80 33t48.5 67.5t16.5 113v407q0 46 18 87t49.5 71.5t72.5 48.5t88 18h258v-48h-29q-63 -1 -106.5 -12.5t-70.5 -38t-39.5 -69t-12.5 -105.5v-404q0 -66 -32.5 -119.5t-86.5 -82.5
q54 -28 86.5 -81.5t32.5 -117.5v-405q0 -63 12.5 -106t39.5 -69t70.5 -37.5t106.5 -12.5l29 -1v-48h-258q-47 0 -88 18t-72.5 49t-49.5 72t-18 87v407z" />
    <glyph glyph-name="bar" unicode="|" horiz-adv-x="373" 
d="M220 -151q0 -35 -1.5 -58t-8.5 -37t-20 -20t-37 -6v1593q0 34 1.5 57.5t8 37.5t20 20t37.5 6v-1593z" />
    <glyph glyph-name="braceright" unicode="}" horiz-adv-x="842" 
d="M586 -108q0 -46 -18 -87t-49.5 -72t-73 -49t-87.5 -18h-258v48l29 1q63 1 106.5 12.5t70.5 37.5t39.5 69t12.5 106v405q0 64 32.5 117.5t86.5 81.5q-54 29 -86.5 82.5t-32.5 119.5v404q0 63 -12.5 105.5t-39.5 69t-70.5 38t-106.5 12.5h-29v48h258q46 0 87.5 -18
t73 -48.5t49.5 -71.5t18 -87v-407q0 -70 16.5 -113t48.5 -67.5t80 -33t111 -9.5v-45q-63 -1 -111 -10t-80 -33t-48.5 -67.5t-16.5 -113.5v-407z" />
    <glyph glyph-name="asciitilde" unicode="~" horiz-adv-x="1223" 
d="M176 633q31 36 76 57t96.5 28.5t105 2t101.5 -22.5q56 -20 112 -31t125 -11q71 2 128 17.5t104 51.5q18 -18 20 -32.5t-13 -28.5q-23 -23 -55.5 -33t-65.5 -27q-30 -14 -65 -21t-70.5 -8t-69.5 5t-64 18q-33 13 -63.5 23.5t-62 18t-66 11t-74.5 2.5q-67 0 -112.5 -22.5
t-86.5 -56.5q-11 16 -13 30t13 29z" />
    <glyph glyph-name="Adieresis" unicode="&#xc4;" horiz-adv-x="1134" 
d="M1139 4q-18 0 -30 8t-20.5 20.5t-13.5 28t-10 30.5l-430 1351q-10 0 -33.5 -2.5t-50.5 -14.5t-52.5 -36.5t-39.5 -67.5l-400 -1258q-9 -25 -20 -42t-37 -17q-2 0 -2 -2t2 -2h47q28 0 40.5 9.5t23.5 41.5l162 502h417l115 -387q9 -29 27 -58.5t48 -53.5t73 -39t101 -15h83
q2 0 2 2t-2 2zM493 1244l184 -639h-386zM811 1820q52 0 90.5 -39.5t38.5 -92.5q0 -55 -37 -93t-92 -38q-57 0 -95.5 38t-38.5 93q0 53 40 92.5t94 39.5zM335 1820q54 0 93.5 -39.5t39.5 -92.5q0 -55 -38.5 -93t-94.5 -38q-55 0 -92 38t-37 93q0 53 38.5 92.5t90.5 39.5z" />
    <glyph glyph-name="Aring" unicode="&#xc5;" horiz-adv-x="1134" 
d="M1132 4q-18 0 -30 8t-20.5 20.5t-13.5 28t-10 30.5l-430 1351q-10 0 -32.5 -2.5t-48 -14.5t-50 -36.5t-38.5 -67.5l-400 -1258q-9 -25 -20 -42t-37 -17q-2 0 -2 -2t2 -2h47q28 0 40.5 9.5t23.5 41.5l162 502h417l115 -387q9 -29 27 -58.5t48 -53.5t73 -39t101 -15h76
q2 0 2 2t-2 2zM493 1244l184 -639h-386zM744 1697q0 -25 -6 -54.5t-24.5 -55t-52.5 -42.5t-90 -17t-89.5 17.5t-51 43t-23 55t-5.5 53.5v3q0 24 5.5 54t23 56.5t51 44.5t89.5 18t90 -17.5t52.5 -44t24.5 -57.5t6 -57zM689 1700q0 19 -4 39.5t-16.5 37t-36 27t-61.5 10.5
q-37 0 -59.5 -10t-34.5 -26.5t-16 -36.5t-4 -41q0 -19 3.5 -39.5t15.5 -38t34.5 -28.5t60.5 -11q40 0 63.5 11t35.5 28.5t15.5 38t3.5 39.5z" />
    <glyph glyph-name="Ccedilla" unicode="&#xc7;" horiz-adv-x="1177" 
d="M829 1422q46 0 86.5 -17.5t71 -48t48.5 -71.5t18 -87v-191h-57q-7 93 -35 161.5t-71 113.5t-97.5 67t-114.5 22h-75q-60 0 -103 -12t-70.5 -38.5t-40.5 -68.5t-13 -102v-878q0 -61 13 -103.5t40.5 -69t70.5 -38.5t103 -12h75q61 0 122 26t110 76.5t79.5 125.5t30.5 173
v100h57v-327q0 -46 -18 -86.5t-48.5 -71t-71 -48t-86.5 -17.5h-477q-46 0 -86.5 17.5t-71 48t-48 71t-17.5 86.5v975q0 46 17.5 87t48 71.5t71 48t86.5 17.5h453zM514 0q0 -29 5.5 -43.5t18.5 -22t33 -9.5t49 -5q20 0 43 1.5t44 -1.5q33 -3 69 -20t66.5 -44t50 -62t19.5 -75
q0 -39 -17.5 -73t-46.5 -59.5t-66.5 -40.5t-78.5 -16h-8h-213q-69 1 -110.5 23.5t-63 55t-28.5 70t-7 69.5h61q6 -88 49.5 -129t135.5 -41q52 1 88 21.5t56 50.5t23 65.5t-11.5 67t-46.5 55t-82 29.5q-36 3 -53.5 11t-24 22.5t-6 38t0.5 58.5v3h51z" />
    <glyph glyph-name="Eacute" unicode="&#xc9;" horiz-adv-x="1176" 
d="M380 1373v-620h78q42 0 83.5 16t75.5 47.5t57 79t28 111.5h43v-542h-43q-8 59 -32 103t-58 73.5t-74 44.5t-80 16h-78v-653h281q83 0 149.5 33.5t113 89t71.5 128.5t25 151v100h56v-329q0 -46 -17.5 -86.5t-48 -70.5t-71.5 -47.5t-87 -17.5h-699v1292q0 49 2 75.5
t12.5 38.5t34 14t66.5 2h651q45 0 68.5 -3t34.5 -16t12.5 -39t1.5 -72v-284h-55v142q0 63 -12 105.5t-39 69t-70.5 37.5t-106.5 11h-373zM693 1820q42 3 69 -26q14 -14 20 -32t5 -36.5t-7.5 -35.5t-17.5 -29q-21 -21 -55 -35.5t-74.5 -33t-85.5 -45.5t-90 -72h-31
q50 46 80 93t50.5 90t36 78t37.5 57q21 22 63 27z" />
    <glyph glyph-name="Ntilde" unicode="&#xd1;" horiz-adv-x="1294" 
d="M1141 1441v-1441q-52 0 -96 0.5t-78.5 7t-60 21.5t-40.5 44l-660 1266l2 -1221q0 -33 -1 -55.5t-6 -36.5t-16 -20t-32 -6v1230q0 57 10 97.5t36 65.5t71.5 36.5t116.5 11.5l699 -1349v1229q0 34 1.5 57t7.5 37t17 20t29 6zM453 1693q21 33 50.5 53t63.5 27t69.5 2
t67.5 -21q37 -19 74 -29.5t83 -10.5q47 2 84.5 16.5t68.5 48.5q23 -32 5 -57q-15 -22 -36.5 -44t-43.5 -38q-41 -26 -90 -27.5t-88 21.5q-22 12 -42.5 26t-41 26t-43 19.5t-49.5 6.5q-45 0 -75 -21.5t-57 -53.5q-8 15 -9 28.5t9 27.5z" />
    <glyph glyph-name="Odieresis" unicode="&#xd6;" horiz-adv-x="1321" 
d="M944 1422h-567q-46 0 -86.5 -17.5t-71 -47.5t-48.5 -71t-18 -88v-974q0 -46 18 -87t48.5 -71.5t71 -48t86.5 -17.5h567q46 0 87 17.5t71.5 48t48 71.5t17.5 87v974q0 47 -17.5 88t-48 71t-71.5 47.5t-87 17.5zM717 1373q63 0 106.5 -11t70 -37t38.5 -68.5t12 -104.5v-880
q0 -62 -12 -104.5t-38.5 -68.5t-70 -37.5t-106.5 -11.5h-114q-63 0 -106 11.5t-70 37.5t-38.5 68.5t-11.5 104.5v880q0 62 11.5 104.5t38.5 68.5t70 37t106 11h114zM905 1819q52 0 90.5 -39.5t38.5 -92.5q0 -55 -37 -93t-92 -38q-57 0 -95.5 38t-38.5 93q0 53 40 92.5
t94 39.5zM429 1819q54 0 93.5 -39.5t39.5 -92.5q0 -55 -38.5 -93t-94.5 -38q-55 0 -92 38t-37 93q0 53 38.5 92.5t90.5 39.5z" />
    <glyph glyph-name="Udieresis" unicode="&#xdc;" horiz-adv-x="1159" 
d="M153 225q0 -47 17.5 -87.5t48 -71.5t71.5 -48.5t87 -17.5h404q75 0 120 22.5t68 56t30 73t7 73.5v1215q-20 0 -31.5 -6t-16.5 -20t-6 -36.5t-1 -56.5v-1047q0 -63 -12 -106t-39.5 -69t-71 -37t-106.5 -11h-151q-19 0 -51 7.5t-63 31t-53.5 66.5t-22.5 115v1169
q-63 0 -106.5 -12.5t-70.5 -40.5t-39 -73.5t-12 -112.5v-976zM860 1818q52 0 90.5 -39.5t38.5 -92.5q0 -55 -37 -93t-92 -38q-57 0 -95.5 38t-38.5 93q0 53 40 92.5t94 39.5zM384 1818q54 0 93.5 -39.5t39.5 -92.5q0 -55 -38.5 -93t-94.5 -38q-55 0 -92 38t-37 93
q0 53 38.5 92.5t90.5 39.5z" />
    <glyph glyph-name="aacute" unicode="&#xe1;" horiz-adv-x="1076" 
d="M702 734v95q0 119 -57 170t-176 51q-59 0 -100.5 -11.5t-67.5 -38t-37.5 -68.5t-11.5 -103v-24h-58v164q0 46 3 72t15 39t35.5 16.5t65.5 3.5h389q41 0 80.5 -19.5t71 -51t50.5 -71.5t19 -81v-653q0 -45 -18 -84.5t-49 -69.5t-71 -48.5t-83 -21.5h-381q-46 0 -86 17.5
t-70 48t-47.5 71.5t-17.5 87v287q0 46 17.5 86.5t47.5 71t70 48t86 17.5h381zM702 684h-153q-63 0 -106.5 -11.5t-70.5 -37.5t-39 -68.5t-12 -103.5v-190q0 -57 10 -97t32 -66.5t57.5 -40.5t86.5 -18q54 3 91 16.5t60.5 40t33.5 67t10 98.5v411zM585 1527q42 3 69 -26
q14 -14 20 -32t5 -36.5t-7.5 -35.5t-17.5 -29q-21 -21 -55 -35.5t-74.5 -33t-85.5 -45.5t-90 -72h-31q50 46 80 93t50.5 90t36 78t37.5 57q21 22 63 27z" />
    <glyph glyph-name="agrave" unicode="&#xe0;" horiz-adv-x="1076" 
d="M702 734v95q0 119 -57 170t-176 51q-59 0 -100.5 -11.5t-67.5 -38t-37.5 -68.5t-11.5 -103v-24h-58v164q0 46 3 72t15 39t35.5 16.5t65.5 3.5h389q41 0 80.5 -19.5t71 -51t50.5 -71.5t19 -81v-653q0 -45 -18 -84.5t-49 -69.5t-71 -48.5t-83 -21.5h-381q-46 0 -86 17.5
t-70 48t-47.5 71.5t-17.5 87v287q0 46 17.5 86.5t47.5 71t70 48t86 17.5h381zM702 684h-153q-63 0 -106.5 -11.5t-70.5 -37.5t-39 -68.5t-12 -103.5v-190q0 -57 10 -97t32 -66.5t57.5 -40.5t86.5 -18q54 3 91 16.5t60.5 40t33.5 67t10 98.5v411zM451 1507q42 -5 63 -27
q22 -22 37.5 -57t36 -78t50.5 -90t80 -93h-31q-45 45 -90 72t-85.5 45.5t-74.5 33t-55 35.5q-11 12 -17.5 29t-7.5 35.5t5 36.5t20 32q27 29 69 26z" />
    <glyph glyph-name="acircumflex" unicode="&#xe2;" horiz-adv-x="1076" 
d="M702 734v95q0 119 -57 170t-176 51q-59 0 -100.5 -11.5t-67.5 -38t-37.5 -68.5t-11.5 -103v-24h-58v164q0 46 3 72t15 39t35.5 16.5t65.5 3.5h389q41 0 80.5 -19.5t71 -51t50.5 -71.5t19 -81v-653q0 -45 -18 -84.5t-49 -69.5t-71 -48.5t-83 -21.5h-381q-46 0 -86 17.5
t-70 48t-47.5 71.5t-17.5 87v287q0 46 17.5 86.5t47.5 71t70 48t86 17.5h381zM702 684h-153q-63 0 -106.5 -11.5t-70.5 -37.5t-39 -68.5t-12 -103.5v-190q0 -57 10 -97t32 -66.5t57.5 -40.5t86.5 -18q54 3 91 16.5t60.5 40t33.5 67t10 98.5v411zM815 1185l-281 185
l-281 -185l201 266q14 23 31.5 26.5t47.5 3.5h2q30 0 47.5 -3.5t31.5 -26.5z" />
    <glyph glyph-name="adieresis" unicode="&#xe4;" horiz-adv-x="1076" 
d="M702 734v95q0 119 -57 170t-176 51q-59 0 -100.5 -11.5t-67.5 -38t-37.5 -68.5t-11.5 -103v-24h-58v164q0 46 3 72t15 39t35.5 16.5t65.5 3.5h389q41 0 80.5 -19.5t71 -51t50.5 -71.5t19 -81v-653q0 -45 -18 -84.5t-49 -69.5t-71 -48.5t-83 -21.5h-381q-46 0 -86 17.5
t-70 48t-47.5 71.5t-17.5 87v287q0 46 17.5 86.5t47.5 71t70 48t86 17.5h381zM702 684h-153q-63 0 -106.5 -11.5t-70.5 -37.5t-39 -68.5t-12 -103.5v-190q0 -57 10 -97t32 -66.5t57.5 -40.5t86.5 -18q54 3 91 16.5t60.5 40t33.5 67t10 98.5v411zM755 1479q52 0 90.5 -39.5
t38.5 -92.5q0 -55 -37 -93t-92 -38q-57 0 -95.5 38t-38.5 93q0 53 40 92.5t94 39.5zM279 1479q54 0 93.5 -39.5t39.5 -92.5q0 -55 -38.5 -93t-94.5 -38q-55 0 -92 38t-37 93q0 53 38.5 92.5t90.5 39.5z" />
    <glyph glyph-name="atilde" unicode="&#xe3;" horiz-adv-x="1076" 
d="M702 734v95q0 119 -57 170t-176 51q-59 0 -100.5 -11.5t-67.5 -38t-37.5 -68.5t-11.5 -103v-24h-58v164q0 46 3 72t15 39t35.5 16.5t65.5 3.5h389q41 0 80.5 -19.5t71 -51t50.5 -71.5t19 -81v-653q0 -45 -18 -84.5t-49 -69.5t-71 -48.5t-83 -21.5h-381q-46 0 -86 17.5
t-70 48t-47.5 71.5t-17.5 87v287q0 46 17.5 86.5t47.5 71t70 48t86 17.5h381zM702 684h-153q-63 0 -106.5 -11.5t-70.5 -37.5t-39 -68.5t-12 -103.5v-190q0 -57 10 -97t32 -66.5t57.5 -40.5t86.5 -18q54 3 91 16.5t60.5 40t33.5 67t10 98.5v411zM251 1331q21 33 50.5 53
t63.5 27t69.5 2t67.5 -21q37 -19 74 -29.5t83 -10.5q47 2 84.5 16.5t68.5 48.5q23 -32 5 -57q-15 -22 -36.5 -44t-43.5 -38q-41 -26 -90 -27.5t-88 21.5q-22 12 -42.5 26t-41 26t-43 19.5t-49.5 6.5q-45 0 -75 -21.5t-57 -53.5q-8 15 -9 28.5t9 27.5z" />
    <glyph glyph-name="ccedilla" unicode="&#xe7;" horiz-adv-x="976" 
d="M324 0q-44 0 -84.5 17.5t-71.5 48t-49.5 71t-18.5 87.5v654q0 46 18.5 87t50 71.5t71.5 48t84 17.5h328q74 0 118.5 -22.5t68 -56t30.5 -73t7 -72.5v-71h-60q-8 52 -32 96.5t-61 77.5t-85.5 51.5t-105.5 18.5t-97 -11.5t-65 -38t-36.5 -69t-11.5 -103.5v-557
q0 -63 11.5 -105.5t38.5 -68.5t70.5 -37t106.5 -11h46q62 0 104 11.5t68 38t37.5 68.5t11.5 104v95h60v-143q0 -33 -7 -72.5t-30.5 -73t-68 -56t-118.5 -22.5h-206q0 -29 5.5 -43.5t18.5 -22t33 -9.5t49 -5q20 0 43 1.5t44 -1.5q33 -3 69 -20t66.5 -44t50 -62t19.5 -75
q0 -39 -17.5 -73t-46.5 -59.5t-66.5 -40.5t-78.5 -16h-221q-69 1 -110.5 23.5t-63 55t-28.5 70t-7 69.5h61q6 -88 49.5 -129t135.5 -41q52 1 88 21.5t56 50.5t23 65.5t-11.5 67t-46.5 55t-82 29.5q-36 3 -53.5 11t-24 22.5t-6 38t0.5 58.5v3h-71z" />
    <glyph glyph-name="eacute" unicode="&#xe9;" horiz-adv-x="1023" 
d="M511 1050q-104 0 -147 -52.5t-43 -166.5v-95h380v95q0 57 -10 98.5t-32.5 68t-58.5 39.5t-89 13zM321 687v-416q0 -62 12 -105t38.5 -69t70 -37.5t106.5 -11.5h11q63 0 106 11.5t70 37.5t38.5 69t11.5 105v95h57v-144q0 -33 -7 -72t-30 -72.5t-67 -55.5t-118 -22h-299
q-40 0 -79.5 19t-71 50.5t-51 71t-19.5 81.5v658q0 44 18 83t49 69t70.5 48.5t83.5 21.5h380q46 0 86.5 -17.5t70.5 -48t47.5 -71t17.5 -85.5v-193h-602zM587 1514q42 3 69 -26q14 -14 20 -32t5 -36.5t-7.5 -35.5t-17.5 -29q-21 -21 -55 -35.5t-74.5 -33t-85.5 -45.5
t-90 -72h-31q50 46 80 93t50.5 90t36 78t37.5 57q21 22 63 27z" />
    <glyph glyph-name="egrave" unicode="&#xe8;" horiz-adv-x="1023" 
d="M511 1050q-104 0 -147 -52.5t-43 -166.5v-95h380v95q0 57 -10 98.5t-32.5 68t-58.5 39.5t-89 13zM321 687v-416q0 -62 12 -105t38.5 -69t70 -37.5t106.5 -11.5h11q63 0 106 11.5t70 37.5t38.5 69t11.5 105v95h57v-144q0 -33 -7 -72t-30 -72.5t-67 -55.5t-118 -22h-299
q-40 0 -79.5 19t-71 50.5t-51 71t-19.5 81.5v658q0 44 18 83t49 69t70.5 48.5t83.5 21.5h380q46 0 86.5 -17.5t70.5 -48t47.5 -71t17.5 -85.5v-193h-602zM426 1510q42 -5 63 -27q22 -22 37.5 -57t36 -78t50.5 -90t80 -93h-31q-45 45 -90 72t-85.5 45.5t-74.5 33t-55 35.5
q-11 12 -17.5 29t-7.5 35.5t5 36.5t20 32q27 29 69 26z" />
    <glyph glyph-name="ecircumflex" unicode="&#xea;" horiz-adv-x="1023" 
d="M511 1050q-104 0 -147 -52.5t-43 -166.5v-95h380v95q0 57 -10 98.5t-32.5 68t-58.5 39.5t-89 13zM321 687v-416q0 -62 12 -105t38.5 -69t70 -37.5t106.5 -11.5h11q63 0 106 11.5t70 37.5t38.5 69t11.5 105v95h57v-144q0 -33 -7 -72t-30 -72.5t-67 -55.5t-118 -22h-299
q-40 0 -79.5 19t-71 50.5t-51 71t-19.5 81.5v658q0 44 18 83t49 69t70.5 48.5t83.5 21.5h380q46 0 86.5 -17.5t70.5 -48t47.5 -71t17.5 -85.5v-193h-602zM802 1179l-281 185l-281 -185l201 266q14 23 31.5 26.5t47.5 3.5h2q30 0 47.5 -3.5t31.5 -26.5z" />
    <glyph glyph-name="edieresis" unicode="&#xeb;" horiz-adv-x="1023" 
d="M511 1050q-104 0 -147 -52.5t-43 -166.5v-95h380v95q0 57 -10 98.5t-32.5 68t-58.5 39.5t-89 13zM321 687v-416q0 -62 12 -105t38.5 -69t70 -37.5t106.5 -11.5h11q63 0 106 11.5t70 37.5t38.5 69t11.5 105v95h57v-144q0 -33 -7 -72t-30 -72.5t-67 -55.5t-118 -22h-299
q-40 0 -79.5 19t-71 50.5t-51 71t-19.5 81.5v658q0 44 18 83t49 69t70.5 48.5t83.5 21.5h380q46 0 86.5 -17.5t70.5 -48t47.5 -71t17.5 -85.5v-193h-602zM749 1479q52 0 90.5 -39.5t38.5 -92.5q0 -55 -37 -93t-92 -38q-57 0 -95.5 38t-38.5 93q0 53 40 92.5t94 39.5z
M273 1479q54 0 93.5 -39.5t39.5 -92.5q0 -55 -38.5 -93t-94.5 -38q-55 0 -92 38t-37 93q0 53 38.5 92.5t90.5 39.5z" />
    <glyph glyph-name="iacute" unicode="&#xed;" horiz-adv-x="478" 
d="M313 232q0 -65 -10.5 -109.5t-36 -71.5t-69 -39t-109.5 -12v881q0 67 12 112.5t38.5 73.5t69.5 40.5t105 12.5v-888zM249 1516q42 3 69 -26q14 -14 20 -32t5 -36.5t-7.5 -35.5t-17.5 -29q-21 -21 -55 -35.5t-74.5 -33t-85.5 -45.5t-90 -72h-31q50 46 80 93t50.5 90t36 78
t37.5 57q21 22 63 27z" />
    <glyph glyph-name="igrave" unicode="&#xec;" horiz-adv-x="457" 
d="M325 232q0 -65 -10.5 -109.5t-36 -71.5t-69 -39t-109.5 -12v881q0 67 12 112.5t38.5 73.5t69.5 40.5t105 12.5v-888zM201 1514q42 -5 63 -27q22 -22 37.5 -57t36 -78t50.5 -90t80 -93h-31q-45 45 -90 72t-85.5 45.5t-74.5 33t-55 35.5q-11 12 -17.5 29t-7.5 35.5t5 36.5
t20 32q27 29 69 26z" />
    <glyph glyph-name="icircumflex" unicode="&#xee;" horiz-adv-x="516" 
d="M359 232q0 -65 -10.5 -109.5t-36 -71.5t-69 -39t-109.5 -12v881q0 67 12 112.5t38.5 73.5t69.5 40.5t105 12.5v-888zM539 1177l-281 185l-281 -185l201 266q14 23 31.5 26.5t47.5 3.5h2q30 0 47.5 -3.5t31.5 -26.5z" />
    <glyph glyph-name="idieresis" unicode="&#xef;" horiz-adv-x="469" 
d="M327 232q0 -65 -10.5 -109.5t-36 -71.5t-69 -39t-109.5 -12v881q0 67 12 112.5t38.5 73.5t69.5 40.5t105 12.5v-888zM470 1479q52 0 90.5 -39.5t38.5 -92.5q0 -55 -37 -93t-92 -38q-57 0 -95.5 38t-38.5 93q0 53 40 92.5t94 39.5zM-6 1479q54 0 93.5 -39.5t39.5 -92.5
q0 -55 -38.5 -93t-94.5 -38q-55 0 -92 38t-37 93q0 53 38.5 92.5t90.5 39.5z" />
    <glyph glyph-name="ntilde" unicode="&#xf1;" 
d="M673 1102q45 0 86 -17.5t72 -48t49.5 -71.5t18.5 -87v-644q0 -65 -10.5 -110t-36 -72.5t-69.5 -39.5t-110 -12v830q0 115 -44.5 168t-141.5 53h-186v-817q0 -65 -10.5 -110t-37 -72.5t-70.5 -39.5t-110 -12v1102h414h186zM197 1335q21 33 50.5 53t63.5 27t69.5 2
t67.5 -21q37 -19 74 -29.5t83 -10.5q47 2 84.5 16.5t68.5 48.5q23 -32 5 -57q-15 -22 -36.5 -44t-43.5 -38q-41 -26 -90 -27.5t-88 21.5q-22 12 -42.5 26t-41 26t-43 19.5t-49.5 6.5q-45 0 -75 -21.5t-57 -53.5q-8 15 -9 28.5t9 27.5z" />
    <glyph glyph-name="oacute" unicode="&#xf3;" horiz-adv-x="1075" 
d="M679 1102q48 0 92 -15t77.5 -43.5t53.5 -70.5t20 -96v-653q0 -54 -20 -95.5t-53.5 -70t-77.5 -43.5t-92 -15h-335q-48 0 -92 15t-77.5 43.5t-54 70t-20.5 95.5v653q0 54 20.5 96t54 70.5t77.5 43.5t92 15h335zM322 272q0 -57 10 -99t32.5 -69t58.5 -40t88 -13t88.5 13
t59 40t32.5 69t10 99v558q0 57 -10 99t-32.5 69t-59 40t-88.5 13t-88 -13t-58.5 -40t-32.5 -69t-10 -99v-558zM559 1516q42 3 69 -26q14 -14 20 -32t5 -36.5t-7.5 -35.5t-17.5 -29q-21 -21 -55 -35.5t-74.5 -33t-85.5 -45.5t-90 -72h-31q50 46 80 93t50.5 90t36 78t37.5 57
q21 22 63 27z" />
    <glyph glyph-name="ograve" unicode="&#xf2;" horiz-adv-x="1075" 
d="M679 1102h-335q-48 0 -92 -15t-77.5 -43.5t-54 -70.5t-20.5 -96v-653q0 -54 20.5 -95.5t54 -70t77.5 -43.5t92 -15h335q48 0 92 15t77.5 43.5t53.5 70t20 95.5v653q0 54 -20 96t-53.5 70.5t-77.5 43.5t-92 15zM322 830q0 57 10 99t32.5 69t58.5 40t88 13t88.5 -13t59 -40
t32.5 -69t10 -99v-558q0 -57 -10 -99t-32.5 -69t-59 -40t-88.5 -13t-88 13t-58.5 40t-32.5 69t-10 99v558zM460 1521q42 -5 63 -27q22 -22 37.5 -57t36 -78t50.5 -90t80 -93h-31q-45 45 -90 72t-85.5 45.5t-74.5 33t-55 35.5q-11 12 -17.5 29t-7.5 35.5t5 36.5t20 32
q27 29 69 26z" />
    <glyph glyph-name="ocircumflex" unicode="&#xf4;" horiz-adv-x="1075" 
d="M679 1102q48 0 92 -15t77.5 -43.5t53.5 -70.5t20 -96v-653q0 -54 -20 -95.5t-53.5 -70t-77.5 -43.5t-92 -15h-335q-48 0 -92 15t-77.5 43.5t-54 70t-20.5 95.5v653q0 54 20.5 96t54 70.5t77.5 43.5t92 15h335zM322 272q0 -57 10 -99t32.5 -69t58.5 -40t88 -13t88.5 13
t59 40t32.5 69t10 99v558q0 57 -10 99t-32.5 69t-59 40t-88.5 13t-88 -13t-58.5 -40t-32.5 -69t-10 -99v-558zM814 1186l-281 185l-281 -185l201 266q14 23 31.5 26.5t47.5 3.5h2q30 0 47.5 -3.5t31.5 -26.5z" />
    <glyph glyph-name="odieresis" unicode="&#xf6;" horiz-adv-x="1075" 
d="M679 1102h-335q-48 0 -92 -15t-77.5 -43.5t-54 -70.5t-20.5 -96v-653q0 -54 20.5 -95.5t54 -70t77.5 -43.5t92 -15h335q48 0 92 15t77.5 43.5t53.5 70t20 95.5v653q0 54 -20 96t-53.5 70.5t-77.5 43.5t-92 15zM322 830q0 57 10 99t32.5 69t58.5 40t88 13t88.5 -13t59 -40
t32.5 -69t10 -99v-558q0 -57 -10 -99t-32.5 -69t-59 -40t-88.5 -13t-88 13t-58.5 40t-32.5 69t-10 99v558zM753 1479q52 0 90.5 -39.5t38.5 -92.5q0 -55 -37 -93t-92 -38q-57 0 -95.5 38t-38.5 93q0 53 40 92.5t94 39.5zM277 1479q54 0 93.5 -39.5t39.5 -92.5
q0 -55 -38.5 -93t-94.5 -38q-55 0 -92 38t-37 93q0 53 38.5 92.5t90.5 39.5z" />
    <glyph glyph-name="otilde" unicode="&#xf5;" horiz-adv-x="1075" 
d="M679 1102q48 0 92 -15t77.5 -43.5t53.5 -70.5t20 -96v-653q0 -54 -20 -95.5t-53.5 -70t-77.5 -43.5t-92 -15h-335q-48 0 -92 15t-77.5 43.5t-54 70t-20.5 95.5v653q0 54 20.5 96t54 70.5t77.5 43.5t92 15h335zM322 272q0 -57 10 -99t32.5 -69t58.5 -40t88 -13t88.5 13
t59 40t32.5 69t10 99v558q0 57 -10 99t-32.5 69t-59 40t-88.5 13t-88 -13t-58.5 -40t-32.5 -69t-10 -99v-558zM231 1331q21 33 50.5 53t63.5 27t69.5 2t67.5 -21q37 -19 74 -29.5t83 -10.5q47 2 84.5 16.5t68.5 48.5q23 -32 5 -57q-15 -22 -36.5 -44t-43.5 -38
q-41 -26 -90 -27.5t-88 21.5q-22 12 -42.5 26t-41 26t-43 19.5t-49.5 6.5q-45 0 -75 -21.5t-57 -53.5q-8 15 -9 28.5t9 27.5z" />
    <glyph glyph-name="uacute" unicode="&#xfa;" 
d="M323 0q-70 0 -113.5 19t-68 54.5t-33 84.5t-8.5 109v620q0 65 10.5 109.5t36.5 72t70 39.5t110 12v-896q0 -45 12 -78t38.5 -54.5t69.5 -31.5t106 -10h89q112 0 169.5 40t57.5 130v781q0 34 1.5 57t7 36.5t17 19.5t31.5 6v-900q0 -43 -11.5 -82.5t-39.5 -70t-75.5 -49
t-119.5 -18.5h-357zM614 1514q42 3 69 -26q14 -14 20 -32t5 -36.5t-7.5 -35.5t-17.5 -29q-21 -21 -55 -35.5t-74.5 -33t-85.5 -45.5t-90 -72h-31q50 46 80 93t50.5 90t36 78t37.5 57q21 22 63 27z" />
    <glyph glyph-name="ugrave" unicode="&#xf9;" 
d="M680 0q72 0 119.5 18.5t75.5 49t39.5 70t11.5 82.5v900q-20 0 -31.5 -6t-17 -19.5t-7 -36.5t-1.5 -57v-781q0 -90 -57.5 -130t-169.5 -40h-89q-63 0 -106 10t-69.5 31.5t-38.5 54.5t-12 78v896q-66 0 -110 -12t-70 -39.5t-36.5 -72t-10.5 -109.5v-620q0 -60 8.5 -109
t33 -84.5t68 -54.5t113.5 -19h357zM493 1524q42 -5 63 -27q22 -22 37.5 -57t36 -78t50.5 -90t80 -93h-31q-45 45 -90 72t-85.5 45.5t-74.5 33t-55 35.5q-11 12 -17.5 29t-7.5 35.5t5 36.5t20 32q27 29 69 26z" />
    <glyph glyph-name="ucircumflex" unicode="&#xfb;" 
d="M323 0q-70 0 -113.5 19t-68 54.5t-33 84.5t-8.5 109v620q0 65 10.5 109.5t36.5 72t70 39.5t110 12v-896q0 -45 12 -78t38.5 -54.5t69.5 -31.5t106 -10h89q112 0 169.5 40t57.5 130v781q0 34 1.5 57t7 36.5t17 19.5t31.5 6v-900q0 -43 -11.5 -82.5t-39.5 -70t-75.5 -49
t-119.5 -18.5h-357zM858 1178l-281 185l-281 -185l201 266q14 23 31.5 26.5t47.5 3.5h2q30 0 47.5 -3.5t31.5 -26.5z" />
    <glyph glyph-name="udieresis" unicode="&#xfc;" 
d="M680 0q72 0 119.5 18.5t75.5 49t39.5 70t11.5 82.5v900q-20 0 -31.5 -6t-17 -19.5t-7 -36.5t-1.5 -57v-781q0 -90 -57.5 -130t-169.5 -40h-89q-63 0 -106 10t-69.5 31.5t-38.5 54.5t-12 78v896q-66 0 -110 -12t-70 -39.5t-36.5 -72t-10.5 -109.5v-620q0 -60 8.5 -109
t33 -84.5t68 -54.5t113.5 -19h357zM773 1479q52 0 90.5 -39.5t38.5 -92.5q0 -55 -37 -93t-92 -38q-57 0 -95.5 38t-38.5 93q0 53 40 92.5t94 39.5zM297 1479q54 0 93.5 -39.5t39.5 -92.5q0 -55 -38.5 -93t-94.5 -38q-55 0 -92 38t-37 93q0 53 38.5 92.5t90.5 39.5z" />
    <glyph glyph-name="degree" unicode="&#xb0;" horiz-adv-x="757" 
d="M604 1284v-3q0 -25 -6 -54.5t-24.5 -55t-52.5 -42.5t-90 -17h-109q-56 0 -89.5 17.5t-51 43t-23 55t-5.5 53.5v101q0 24 5.5 54t23 56.5t51 44.5t89.5 18h109q56 0 90 -17.5t52.5 -44t24.5 -56.5t6 -55v-98zM549 1382q0 19 -4 39.5t-16.5 37t-36 27t-61.5 10.5h-109
q-37 0 -59.5 -10t-34.5 -26.5t-16 -36.5t-4 -41v-98q0 -19 3.5 -39.5t15.5 -38t34.5 -28.5t60.5 -11h109q40 0 63.5 11t35.5 28.5t15.5 38t3.5 39.5v98z" />
    <glyph glyph-name="cent" unicode="&#xa2;" horiz-adv-x="976" 
d="M562 -89q0 -35 -1.5 -58t-8.5 -37t-20 -20t-37 -6v210h-171q-47 0 -87.5 17.5t-71 48t-48 71t-17.5 87.5v652q0 46 17.5 87t48 71.5t71 48t87.5 17.5h171v180q0 34 1.5 57.5t8 37.5t20 20t37.5 6v-301h90q74 0 118.5 -22.5t68 -56t30.5 -73t7 -72.5v-71h-60
q-8 48 -29.5 90t-54.5 74.5t-76 52.5t-94 25v-997h33q62 0 104 11.5t68 38t37.5 68.5t11.5 104v95h60v-143q0 -33 -7 -72.5t-30.5 -73t-68 -56t-118.5 -22.5h-90v-89zM322 827v-555q0 -56 9 -95.5t29.5 -65.5t53.5 -40.5t81 -18.5v995q-47 -3 -80 -17t-53.5 -40t-30 -66.5
t-9.5 -96.5z" />
    <glyph glyph-name="sterling" unicode="&#xa3;" horiz-adv-x="1088" 
d="M0 607q0 24 6 36.5t20 17.5t37 5h58h19v411q0 25 0.5 60.5t8.5 74t25 76t51 67.5t86.5 48.5t130.5 18.5h350q46 0 87.5 -17.5t72 -48t48.5 -71t18 -86.5v-190h-58q-5 73 -33 139t-75 115.5t-110.5 79t-139.5 29.5h-14q-67 0 -110 -11.5t-68 -37.5t-34.5 -68.5
t-9.5 -105.5v-483h271q0 -24 -6 -36t-20 -17t-37.5 -5.5t-57.5 -0.5h-150l1 -558h281q83 0 149.5 33.5t113 89t71.5 128.5t25 151v100h56v-329q0 -46 -17.5 -86.5t-48 -70.5t-71.5 -47.5t-87 -17.5h-699v607h-140z" />
    <glyph glyph-name="section" unicode="&#xa7;" horiz-adv-x="1130" 
d="M375 1441h354q74 0 114.5 -22.5t59.5 -56t22.5 -72t3.5 -71.5v-73h-61q-8 53 -29.5 98t-56 77.5t-81 51t-103.5 18.5h-57q-62 0 -103 -10t-65.5 -33t-35 -60.5t-10.5 -93.5q0 -42 24.5 -72.5t65.5 -54t93.5 -40.5t108 -32t109.5 -29t99 -31q32 -12 59.5 -32.5t47.5 -48
t31.5 -60.5t11.5 -69v-159q0 -36 -11 -69t-30.5 -60t-46.5 -47.5t-59 -32.5q31 -12 58 -33t46.5 -48t31 -59.5t11.5 -68.5v-159q0 -46 -17.5 -86.5t-48 -71t-71.5 -48t-87 -17.5h-317q-75 0 -129 14t-88 46t-50 84t-16 127v96h57v-96q0 -62 12 -104.5t38.5 -68.5t69.5 -37
t106 -11h139q63 0 106 7.5t69.5 29.5t38 60t11.5 100v25q0 50 -28 81.5t-73.5 53t-103.5 36t-118.5 31t-118.5 37.5t-103.5 55.5t-73.5 85.5t-28 126v147q0 33 17.5 62t45 51.5t60.5 37t64 19.5q-39 17 -73.5 39.5t-59.5 53.5t-39.5 72t-14.5 95v98q0 46 17.5 86.5
t47.5 70.5t70.5 47.5t86.5 17.5zM800 590v25q0 48 -26 79t-69 52.5t-98.5 36t-113.5 29.5q-47 -3 -79 -15.5t-51.5 -35.5t-27.5 -58.5t-8 -85.5q0 -48 32 -81.5t83 -58t114.5 -42.5t126.5 -34q32 6 54 19.5t36 36t20.5 55t6.5 78.5z" />
    <glyph glyph-name="bullet" unicode="&#x2022;" horiz-adv-x="1284" 
d="M346 762q0 123 87 209t210 86q122 0 208.5 -86.5t86.5 -208.5t-87.5 -209.5t-209.5 -87.5q-123 0 -209 87t-86 210z" />
    <glyph glyph-name="Germandbls" horiz-adv-x="1095" 
d="M718 1420q46 0 87 -17.5t71.5 -48t48 -71t17.5 -86.5v-214q0 -32 -9 -62t-25.5 -56t-39 -47t-48.5 -34q26 -14 48.5 -34.5t39 -46.5t25.5 -56t9 -63v-361q0 -47 -17.5 -87.5t-48 -70.5t-71.5 -47.5t-87 -17.5h-229v48q64 0 108 11.5t71 37.5t38.5 68t11.5 103v271
q0 61 -11.5 103t-38.5 68t-71 37.5t-108 11.5h-118v-536q0 -47 -5.5 -87.5t-28 -70.5t-67.5 -47.5t-123 -17.5h-147q40 6 67.5 13.5t44 33t24 77t7.5 144.5v1009q0 54 2 83.5t12.5 42.5t33.5 15t65 2h462zM371 812h118q64 0 108 11t71 36.5t38.5 67.5t11.5 105v115
q0 62 -11.5 105t-38.5 69.5t-71 38t-108 11.5h-28q-24 0 -46 -5.5t-44 -15.5v-538z" />
    <glyph glyph-name="registered" unicode="&#xae;" horiz-adv-x="724" 
d="M482 1434q17 0 32 -6.5t26.5 -18t18 -27t6.5 -33.5v-98q0 -35 -24 -60t-59 -25l-77 -1l169 -230q10 -13 19.5 -23.5t27.5 -11.5q0 -1 -6.5 -1h-14.5h-20h-79q-22 0 -38.5 9t-36.5 36l-161 221v-179q0 -48 -32 -67.5t-83 -19.5v444q0 22 2.5 39t11.5 28.5t25.5 17
t45.5 5.5zM265 1410v-225h98q48 0 67 18t19 66v62q0 47 -19 63t-67 16h-98zM468 1558q54 0 100.5 -15t81 -43t54.5 -68t20 -89v-320q0 -48 -20 -87t-54.5 -66.5t-81 -42.5t-100.5 -15h-234q-54 0 -97 15t-73.5 42.5t-47 66.5t-16.5 87v320q0 49 18 89t49.5 68t74 43t92.5 15
h234zM298 1535q-69 0 -120.5 -12.5t-85 -41t-50 -74t-16.5 -110.5v-224q0 -65 15 -109.5t47.5 -72t84 -39.5t125.5 -12h133q73 0 124 12t82 39.5t45 72t14 109.5v224q0 65 -17.5 110.5t-51 74t-83 41t-113.5 12.5h-133z" />
    <glyph glyph-name="copyright" unicode="&#xa9;" horiz-adv-x="1683" 
 />
    <glyph glyph-name="trademark" unicode="&#x2122;" horiz-adv-x="1250" 
d="M236 888v508h-40q-32 0 -54.5 -5.5t-36 -19t-19.5 -35.5t-6 -54v-72h-30v146q0 23 1 36.5t7 20t18.5 8.5t34.5 2h367q22 0 34.5 -2t18.5 -8.5t7.5 -20t1.5 -36.5v-146h-30v72q0 64 -26 89t-91 25h-40v-386q0 -68 -25.5 -95t-91.5 -27zM1200 1433v-425q0 -33 -5 -56
t-18.5 -37.5t-36 -20.5t-56.5 -6v493l-212 -493h-44l-211 501v-440q0 -35 -4 -48t-24 -13v451q0 32 6.5 51t21.5 28.5t38.5 12t57.5 2.5l178 -392l150 298q11 36 23.5 55t30 27.5t43 10t62.5 1.5z" />
    <glyph glyph-name="acute" unicode="&#xb4;" horiz-adv-x="525" 
d="M348 1509q42 3 69 -26q14 -14 20 -32t5 -36.5t-7.5 -35.5t-17.5 -29q-21 -21 -55 -35.5t-74.5 -33t-85.5 -45.5t-90 -72h-31q50 46 80 93t50.5 90t36 78t37.5 57q21 22 63 27z" />
    <glyph glyph-name="dieresis" unicode="&#xa8;" horiz-adv-x="1086" 
d="M781 1474q52 0 90.5 -39.5t38.5 -92.5q0 -55 -37 -93t-92 -38q-57 0 -95.5 38t-38.5 93q0 53 40 92.5t94 39.5zM305 1474q54 0 93.5 -39.5t39.5 -92.5q0 -55 -38.5 -93t-94.5 -38q-55 0 -92 38t-37 93q0 53 38.5 92.5t90.5 39.5z" />
    <glyph glyph-name="AE" unicode="&#xc6;" horiz-adv-x="1826" 
d="M802 553h-377l-274 -502q-16 -29 -43.5 -40t-55.5 -11h-47q-2 0 -2 2t2 2q26 0 49.5 15.5t37.5 43.5l687 1258q5 9 9 22t14.5 26t31 25t58.5 19q11 2 27.5 3.5t35 2.5t38 1.5t37.5 0.5h539q45 0 68.5 -3t34.5 -16t12.5 -39t1.5 -72v-284h-55v142q0 63 -12 105.5t-39 69
t-70.5 37.5t-106.5 11h-373v-619h78q42 0 83.5 16t75.5 47.5t57 79t28 111.5h43v-542h-43q-8 59 -32 103t-58 73.5t-74 44.5t-80 16h-78v-653h281q83 0 149.5 33.5t113 89t71.5 128.5t25 151v100h56v-329q0 -46 -17.5 -86.5t-48 -70.5t-71.5 -47.5t-87 -17.5h-699zM802 605
l3 662l-353 -662h350z" />
    <glyph glyph-name="Oslash" unicode="&#xd8;" horiz-adv-x="1321" 
d="M170 -137q23 43 46 85l46 84q-49 30 -79 80.5t-30 111.5v972q0 47 18 88t48.5 71t71 47.5t86.5 17.5h567q30 0 60 -8q12 22 24 43.5t24 44.5q13 25 20.5 37t16 16t22 3.5t39.5 -0.5q-23 -42 -45.5 -84t-45.5 -84q49 -29 79 -79.5t30 -112.5v-972q0 -46 -17.5 -87
t-48 -71.5t-71.5 -48t-87 -17.5h-567q-31 0 -55 7q-11 -18 -20.5 -36.5t-19.5 -37.5q-15 -26 -22.5 -40t-17 -20.5t-25.5 -8t-47 -1.5zM603 1371q-63 0 -106 -11t-70 -37t-38.5 -68.5t-11.5 -104.5v-903q139 257 275 511t275 511q-21 56 -71 79t-139 23h-114zM943 1172
q-137 -257 -272.5 -513t-274.5 -514q22 -52 71 -73.5t136 -21.5h114q63 0 106.5 11.5t70 37.5t38.5 68.5t12 104.5z" />
    <glyph glyph-name="plusminus" unicode="&#xb1;" horiz-adv-x="1082" 
d="M117 639q0 24 6 36.5t20 17.5t37 5h58h273v285q0 34 1.5 57.5t8 37.5t20 20t37.5 6v-406h399q0 -24 -6 -36t-20 -17t-37.5 -5.5t-57.5 -0.5h-278v-271q0 -35 -1.5 -58t-8.5 -37t-20 -20t-37 -6v392h-394zM121 102q0 24 6 36.5t20 17.5t37 5h58h732q0 -24 -6 -36t-20 -17
t-37.5 -5.5t-57.5 -0.5h-732z" />
    <glyph glyph-name="yen" unicode="&#xa5;" horiz-adv-x="1034" 
d="M917 775h-259l-41 -79v-200h301v-63h-301v-194q0 -66 -12 -112t-39 -74t-70.5 -40.5t-106.5 -12.5v433h-324v63h324v185l-45 94h-279v63h250l-227 481q-9 19 -19.5 37t-23.5 31.5t-29.5 22t-38.5 8.5q-2 0 -2 2t2 2h111q46 0 82 -2.5t65 -15t53.5 -39t46.5 -73.5
l252 -523l298 587q18 35 43.5 50.5t69.5 15.5h59q2 0 2 -2t-2 -2q-35 0 -57 -14t-39 -48l-270 -518h226v-63z" />
    <glyph glyph-name="ordfeminine" unicode="&#xaa;" horiz-adv-x="696" 
d="M449 1177v65q0 80 -37 113.5t-117 33.5q-79 0 -111.5 -33t-32.5 -114v-16h-38v109q0 30 2 47.5t9.5 26.5t23.5 11t43 2h258q27 0 53.5 -13t47.5 -34t33.5 -47.5t12.5 -53.5v-435q0 -30 -12 -56t-32.5 -46t-47 -32.5t-55.5 -14.5h-252q-30 0 -57 11.5t-47 32t-31.5 47.5
t-11.5 58v190q0 30 11.5 57t31.5 47.5t47 32t57 11.5h252zM449 1144h-101q-42 0 -70.5 -7.5t-46.5 -25t-26 -45.5t-8 -69v-126q0 -76 27.5 -109t95.5 -38q71 4 100 37t29 110v273z" />
    <glyph glyph-name="ordmasculine" unicode="&#xba;" horiz-adv-x="693" 
d="M197 688q-30 0 -57 11.5t-47 32t-31.5 47.5t-11.5 57v455q0 30 11.5 57t31.5 47.5t47 32t57 11.5h249q31 0 57.5 -11.5t46.5 -32t31.5 -47.5t11.5 -57v-455q0 -30 -11.5 -57t-31.5 -47.5t-46.5 -32t-57.5 -11.5h-249zM328 720q67 0 93 35.5t26 110.5v394q0 75 -26 110.5
t-93 35.5q-69 0 -100 -35.5t-31 -110.5v-394q0 -75 34 -110.5t97 -35.5z" />
    <glyph glyph-name="ae" unicode="&#xe6;" horiz-adv-x="1678" 
d="M923 683v-412q0 -62 12 -105t38.5 -69t70 -37.5t106.5 -11.5h92q63 0 106 11.5t70 37.5t38.5 69t11.5 105v95h57v-144q0 -33 -7 -72t-30 -72.5t-67 -55.5t-118 -22h-380q-29 0 -56.5 9.5t-53.5 26.5q-26 -16 -54 -25t-57 -11h-381q-46 0 -86 17.5t-70 48t-47.5 71.5
t-17.5 87v287q0 46 17.5 86.5t47.5 71t70 48t86 17.5h381v95q0 119 -57 170t-176 51q-59 0 -100.5 -11.5t-67.5 -38t-37.5 -68.5t-11.5 -103v-24h-58v164q0 46 3 72t15 39t35.5 16.5t65.5 3.5h389q29 0 57 -10t54 -27q50 30 110 35h380q46 0 86.5 -17.5t70.5 -48t47.5 -71
t17.5 -85.5v-193h-602zM702 684h-153q-63 0 -106.5 -11.5t-70.5 -37.5t-39 -68.5t-12 -103.5v-190q0 -57 10 -97t32 -66.5t57.5 -40.5t86.5 -18q54 3 91 16.5t60.5 40t33.5 67t10 98.5v411zM1113 1046q-104 0 -147 -52.5t-43 -166.5v-95h380v95q0 57 -10 98.5t-32.5 68
t-58.5 39.5t-89 13z" />
    <glyph glyph-name="oslash" unicode="&#xf8;" horiz-adv-x="1119" 
d="M723 1102q22 0 43 -3.5t41 -9.5l2 3q13 25 23.5 37t23 16t29.5 3.5t43 -0.5l-56 -89q42 -28 68 -74t26 -108v-653q0 -54 -20 -95.5t-53.5 -70t-77.5 -43.5t-92 -15h-335q-43 0 -83 12t-72 35v-1q-17 -26 -28.5 -40.5t-24 -21t-31 -7.5t-49.5 -1l80 125q-36 53 -36 123
v653q0 54 20.5 96t54 70.5t77.5 43.5t92 15h335zM745 830v13.5t-1 13.5l-378 -600q2 -107 45 -156.5t144 -49.5q52 0 88.5 13t59 40t32.5 69t10 99v558zM366 394l359 565q-20 48 -61 70t-109 22q-52 0 -88 -13t-58.5 -40t-32.5 -69t-10 -99v-436z" />
    <glyph glyph-name="questiondown" unicode="&#xbf;" horiz-adv-x="1051" 
d="M523 1198q-26 0 -49 10.5t-40.5 28t-28 41t-10.5 49.5q0 27 10.5 50.5t28.5 41t41 28t48 10.5q26 0 49.5 -10.5t41 -28.5t28 -41.5t10.5 -49.5q0 -27 -10.5 -50.5t-28 -41t-41 -27.5t-49.5 -10zM333 268q0 -62 11.5 -103.5t37.5 -67.5t68.5 -37t104.5 -11h16q56 0 102 18
t80 50.5t56 76.5t30 97h59v-71q0 -22 -1 -46.5t-6.5 -49t-17.5 -47t-34 -39.5t-55.5 -27.5t-82.5 -10.5h-368q-46 0 -86 17.5t-70 47.5t-47 70t-17 85v340q0 46 17.5 86t47.5 70t70 47.5t86 17.5q50 0 82 14.5t50 41.5t25 64.5t8 83.5h49v-157q0 -65 -37.5 -119t-96.5 -82
q-20 -10 -35.5 -22.5t-25.5 -32.5t-15 -51t-5 -77v-176z" />
    <glyph glyph-name="exclamdown" unicode="&#xa1;" horiz-adv-x="457" 
d="M232 1195q-27 0 -51 10.5t-42 28t-28.5 40.5t-10.5 48q0 26 10.5 50t28.5 42t42 28.5t51 10.5q26 0 48.5 -10t39.5 -28t27 -42t10 -51q0 -26 -10 -49t-27 -40t-39.5 -27.5t-48.5 -10.5zM345 -22q-63 0 -109.5 12t-75.5 40.5t-40 74t-4 113.5l85 762h52z" />
    <glyph glyph-name="logicalnot" unicode="&#xac;" horiz-adv-x="1399" 
d="M100 859h1078q44 0 68.5 -3.5t36 -16.5t14 -39.5t2.5 -71.5v-370h-60v229q0 62 -11.5 104t-38 68t-70 37t-106.5 11h-913v52zM100 807v52v-52z" />
    <glyph glyph-name="florin" unicode="&#x192;" horiz-adv-x="893" 
d="M306 -100q-8 -46 -20 -86.5t-38.5 -71t-73 -48t-124.5 -17.5h-148q-2 0 -2 2t2 2q55 0 88 27t52.5 67.5t29 87t16.5 85.5l194 1104h-119l9 50h119l17 98q8 46 31.5 86.5t58 70.5t78.5 47.5t94 17.5h190q36 0 54 -7t24.5 -23t3.5 -40.5t-9 -59.5l-16 -90h-59q3 36 -1 66
t-16.5 51.5t-34.5 33.5t-55 12q-45 0 -72 -31.5t-35 -78.5l-27 -153h219l-9 -50h-219z" />
    <glyph glyph-name="guillemotleft" unicode="&#xab;" horiz-adv-x="947" 
d="M153 741q0 46 17.5 87t48 71.5t71 48t87.5 17.5h208q-57 -19 -97 -41t-65 -53t-36.5 -74.5t-11.5 -104.5v-194q0 -61 11 -103.5t35.5 -73.5t64.5 -53t99 -42h-208q-47 0 -87.5 17.5t-71 48t-48 71t-17.5 87.5v291zM515 698q0 46 17.5 87t48 71.5t71 48t87.5 17.5h208
q-57 -19 -97 -41t-65 -53t-36.5 -74.5t-11.5 -104.5v-100q0 -61 11 -103.5t35.5 -73.5t64.5 -53t99 -42h-208q-47 0 -87.5 17.5t-71 48t-48 71t-17.5 87.5v197z" />
    <glyph glyph-name="guillemotright" unicode="&#xbb;" horiz-adv-x="947" 
d="M794 741v-291q0 -47 -17.5 -87.5t-48 -71t-71.5 -48t-87 -17.5h-208q58 20 98.5 42t65 53t35.5 73.5t11 103.5v194q0 61 -11.5 104.5t-36.5 74.5t-65 53t-97 41h208q46 0 87 -17.5t71.5 -48t48 -71.5t17.5 -87zM432 698v-197q0 -47 -17.5 -87.5t-48 -71t-71.5 -48
t-87 -17.5h-208q58 20 98.5 42t65 53t35.5 73.5t11 103.5v100q0 61 -11.5 104.5t-36.5 74.5t-65 53t-97 41h208q46 0 87 -17.5t71.5 -48t48 -71.5t17.5 -87z" />
    <glyph glyph-name="nonbreakingspace" unicode="&#xa0;" horiz-adv-x="1047" 
 />
    <glyph glyph-name="Agrave" unicode="&#xc0;" horiz-adv-x="1134" 
d="M1139 4q-18 0 -30 8t-20.5 20.5t-13.5 28t-10 30.5l-430 1351q-10 0 -33.5 -2.5t-50.5 -14.5t-52.5 -36.5t-39.5 -67.5l-400 -1258q-9 -25 -20 -42t-37 -17q-2 0 -2 -2t2 -2h47q28 0 40.5 9.5t23.5 41.5l162 502h417l115 -387q9 -29 27 -58.5t48 -53.5t73 -39t101 -15h83
q2 0 2 2t-2 2zM493 1244l184 -639h-386zM545 1830q42 -5 63 -27q22 -22 37.5 -57t36 -78t50.5 -90t80 -93h-31q-45 45 -90 72t-85.5 45.5t-74.5 33t-55 35.5q-11 12 -17.5 29t-7.5 35.5t5 36.5t20 32q27 29 69 26z" />
    <glyph glyph-name="Atilde" unicode="&#xc3;" horiz-adv-x="1134" 
d="M1139 4q2 0 2 -2t-2 -2h-83q-58 0 -101 15t-73 39t-48 53.5t-27 58.5l-115 387h-417l-162 -502q-11 -32 -23.5 -41.5t-40.5 -9.5h-47q-2 0 -2 2t2 2q26 0 37 17t20 42l400 1258q14 43 39.5 67.5t52.5 36.5t50.5 14.5t33.5 2.5l430 -1351q5 -15 10 -30.5t13.5 -28
t20.5 -20.5t30 -8zM291 605h386l-184 639zM277 1637q21 33 50.5 53t63.5 27t69.5 2t67.5 -21q37 -19 74 -29.5t83 -10.5q47 2 84.5 16.5t68.5 48.5q23 -32 5 -57q-15 -22 -36.5 -44t-43.5 -38q-41 -26 -90 -27.5t-88 21.5q-22 12 -42.5 26t-41 26t-43 19.5t-49.5 6.5
q-45 0 -75 -21.5t-57 -53.5q-8 15 -9 28.5t9 27.5z" />
    <glyph glyph-name="Otilde" unicode="&#xd5;" horiz-adv-x="1321" 
d="M944 1422q46 0 87 -17.5t71.5 -47.5t48 -71t17.5 -88v-974q0 -46 -17.5 -87t-48 -71.5t-71.5 -48t-87 -17.5h-567q-46 0 -86.5 17.5t-71 48t-48.5 71.5t-18 87v974q0 47 18 88t48.5 71t71 47.5t86.5 17.5h567zM603 1373q-63 0 -106 -11t-70 -37t-38.5 -68.5t-11.5 -104.5
v-880q0 -62 11.5 -104.5t38.5 -68.5t70 -37.5t106 -11.5h114q63 0 106.5 11.5t70 37.5t38.5 68.5t12 104.5v880q0 62 -12 104.5t-38.5 68.5t-70 37t-106.5 11h-114zM380 1699q21 33 50.5 53t63.5 27t69.5 2t67.5 -21q37 -19 74 -29.5t83 -10.5q47 2 84.5 16.5t68.5 48.5
q23 -32 5 -57q-15 -22 -36.5 -44t-43.5 -38q-41 -26 -90 -27.5t-88 21.5q-22 12 -42.5 26t-41 26t-43 19.5t-49.5 6.5q-45 0 -75 -21.5t-57 -53.5q-8 15 -9 28.5t9 27.5z" />
    <glyph glyph-name="OE" unicode="&#x152;" horiz-adv-x="1949" 
d="M1153 1374v-621h78q42 0 83.5 16t75.5 47.5t57 79t28 111.5h43v-542h-43q-8 59 -32 103t-58 73.5t-74 44.5t-80 16h-78v-653h281q83 0 149.5 33.5t113 89t71.5 128.5t25 151v100h56v-329q0 -46 -17.5 -86.5t-48 -70.5t-71.5 -47.5t-87 -17.5h-1248q-46 0 -86.5 17.5
t-71 48t-48.5 71.5t-18 87v974q0 47 18 88t48.5 71t71 47.5t86.5 17.5l1315 1q45 0 68.5 -3t34.5 -16t12.5 -39t1.5 -72v-284h-55v142q0 63 -12 105.5t-39 69t-70.5 37.5t-106.5 11h-373zM603 1373q-63 0 -106 -11t-70 -37t-38.5 -68.5t-11.5 -104.5v-880q0 -62 11.5 -104.5
t38.5 -68.5t70 -37.5t106 -11.5h114q57 0 97.5 9t67.5 29.5t41.5 54t18.5 82.5v959v14q-4 49 -18.5 82.5t-41.5 54t-67.5 29.5t-97.5 9h-114z" />
    <glyph glyph-name="oe" unicode="&#x153;" horiz-adv-x="1708" 
d="M710 1102q75 0 136 -35q24 14 51 23.5t56 11.5h380q46 0 86.5 -18t70.5 -48.5t47.5 -71t17.5 -85.5v-196h-602v-412q0 -62 12 -105t38.5 -69t70 -37.5t106.5 -11.5h92q63 0 106 11.5t70 37.5t38.5 69t11.5 105v95h57v-144q0 -33 -7 -72t-30 -72.5t-67 -55.5t-118 -22
h-380q-27 0 -54.5 9t-52.5 25q-62 -34 -136 -34h-366q-48 0 -92 15t-77.5 43.5t-54 70t-20.5 95.5v653q0 54 20.5 96t54 70.5t77.5 43.5t92 15h366zM322 272q0 -115 50.5 -168t155.5 -53t154.5 53t49.5 168v558q0 115 -49.5 168t-154.5 53t-155.5 -53t-50.5 -168v-558z
M1143 1050q-104 0 -147 -53t-43 -167v-98h380v98q0 57 -10 98.5t-32.5 68.5t-58.5 40t-89 13z" />
    <glyph glyph-name="endash" unicode="&#x2013;" horiz-adv-x="1098" 
d="M25 543q0 24 6 36.5t20 17.5t37 5h58h902q0 -24 -6 -36t-20 -17t-37.5 -5.5t-57.5 -0.5h-902z" />
    <glyph glyph-name="emdash" unicode="&#x2014;" horiz-adv-x="2122" 
d="M25 543q0 21 4 32.5t14 17.5t25.5 7.5t38.5 1.5h1965q0 -21 -4.5 -33t-15.5 -17.5t-28.5 -7t-43.5 -1.5h-1955z" />
    <glyph glyph-name="quotedblleft" unicode="&#x201c;" horiz-adv-x="885" 
d="M671 1638q-33 -32 -60 -74t-37 -90q21 0 40.5 -1.5t37.5 -8t33 -19.5t27 -34t14 -47t-5 -50.5t-22.5 -46.5t-38.5 -35q-23 -14 -50 -16.5t-52.5 5.5t-46.5 25.5t-33 43.5q-23 52 -11.5 108t43.5 106t77.5 90.5t92.5 62.5q0 -8 -1 -9.5t-8 -9.5zM337 1638q-33 -32 -60 -74
t-37 -90q21 0 40.5 -1.5t37.5 -8t33 -19.5t27 -34t14 -47t-5 -50.5t-22.5 -46.5t-38.5 -35q-23 -14 -50 -16.5t-52.5 5.5t-46.5 25.5t-33 43.5q-23 52 -11.5 108t43.5 106t77.5 90.5t92.5 62.5q0 -8 -1 -9.5t-8 -9.5z" />
    <glyph glyph-name="quotedblright" unicode="&#x201d;" horiz-adv-x="885" 
d="M156 1051q33 32 60 74t37 90q-21 0 -40.5 1.5t-37.5 8t-33 19.5t-27 34t-14 47t5 50.5t22.5 46t38.5 35.5t50 16.5t52.5 -5.5t46.5 -25.5t33 -43.5q22 -52 11 -108t-43 -106t-78 -90.5t-92 -62.5q0 8 1 9.5t8 9.5zM490 1051q33 32 60 74t37 90q-21 0 -40.5 1.5t-37.5 8
t-33 19.5t-27 34t-14 47t5 50.5t22.5 46t38.5 35.5t50 16.5t52.5 -5.5t46.5 -25.5t33 -43.5q22 -52 11 -108t-43 -106t-78 -90.5t-92 -62.5q0 8 1 9.5t8 9.5z" />
    <glyph glyph-name="quoteleft" unicode="&#x2018;" horiz-adv-x="571" 
d="M337 1636q-33 -32 -60 -74t-37 -90q21 0 40.5 -1.5t37.5 -8t33 -19.5t27 -34t14 -47t-5 -50.5t-22.5 -46.5t-38.5 -35q-23 -14 -50 -16.5t-52.5 5.5t-46.5 25.5t-33 43.5q-23 52 -11.5 108t43.5 106t77.5 90.5t92.5 62.5q0 -8 -1 -9.5t-8 -9.5z" />
    <glyph glyph-name="quoteright" unicode="&#x2019;" horiz-adv-x="571" 
d="M156 1051q33 32 60 74t37 90q-21 0 -40.5 1.5t-37.5 8t-33 19.5t-27 34t-14 47t5 50.5t22.5 46t38.5 35.5t50 16.5t52.5 -5.5t46.5 -25.5t33 -43.5q22 -52 11 -108t-43 -106t-78 -90.5t-92 -62.5q0 8 1 9.5t8 9.5z" />
    <glyph glyph-name="divide" unicode="&#xf7;" horiz-adv-x="1160" 
d="M597 1043q58 0 99 -42t41 -100q0 -55 -41.5 -96.5t-98.5 -41.5q-56 0 -98.5 41.5t-42.5 96.5q0 58 42 100t99 42zM597 304q58 0 99 -41t41 -98q0 -58 -41 -100t-99 -42q-56 0 -98.5 43t-42.5 99t41.5 97.5t99.5 41.5zM153 500q0 24 6 36.5t20 17.5t37 5h58h733
q0 -24 -6 -36t-20 -17t-37.5 -5.5t-57.5 -0.5h-733z" />
    <glyph glyph-name="ydieresis" unicode="&#xff;" horiz-adv-x="907" 
d="M-47 1102h94q58 0 98 -10t67.5 -31.5t46.5 -55t34 -81.5l223 -701l269 831q10 31 22 39.5t37 8.5h59q4 0 4 -2q0 -1 -4 -1q-29 0 -43 -13.5t-24 -42.5l-381 -1204q-14 -51 -34.5 -84.5t-45.5 -52.5t-53 -26.5t-56 -7.5h-21q-74 -1 -118.5 21t-68 55.5t-31 73t-8.5 72.5
q14 0 24 -1t16.5 -6.5t11 -16t7.5 -29.5q14 -62 56.5 -91.5t128.5 -26.5q63 1 99.5 52t60.5 139l24 79q-15 6 -32 16.5t-33.5 27.5t-31 42.5t-26.5 61.5l-279 873q-7 22 -14 38.5t-16.5 28t-24 17t-37.5 5.5q-3 0 -3 1q0 2 3 2zM716 1479q52 0 90.5 -39.5t38.5 -92.5
q0 -55 -37 -93t-92 -38q-57 0 -95.5 38t-38.5 93q0 53 40 92.5t94 39.5zM240 1479q54 0 93.5 -39.5t39.5 -92.5q0 -55 -38.5 -93t-94.5 -38q-55 0 -92 38t-37 93q0 53 38.5 92.5t90.5 39.5z" />
    <glyph glyph-name="Ydieresis" unicode="&#x178;" horiz-adv-x="1084" 
d="M414 681l-301 637q-9 19 -19.5 37t-23.5 31.5t-29.5 22t-38.5 8.5q-2 0 -2 2t2 2h111q46 0 82 -2.5t65 -15t53.5 -39t46.5 -73.5l245 -522l305 586q18 35 43.5 50.5t69.5 15.5h59q2 0 2 -2t-2 -2q-35 0 -57 -14t-39 -48l-344 -655v-461q0 -66 -12 -112t-39 -74
t-70.5 -40.5t-106.5 -12.5v681zM783 1819q52 0 90.5 -39.5t38.5 -92.5q0 -55 -37 -93t-92 -38q-57 0 -95.5 38t-38.5 93q0 53 40 92.5t94 39.5zM307 1819q54 0 93.5 -39.5t39.5 -92.5q0 -55 -38.5 -93t-94.5 -38q-55 0 -92 38t-37 93q0 53 38.5 92.5t90.5 39.5z" />
    <glyph glyph-name="fraction" unicode="&#x2044;" horiz-adv-x="245" 
d="M488 1364q13 25 23.5 37t23 16t29.5 3.5t43 -0.5l-850 -1350q-17 -26 -28.5 -40.5t-24 -21t-31 -7.5t-49.5 -1z" />
    <glyph glyph-name="currency" unicode="&#xa4;" horiz-adv-x="1199" 
d="M936 955q19 -24 31.5 -51.5t20 -56t10 -56t2.5 -51.5v-182q0 -25 -2.5 -52.5t-10 -55t-20 -54.5t-32.5 -51l113 -113q-17 -17 -30 -21t-26.5 2t-30.5 22.5t-41 40.5l-29 29q-35 -26 -85.5 -40.5t-120.5 -14.5h-198q-69 0 -118 15t-84 40l-29 -29q-24 -24 -41 -40.5
t-30.5 -22.5t-26.5 -2t-30 21l114 114q-20 24 -32 51.5t-18.5 55t-9 54.5t-2.5 51v182q0 23 2.5 50t9 55.5t18.5 56.5t31 53l-113 113q17 17 30 21.5t26.5 -2t30.5 -23t41 -40.5l27 -27q35 26 84.5 42t119.5 16h198q71 0 122 -16.5t86 -42.5l27 28q24 24 41 40.5t30.5 23
t26.5 2t30 -21.5zM354 373q23 -16 55.5 -25t77.5 -9h198q46 0 80 9t58 25l44 40q25 34 32.5 74.5t7.5 75.5v177q0 35 -8.5 74t-31.5 72l-43 42q-25 17 -58.5 27t-80.5 10h-198q-45 0 -78 -10t-57 -27l-41 -43q-22 -32 -30 -70.5t-8 -74.5v-177q0 -35 8 -74.5t31 -73.5z" />
    <glyph glyph-name="guilsinglleft" unicode="&#x2039;" horiz-adv-x="585" 
d="M432 874v-649q0 -47 -17.5 -87.5t-48 -71t-71.5 -48t-87 -17.5h-208q58 20 98.5 42t65 53t35.5 73.5t11 103.5v552q0 61 -11.5 104.5t-36.5 74.5t-65 53t-97 41h208q46 0 87 -17.5t71.5 -48t48 -71.5t17.5 -87z" />
    <glyph glyph-name="guilsinglright" unicode="&#x203a;" horiz-adv-x="585" 
d="M432 741v-291q0 -47 -17.5 -87.5t-48 -71t-71.5 -48t-87 -17.5h-208q58 20 98.5 42t65 53t35.5 73.5t11 103.5v194q0 61 -11.5 104.5t-36.5 74.5t-65 53t-97 41h208q46 0 87 -17.5t71.5 -48t48 -71.5t17.5 -87z" />
    <glyph glyph-name="periodcentered" unicode="&#xb7;" horiz-adv-x="533" 
d="M267 846q53 0 90 -37.5t37 -89.5t-37.5 -90.5t-89.5 -38.5q-51 0 -89.5 39t-38.5 90t38 89t90 38z" />
    <glyph glyph-name="quotesinglbase" unicode="&#x201a;" horiz-adv-x="518" 
d="M156 -190q33 32 60 74t37 90q-21 0 -40.5 1.5t-37.5 8t-33 19.5t-27 34t-14 47t5 50.5t22.5 46t38.5 35.5t50 16.5t52.5 -5.5t46.5 -25.5t33 -43.5q22 -52 11 -108t-43 -106t-78 -90.5t-92 -62.5q0 8 1 9.5t8 9.5z" />
    <glyph glyph-name="quotedblbase" unicode="&#x201e;" horiz-adv-x="885" 
d="M156 -190q33 32 60 74t37 90q-21 0 -40.5 1.5t-37.5 8t-33 19.5t-27 34t-14 47t5 50.5t22.5 46t38.5 35.5t50 16.5t52.5 -5.5t46.5 -25.5t33 -43.5q22 -52 11 -108t-43 -106t-78 -90.5t-92 -62.5q0 8 1 9.5t8 9.5zM490 -190q33 32 60 74t37 90q-21 0 -40.5 1.5t-37.5 8
t-33 19.5t-27 34t-14 47t5 50.5t22.5 46t38.5 35.5t50 16.5t52.5 -5.5t46.5 -25.5t33 -43.5q22 -52 11 -108t-43 -106t-78 -90.5t-92 -62.5q0 8 1 9.5t8 9.5z" />
    <glyph glyph-name="perthousand" unicode="&#x2030;" horiz-adv-x="2526" 
d="M153 1243q0 41 15 77t41 62.5t61.5 42t77.5 15.5h308q41 0 77 -15.5t62.5 -42t42 -62.5t15.5 -77v-158q0 -41 -15.5 -77.5t-42 -63.5t-62.5 -43t-77 -16h-308q-42 0 -77.5 16t-61.5 43t-41 63.5t-15 77.5v158zM661 1200q0 99 -36.5 147t-120.5 48q-88 0 -123.5 -47.5
t-35.5 -147.5v-73q0 -99 35.5 -147.5t123.5 -48.5q84 0 120.5 49t36.5 147v73zM1013 333q0 41 14.5 77t41 63t62 43t77.5 16h307q42 0 78 -16t62.5 -43t42 -63t15.5 -77v-155q0 -41 -15.5 -77.5t-42 -63.5t-62.5 -43t-78 -16h-307q-42 0 -77.5 16t-62 43t-41 63.5
t-14.5 77.5v155zM1520 290q0 100 -35.5 148t-119.5 48q-87 0 -123.5 -48t-36.5 -148v-70q0 -101 36.5 -148t123.5 -47q84 0 119.5 47t35.5 148v70zM1269 1387q13 25 20.5 37t16 16t22 3.5t39.5 -0.5l-746 -1393q-14 -25 -21 -39t-17 -21t-26.5 -8.5t-47.5 -1.5zM1824 333
q0 41 14.5 77t41 63t62 43t77.5 16h307q42 0 78 -16t62.5 -43t42 -63t15.5 -77v-155q0 -41 -15.5 -77.5t-42 -63.5t-62.5 -43t-78 -16h-307q-42 0 -77.5 16t-62 43t-41 63.5t-14.5 77.5v155zM2331 290q0 100 -35.5 148t-119.5 48q-87 0 -123.5 -48t-36.5 -148v-70
q0 -101 36.5 -148t123.5 -47q84 0 119.5 47t35.5 148v70z" />
    <glyph glyph-name="Acircumflex" unicode="&#xc2;" horiz-adv-x="1134" 
d="M1139 4q2 0 2 -2t-2 -2h-83q-58 0 -101 15t-73 39t-48 53.5t-27 58.5l-115 387h-417l-162 -502q-11 -32 -23.5 -41.5t-40.5 -9.5h-47q-2 0 -2 2t2 2q26 0 37 17t20 42l400 1258q14 43 39.5 67.5t52.5 36.5t50.5 14.5t33.5 2.5l430 -1351q5 -15 10 -30.5t13.5 -28
t20.5 -20.5t30 -8zM291 605h386l-184 639zM836 1404l-281 185l-281 -185l201 266q14 23 31.5 26.5t47.5 3.5h2q30 0 47.5 -3.5t31.5 -26.5z" />
    <glyph glyph-name="Ecircumflex" unicode="&#xca;" horiz-adv-x="1176" 
d="M380 1373v-620h78q42 0 83.5 16t75.5 47.5t57 79t28 111.5h43v-542h-43q-8 59 -32 103t-58 73.5t-74 44.5t-80 16h-78v-653h281q83 0 149.5 33.5t113 89t71.5 128.5t25 151v100h56v-329q0 -46 -17.5 -86.5t-48 -70.5t-71.5 -47.5t-87 -17.5h-699v1292q0 49 2 75.5
t12.5 38.5t34 14t66.5 2h651q45 0 68.5 -3t34.5 -16t12.5 -39t1.5 -72v-284h-55v142q0 63 -12 105.5t-39 69t-70.5 37.5t-106.5 11h-373zM903 1470l-281 185l-281 -185l201 266q14 23 31.5 26.5t47.5 3.5h2q30 0 47.5 -3.5t31.5 -26.5z" />
    <glyph glyph-name="Aacute" unicode="&#xc1;" horiz-adv-x="1134" 
d="M1139 4q2 0 2 -2t-2 -2h-83q-58 0 -101 15t-73 39t-48 53.5t-27 58.5l-115 387h-417l-162 -502q-11 -32 -23.5 -41.5t-40.5 -9.5h-47q-2 0 -2 2t2 2q26 0 37 17t20 42l400 1258q14 43 39.5 67.5t52.5 36.5t50.5 14.5t33.5 2.5l430 -1351q5 -15 10 -30.5t13.5 -28
t20.5 -20.5t30 -8zM291 605h386l-184 639zM610 1834q42 3 69 -26q14 -14 20 -32t5 -36.5t-7.5 -35.5t-17.5 -29q-21 -21 -55 -35.5t-74.5 -33t-85.5 -45.5t-90 -72h-31q50 46 80 93t50.5 90t36 78t37.5 57q21 22 63 27z" />
    <glyph glyph-name="Edieresis" unicode="&#xcb;" horiz-adv-x="1176" 
d="M380 1373v-620h78q42 0 83.5 16t75.5 47.5t57 79t28 111.5h43v-542h-43q-8 59 -32 103t-58 73.5t-74 44.5t-80 16h-78v-653h281q83 0 149.5 33.5t113 89t71.5 128.5t25 151v100h56v-329q0 -46 -17.5 -86.5t-48 -70.5t-71.5 -47.5t-87 -17.5h-699v1292q0 49 2 75.5
t12.5 38.5t34 14t66.5 2h651q45 0 68.5 -3t34.5 -16t12.5 -39t1.5 -72v-284h-55v142q0 63 -12 105.5t-39 69t-70.5 37.5t-106.5 11h-373zM825 1816q52 0 90.5 -39.5t38.5 -92.5q0 -55 -37 -93t-92 -38q-57 0 -95.5 38t-38.5 93q0 53 40 92.5t94 39.5zM349 1816
q54 0 93.5 -39.5t39.5 -92.5q0 -55 -38.5 -93t-94.5 -38q-55 0 -92 38t-37 93q0 53 38.5 92.5t90.5 39.5z" />
    <glyph glyph-name="Egrave" unicode="&#xc8;" horiz-adv-x="1176" 
d="M380 1373v-620h78q42 0 83.5 16t75.5 47.5t57 79t28 111.5h43v-542h-43q-8 59 -32 103t-58 73.5t-74 44.5t-80 16h-78v-653h281q83 0 149.5 33.5t113 89t71.5 128.5t25 151v100h56v-329q0 -46 -17.5 -86.5t-48 -70.5t-71.5 -47.5t-87 -17.5h-699v1292q0 49 2 75.5
t12.5 38.5t34 14t66.5 2h651q45 0 68.5 -3t34.5 -16t12.5 -39t1.5 -72v-284h-55v142q0 63 -12 105.5t-39 69t-70.5 37.5t-106.5 11h-373zM542 1834q42 -5 63 -27q22 -22 37.5 -57t36 -78t50.5 -90t80 -93h-31q-45 45 -90 72t-85.5 45.5t-74.5 33t-55 35.5q-11 12 -17.5 29
t-7.5 35.5t5 36.5t20 32q27 29 69 26z" />
    <glyph glyph-name="Iacute" unicode="&#xcd;" horiz-adv-x="478" 
d="M307 234q0 -65 -10.5 -110t-36 -72.5t-69 -39.5t-110.5 -12v1201q0 67 12 113t38.5 74.5t69.5 40.5t106 12v-1207zM249 1797q42 3 69 -26q14 -14 20 -32t5 -36.5t-7.5 -35.5t-17.5 -29q-21 -21 -55 -35.5t-74.5 -33t-85.5 -45.5t-90 -72h-31q50 46 80 93t50.5 90t36 78
t37.5 57q21 22 63 27z" />
    <glyph glyph-name="Icircumflex" unicode="&#xce;" horiz-adv-x="763" 
d="M500 234q0 -65 -10.5 -110t-36 -72.5t-69 -39.5t-110.5 -12v1201q0 67 12 113t38.5 74.5t69.5 40.5t106 12v-1207zM698 1472l-281 185l-281 -185l201 266q14 23 31.5 26.5t47.5 3.5h2q30 0 47.5 -3.5t31.5 -26.5z" />
    <glyph glyph-name="Idieresis" unicode="&#xcf;" horiz-adv-x="546" 
d="M382 234q0 -65 -10.5 -110t-36 -72.5t-69 -39.5t-110.5 -12v1201q0 67 12 113t38.5 74.5t69.5 40.5t106 12v-1207zM511 1816q52 0 90.5 -39.5t38.5 -92.5q0 -55 -37 -93t-92 -38q-57 0 -95.5 38t-38.5 93q0 53 40 92.5t94 39.5zM35 1816q54 0 93.5 -39.5t39.5 -92.5
q0 -55 -38.5 -93t-94.5 -38q-55 0 -92 38t-37 93q0 53 38.5 92.5t90.5 39.5z" />
    <glyph glyph-name="Igrave" unicode="&#xcc;" horiz-adv-x="497" 
d="M379 234q0 -65 -10.5 -110t-36 -72.5t-69 -39.5t-110.5 -12v1201q0 67 12 113t38.5 74.5t69.5 40.5t106 12v-1207zM248 1827q42 -5 63 -27q22 -22 37.5 -57t36 -78t50.5 -90t80 -93h-31q-45 45 -90 72t-85.5 45.5t-74.5 33t-55 35.5q-11 12 -17.5 29t-7.5 35.5t5 36.5
t20 32q27 29 69 26z" />
    <glyph glyph-name="Oacute" unicode="&#xd3;" horiz-adv-x="1321" 
d="M944 1422q46 0 87 -17.5t71.5 -47.5t48 -71t17.5 -88v-974q0 -46 -17.5 -87t-48 -71.5t-71.5 -48t-87 -17.5h-567q-46 0 -86.5 17.5t-71 48t-48.5 71.5t-18 87v974q0 47 18 88t48.5 71t71 47.5t86.5 17.5h567zM603 1373q-63 0 -106 -11t-70 -37t-38.5 -68.5t-11.5 -104.5
v-880q0 -62 11.5 -104.5t38.5 -68.5t70 -37.5t106 -11.5h114q63 0 106.5 11.5t70 37.5t38.5 68.5t12 104.5v880q0 62 -12 104.5t-38.5 68.5t-70 37t-106.5 11h-114zM735 1839q42 3 69 -26q14 -14 20 -32t5 -36.5t-7.5 -35.5t-17.5 -29q-21 -21 -55 -35.5t-74.5 -33
t-85.5 -45.5t-90 -72h-31q50 46 80 93t50.5 90t36 78t37.5 57q21 22 63 27z" />
    <glyph glyph-name="Ocircumflex" unicode="&#xd4;" horiz-adv-x="1321" 
d="M944 1422q46 0 87 -17.5t71.5 -47.5t48 -71t17.5 -88v-974q0 -46 -17.5 -87t-48 -71.5t-71.5 -48t-87 -17.5h-567q-46 0 -86.5 17.5t-71 48t-48.5 71.5t-18 87v974q0 47 18 88t48.5 71t71 47.5t86.5 17.5h567zM603 1373q-63 0 -106 -11t-70 -37t-38.5 -68.5t-11.5 -104.5
v-880q0 -62 11.5 -104.5t38.5 -68.5t70 -37.5t106 -11.5h114q63 0 106.5 11.5t70 37.5t38.5 68.5t12 104.5v880q0 62 -12 104.5t-38.5 68.5t-70 37t-106.5 11h-114zM941 1470l-281 185l-281 -185l201 266q14 23 31.5 26.5t47.5 3.5h2q30 0 47.5 -3.5t31.5 -26.5z" />
    <glyph glyph-name="Ograve" unicode="&#xd2;" horiz-adv-x="1321" 
d="M944 1422h-567q-46 0 -86.5 -17.5t-71 -47.5t-48.5 -71t-18 -88v-974q0 -46 18 -87t48.5 -71.5t71 -48t86.5 -17.5h567q46 0 87 17.5t71.5 48t48 71.5t17.5 87v974q0 47 -17.5 88t-48 71t-71.5 47.5t-87 17.5zM717 1373q63 0 106.5 -11t70 -37t38.5 -68.5t12 -104.5v-880
q0 -62 -12 -104.5t-38.5 -68.5t-70 -37.5t-106.5 -11.5h-114q-63 0 -106 11.5t-70 37.5t-38.5 68.5t-11.5 104.5v880q0 62 11.5 104.5t38.5 68.5t70 37t106 11h114zM569 1832q42 -5 63 -27q22 -22 37.5 -57t36 -78t50.5 -90t80 -93h-31q-45 45 -90 72t-85.5 45.5t-74.5 33
t-55 35.5q-11 12 -17.5 29t-7.5 35.5t5 36.5t20 32q27 29 69 26z" />
    <glyph glyph-name="Uacute" unicode="&#xda;" horiz-adv-x="1159" 
d="M153 1201q0 67 12 112.5t39 73.5t70.5 40.5t106.5 12.5v-1169q0 -72 22.5 -115t53.5 -66.5t63 -31t51 -7.5h151q63 0 106.5 11t71 37t39.5 69t12 106v1047q0 34 1 56.5t6 36.5t16.5 20t31.5 6v-1215q0 -34 -7 -73.5t-30 -73t-68 -56t-120 -22.5h-404q-46 0 -87 17.5
t-71.5 48.5t-48 71.5t-17.5 87.5v976zM733 1835q42 3 69 -26q14 -14 20 -32t5 -36.5t-7.5 -35.5t-17.5 -29q-21 -21 -55 -35.5t-74.5 -33t-85.5 -45.5t-90 -72h-31q50 46 80 93t50.5 90t36 78t37.5 57q21 22 63 27z" />
    <glyph glyph-name="Ucircumflex" unicode="&#xdb;" horiz-adv-x="1159" 
d="M153 1201q0 67 12 112.5t39 73.5t70.5 40.5t106.5 12.5v-1169q0 -72 22.5 -115t53.5 -66.5t63 -31t51 -7.5h151q63 0 106.5 11t71 37t39.5 69t12 106v1047q0 34 1 56.5t6 36.5t16.5 20t31.5 6v-1215q0 -34 -7 -73.5t-30 -73t-68 -56t-120 -22.5h-404q-46 0 -87 17.5
t-71.5 48.5t-48 71.5t-17.5 87.5v976zM948 1460l-281 185l-281 -185l201 266q14 23 31.5 26.5t47.5 3.5h2q30 0 47.5 -3.5t31.5 -26.5z" />
    <glyph glyph-name="Ugrave" unicode="&#xd9;" horiz-adv-x="1159" 
d="M153 225q0 -47 17.5 -87.5t48 -71.5t71.5 -48.5t87 -17.5h404q75 0 120 22.5t68 56t30 73t7 73.5v1215q-20 0 -31.5 -6t-16.5 -20t-6 -36.5t-1 -56.5v-1047q0 -63 -12 -106t-39.5 -69t-71 -37t-106.5 -11h-151q-19 0 -51 7.5t-63 31t-53.5 66.5t-22.5 115v1169
q-63 0 -106.5 -12.5t-70.5 -40.5t-39 -73.5t-12 -112.5v-976zM583 1807q42 -5 63 -27q22 -22 37.5 -57t36 -78t50.5 -90t80 -93h-31q-45 45 -90 72t-85.5 45.5t-74.5 33t-55 35.5q-11 12 -17.5 29t-7.5 35.5t5 36.5t20 32q27 29 69 26z" />
    <glyph glyph-name="dotlessi" unicode="&#x131;" horiz-adv-x="478" 
d="M325 232q0 -65 -10.5 -109.5t-36 -71.5t-69 -39t-109.5 -12v881q0 67 12 112.5t38.5 73.5t69.5 40.5t105 12.5v-888z" />
    <glyph glyph-name="circumflex" unicode="&#x2c6;" horiz-adv-x="762" 
d="M662 1260l-281 185l-281 -185l201 266q14 23 31.5 26.5t47.5 3.5h2q30 0 47.5 -3.5t31.5 -26.5z" />
    <glyph glyph-name="tilde" unicode="&#x2dc;" horiz-adv-x="890" 
d="M162 1355q21 33 50.5 53t63.5 27t69.5 2t67.5 -21q37 -19 74 -29.5t83 -10.5q47 2 84.5 16.5t68.5 48.5q23 -32 5 -57q-15 -22 -36.5 -44t-43.5 -38q-41 -26 -90 -27.5t-88 21.5q-22 12 -42.5 26t-41 26t-43 19.5t-49.5 6.5q-45 0 -75 -21.5t-57 -53.5q-8 15 -9 28.5
t9 27.5z" />
    <glyph glyph-name="macron" unicode="&#xaf;" horiz-adv-x="735" 
d="M100 1380q0 24 6 36.5t20 17.5t37 5h58h414q0 -24 -6 -36t-20 -17t-37.5 -5.5t-57.5 -0.5h-414z" />
    <glyph glyph-name="breve" unicode="&#x2d8;" horiz-adv-x="545" 
d="M495 1423q0 -25 -6 -55t-24.5 -56.5t-52.5 -44t-90 -17.5t-89.5 18t-51 44.5t-23 56.5t-5.5 54h55q0 -21 4 -41t16 -36.5t34.5 -26.5t59.5 -10q38 0 61.5 10.5t36 27t16.5 37t4 39.5h55z" />
    <glyph glyph-name="dotaccent" unicode="&#x2d9;" horiz-adv-x="1142" 
d="M562 1477q54 0 93.5 -39.5t39.5 -92.5q0 -55 -38.5 -93t-94.5 -38q-55 0 -92 38t-37 93q0 53 38.5 92.5t90.5 39.5z" />
    <glyph glyph-name="ring" unicode="&#x2da;" horiz-adv-x="648" 
d="M495 1698q0 -25 -6 -54.5t-24.5 -55t-52.5 -42.5t-90 -17t-89.5 17.5t-51 43t-23 55t-5.5 53.5v3q0 24 5.5 54t23 56.5t51 44.5t89.5 18t90 -17.5t52.5 -44t24.5 -57.5t6 -57zM440 1701q0 19 -4 39.5t-16.5 37t-36 27t-61.5 10.5q-37 0 -59.5 -10t-34.5 -26.5t-16 -36.5
t-4 -41q0 -19 3.5 -39.5t15.5 -38t34.5 -28.5t60.5 -11q40 0 63.5 11t35.5 28.5t15.5 38t3.5 39.5z" />
    <glyph glyph-name="cedilla" unicode="&#xb8;" horiz-adv-x="945" 
d="M394 0q0 -29 5.5 -43.5t18.5 -22t33 -9.5t49 -5q20 0 43 1.5t44 -1.5q33 -3 69 -20t66.5 -44t50 -62t19.5 -75q0 -39 -17.5 -73t-46.5 -59.5t-66.5 -40.5t-78.5 -16h-8h-213q-69 1 -110.5 23.5t-63 55t-28.5 70t-7 69.5h61q6 -88 49.5 -129t135.5 -41q52 1 88 21.5
t56 50.5t23 65.5t-11.5 67t-46.5 55t-82 29.5q-36 3 -53.5 11t-24 22.5t-6 38t0.5 58.5v3h51z" />
    <glyph glyph-name="hungarumlaut" unicode="&#x2dd;" horiz-adv-x="775" 
d="M297 1520q42 3 69 -26q14 -14 20 -32t5 -36.5t-7.5 -35.5t-17.5 -29q-21 -21 -55 -35.5t-74.5 -33t-85.5 -45.5t-90 -72h-31q50 46 80 93t50.5 90t36 78t37.5 57q21 22 63 27zM546 1520q42 3 69 -26q14 -14 20 -32t5 -36.5t-7.5 -35.5t-17.5 -29q-21 -21 -55 -35.5
t-74.5 -33t-85.5 -45.5t-90 -72h-31q50 46 80 93t50.5 90t36 78t37.5 57q21 22 63 27z" />
    <glyph glyph-name="ogonek" unicode="&#x2db;" horiz-adv-x="945" 
d="M602 0v-3q0 -35 0.5 -58.5t-6 -38t-24 -22.5t-53.5 -11q-50 -6 -82 -29.5t-46.5 -55t-11.5 -67t23 -65.5t56 -50.5t88 -21.5q92 0 135.5 41t49.5 129h61q0 -32 -7 -69.5t-28.5 -70t-63 -55t-110.5 -23.5h-213h-8q-41 1 -78.5 16t-66.5 40.5t-46.5 59.5t-17.5 73
q0 40 19.5 75t50 62t66.5 44t69 20q21 3 44 1.5t43 -1.5q29 3 49 5t33 9.5t18.5 22t5.5 43.5h51z" />
    <glyph glyph-name="caron" unicode="&#x2c7;" horiz-adv-x="762" 
d="M461 1288q-14 -23 -31.5 -26.5t-47.5 -3.5h-2q-30 0 -47.5 3.5t-31.5 26.5l-201 266l281 -185l281 185z" />
    <glyph glyph-name="Lslash" unicode="&#x141;" horiz-adv-x="1078" 
d="M361 50h169q83 0 149 33.5t112.5 89t71.5 127.5t25 150v101h55v-328q0 -46 -18 -86.5t-48.5 -71t-71 -48t-85.5 -17.5h-587v562l-135 -71v90l135 69v550q0 67 12 113t39 74t70.5 40t106.5 12v-671l153 79v-83l-153 -81v-633z" />
    <glyph glyph-name="lslash" unicode="&#x142;" horiz-adv-x="516" 
d="M0 581l143 73v550q0 67 12 113t38.5 74t69.5 40t106 12v-672l147 76v-83l-147 -78v-413v-89t11.5 -86.5t39 -65.5t81.5 -26q3 0 3 -3t-3 -3h-135q-78 0 -122.5 17.5t-67 48t-28 71.5t-5.5 87v342l-143 -75v90z" />
    <glyph glyph-name="Scaron" unicode="&#x160;" horiz-adv-x="1139" 
d="M101 551v-328q0 -46 17.5 -86.5t48 -71t71 -48t86.5 -17.5h387q166 0 247 91t81 263v88q0 67 -19.5 119t-52.5 92t-75.5 69.5t-89.5 53t-94 42t-89 36.5q-100 42 -158.5 80t-89 73.5t-39 70.5t-8.5 71q0 63 10.5 105.5t36.5 68.5t69.5 37.5t110.5 11.5h14
q76 0 139.5 -29.5t110.5 -79t75 -115.5t33 -139h58v190q0 46 -18 86.5t-48.5 71t-72 48t-87.5 17.5h-350q-78 0 -131 -18.5t-86.5 -48.5t-51.5 -67.5t-25.5 -76t-8.5 -74t-1 -60.5q0 -31 4.5 -63.5t14 -64t24.5 -60t36 -50.5q39 -42 92.5 -77.5t112.5 -65.5t119 -55.5
t114 -49.5q42 -19 78 -40t62.5 -50t42 -68t15.5 -93v-68q0 -55 -12 -97t-38.5 -70t-70 -42t-106.5 -14h-74q-83 0 -149.5 33.5t-113 89t-71.5 128t-25 151.5v100h-55zM645 1586q-14 -23 -31.5 -26.5t-47.5 -3.5h-2q-30 0 -47.5 3.5t-31.5 26.5l-201 266l281 -185l281 185z
" />
    <glyph glyph-name="scaron" unicode="&#x161;" horiz-adv-x="1024" 
d="M322 1102h354q74 0 114.5 -22.5t59.5 -56t22.5 -72t3.5 -71.5v-73h-61q-8 53 -29.5 98t-56 77.5t-81 51t-103.5 18.5h-57q-62 0 -103 -10t-65.5 -33t-35 -60.5t-10.5 -93.5q0 -42 24.5 -73t65.5 -54.5t93.5 -41.5t108 -33t109.5 -29.5t99 -31.5q32 -12 59.5 -32.5
t47.5 -48t31.5 -60.5t11.5 -69v-159q0 -46 -17.5 -86.5t-48 -71t-71.5 -48t-87 -17.5h-317q-75 0 -129 14t-88 46t-50 84t-16 127v96h57v-96q0 -62 12 -104.5t38.5 -68.5t69.5 -37t106 -11h139q63 0 106 7.5t69.5 29.5t38 60t11.5 100v25q0 50 -28 81.5t-73.5 53t-103.5 36
t-118.5 31t-118.5 37.5t-103.5 55.5t-73.5 85.5t-28 126v102q0 46 17.5 86.5t47.5 70.5t70.5 47.5t86.5 17.5zM605 1292q-14 -23 -31.5 -26.5t-47.5 -3.5h-2q-30 0 -47.5 3.5t-31.5 26.5l-201 266l281 -185l281 185z" />
    <glyph glyph-name="Zcaron" unicode="&#x17d;" horiz-adv-x="1178" 
d="M819 1372h-276q-77 0 -140.5 -29.5t-110 -79.5t-74 -116t-32.5 -140h-57v192q0 46 17.5 86.5t48 71t71 48t86.5 17.5h733l-722 -1374h300q83 0 149.5 34t113 90.5t71 129t24.5 149.5v100h57v-327q0 -46 -17.5 -87t-48 -71.5t-71.5 -48t-87 -17.5h-754zM685 1585
q-14 -23 -31.5 -26.5t-47.5 -3.5h-2q-30 0 -47.5 3.5t-31.5 26.5l-201 266l281 -185l281 185z" />
    <glyph glyph-name="zcaron" unicode="&#x17e;" horiz-adv-x="1059" 
d="M959 1102h-683q-46 0 -70 -8t-34.5 -24t-12 -40.5t-1.5 -57.5v-165h58v24q0 62 12 104.5t38.5 68.5t70 37.5t106.5 11.5h245l-595 -1053h642q75 0 119 22.5t67.5 56t30.5 72.5t7 72v143h-58v-141q0 -46 -12 -79.5t-38.5 -55t-69.5 -32t-105 -10.5h-314zM626 1288
q-14 -23 -31.5 -26.5t-47.5 -3.5h-2q-30 0 -47.5 3.5t-31.5 26.5l-201 266l281 -185l281 185z" />
    <glyph glyph-name="brokenbar" unicode="&#xa6;" horiz-adv-x="505" 
d="M361 919q0 -65 -10.5 -110t-36 -72.5t-69 -39.5t-110.5 -12v516q0 67 12 113t38.5 74.5t69.5 40.5t106 12v-522zM361 -115q0 -65 -10.5 -110t-36 -72.5t-69 -39.5t-110.5 -12v516q0 67 12 113t38.5 74.5t69.5 40.5t106 12v-522z" />
    <glyph glyph-name="Eth" unicode="&#xd0;" horiz-adv-x="1312" 
d="M0 693q0 24 6 36.5t20 17.5t37 5h58h486q0 -24 -6 -36t-20 -17t-37.5 -5.5t-57.5 -0.5h-486zM368 1372v-1321h393q47 4 79.5 18.5t53 40.5t29.5 65.5t9 94.5v883q0 109 -38.5 164t-132.5 55h-393zM140 1291q0 46 1.5 72.5t12 39.5t35 16.5t70.5 3.5h673q46 0 87.5 -18
t72.5 -48.5t49 -71.5t18 -87v-973q0 -46 -18 -87t-49 -71.5t-72.5 -48.5t-87.5 -18h-792v1291z" />
    <glyph glyph-name="eth" unicode="&#xf0;" horiz-adv-x="1075" 
d="M322 0q-46 0 -86.5 18t-70.5 48.5t-47.5 72t-17.5 88.5v557q0 46 17.5 87.5t47.5 72.5t70.5 49.5t86.5 18.5h303l-104 173l-140 -38q-23 -5 -36.5 2t-23.5 36l175 45l-66 112q-6 10 -17.5 26t-28.5 31.5t-37.5 26.5t-44.5 11q10 0 31.5 0.5t45.5 0.5h46.5t36.5 -1
q31 -2 61.5 -8.5t60 -21.5t56 -39.5t50.5 -63.5l11 -19l113 32q24 6 42 1.5t28 -38.5l-158 -40l149 -258q31 -47 39 -96.5t8 -101.5v-557q0 -47 -18.5 -88.5t-49.5 -72t-72 -48.5t-87 -18h-373zM507 50q103 0 145.5 56.5t42.5 170.5v457q0 57 -10 99t-32.5 69.5t-58 41
t-87.5 13.5q-101 0 -143 -54t-42 -169v-457q0 -114 42 -170.5t143 -56.5z" />
    <glyph glyph-name="Yacute" unicode="&#xdd;" horiz-adv-x="1084" 
d="M414 681l-301 637q-9 19 -19.5 37t-23.5 31.5t-29.5 22t-38.5 8.5q-2 0 -2 2t2 2h111q46 0 82 -2.5t65 -15t53.5 -39t46.5 -73.5l245 -522l305 586q18 35 43.5 50.5t69.5 15.5h59q2 0 2 -2t-2 -2q-35 0 -57 -14t-39 -48l-344 -655v-461q0 -66 -12 -112t-39 -74
t-70.5 -40.5t-106.5 -12.5v681zM638 1815q42 3 69 -26q14 -14 20 -32t5 -36.5t-7.5 -35.5t-17.5 -29q-21 -21 -55 -35.5t-74.5 -33t-85.5 -45.5t-90 -72h-31q50 46 80 93t50.5 90t36 78t37.5 57q21 22 63 27z" />
    <glyph glyph-name="yacute" unicode="&#xfd;" horiz-adv-x="907" 
d="M-47 1102h94q58 0 98 -10t67.5 -31.5t46.5 -55t34 -81.5l223 -701l269 831q10 31 22 39.5t37 8.5h59q4 0 4 -2q0 -1 -4 -1q-29 0 -43 -13.5t-24 -42.5l-381 -1204q-14 -51 -34.5 -84.5t-45.5 -52.5t-53 -26.5t-56 -7.5h-21q-74 -1 -118.5 21t-68 55.5t-31 73t-8.5 72.5
q14 0 24 -1t16.5 -6.5t11 -16t7.5 -29.5q14 -62 56.5 -91.5t128.5 -26.5q63 1 99.5 52t60.5 139l24 79q-15 6 -32 16.5t-33.5 27.5t-31 42.5t-26.5 61.5l-279 873q-7 22 -14 38.5t-16.5 28t-24 17t-37.5 5.5q-3 0 -3 1q0 2 3 2zM509 1509q42 3 69 -26q14 -14 20 -32t5 -36.5
t-7.5 -35.5t-17.5 -29q-21 -21 -55 -35.5t-74.5 -33t-85.5 -45.5t-90 -72h-31q50 46 80 93t50.5 90t36 78t37.5 57q21 22 63 27z" />
    <glyph glyph-name="Thorn" unicode="&#xde;" horiz-adv-x="1242" 
d="M869 1081q45 0 85 -18t70 -48.5t47.5 -71t17.5 -86.5v-263q0 -46 -17.5 -86.5t-47.5 -71t-70.5 -48.5t-86.5 -18h-490v-138q0 -65 -10 -109.5t-35.5 -71.5t-69 -39t-109.5 -12v1208q0 65 10 109.5t35.5 71.5t69 39t109.5 12v-359h492zM377 1030v-609h263q62 0 105.5 11
t71 37t40 68.5t12.5 104.5v165q0 63 -12.5 105.5t-40 68.5t-71 37.5t-105.5 11.5h-263z" />
    <glyph glyph-name="thorn" unicode="&#xfe;" horiz-adv-x="1075" 
d="M326 1440v-340h374q45 0 85.5 -17.5t71 -48t48 -71.5t17.5 -87v-653q0 -47 -17.5 -88t-48 -71t-71 -47.5t-85.5 -17.5h-374v-104q0 -67 -11.5 -112.5t-38.5 -73.5t-70 -40t-106 -12v1545q0 67 11.5 112.5t38.5 73.5t70 40t106 12zM326 49h148q63 0 106 11.5t70 37.5
t38.5 68.5t11.5 104.5v556q0 114 -42 168t-144 54q-101 0 -144 -51.5t-44 -159.5v-789z" />
    <glyph glyph-name="minus" unicode="&#x2212;" horiz-adv-x="1168" 
d="M151 496q0 24 6 36.5t20 17.5t37 5h58h731q0 -24 -6 -36t-20 -17t-37.5 -5.5t-57.5 -0.5h-731z" />
    <glyph glyph-name="multiply" unicode="&#xd7;" horiz-adv-x="735" 
d="M96 200q-17 17 -21.5 30t2 26.5t23 30l40.5 40.5l193 193l-202 201q-24 25 -39.5 42.5t-21 31.5t0 28t22.5 31l287 -287l282 282q17 -17 21.5 -29.5t-2 -26t-23 -30.5t-40.5 -41l-196 -196l191 -192q24 -24 39.5 -41.5t21 -32.5t0 -28.5t-21.5 -30.5l-278 277z" />
    <glyph glyph-name="onesuperior" unicode="&#xb9;" horiz-adv-x="384" 
d="M284 1440v-599q0 -44 -6.5 -73.5t-23.5 -47.5t-46 -26t-74 -8v627l-62 -117h-47l107 203q12 23 29.5 32t49.5 9h73z" />
    <glyph glyph-name="twosuperior" unicode="&#xb2;" horiz-adv-x="703" 
d="M456 1422q28 0 53.5 -11t44.5 -30t30 -44.5t11 -53.5v-56q0 -47 -12 -80t-32 -58.5t-47 -46.5t-58 -43l-163 -101q-14 -10 -25.5 -25.5t-19.5 -33.5t-12 -37t-4 -37v-46h204q78 0 109.5 31t31.5 108v4h36v-35q0 -20 -4.5 -44t-19 -45t-42 -35t-73.5 -14h-414v84
q0 67 29.5 120.5t81.5 90.5l157 113q27 20 52 39t43.5 38t29.5 39t11 42v13q0 64 -21 91t-73 32h-67q-71 0 -114.5 -43t-53.5 -110h-38v45q0 21 2.5 45.5t14 45t36.5 34.5t71 14h245z" />
    <glyph glyph-name="threesuperior" unicode="&#xb3;" horiz-adv-x="694" 
d="M322 725q70 0 98 34t28 111v42q0 40 -8 68t-25.5 45t-46 24.5t-69.5 7.5l-93 1v32h93q41 0 69.5 7.5t46 24.5t25.5 45.5t8 69.5v6q0 41 -8 69t-25.5 45t-46 24.5t-69.5 7.5h-18q-72 -2 -115.5 -47.5t-54.5 -114.5h-40v48q0 21 2.5 47t14.5 48t38.5 37t75.5 15h245
q30 0 56.5 -11.5t45.5 -31.5t30 -47t11 -57v-72q0 -42 -20.5 -76.5t-56.5 -52.5q36 -18 58.5 -53.5t22.5 -77.5v-105q0 -30 -11.5 -57t-31.5 -47t-47 -31.5t-57 -11.5h-251q-30 0 -56.5 11.5t-46.5 31.5t-31.5 47t-11.5 57v125h37q3 -47 21.5 -90t49 -76t72.5 -52.5
t92 -19.5z" />
    <glyph glyph-name="franc" unicode="&#x20a3;" horiz-adv-x="1679" 
d="M380 1373v-620h77q42 0 83.5 15.5t75.5 47t57 79t28 111.5h43v-541h-43q-7 59 -31 103.5t-58 74.5t-74.5 45t-80.5 15h-77v-469q0 -66 -10.5 -110.5t-36.5 -72t-69.5 -39.5t-110.5 -12v1291q0 50 2 76.5t13 38.5t34 14t66 2h628q44 0 68 -5t35 -19.5t13 -40t2 -65.5v-284
h-58v143q0 62 -12 104.5t-38.5 68.5t-69.5 37.5t-106 11.5h-350zM1679 805v83q-1 44 -7.5 83t-25 68t-50.5 46t-84 17h-211q-63 0 -106 -12t-69.5 -40t-38.5 -74t-12 -113v-863q66 0 110 12t69.5 39.5t36 72t10.5 109.5v655q0 66 32 109t91 43q42 0 75 -20.5t57 -53.5
t39.5 -75.5t22.5 -85.5h61z" />
    <glyph glyph-name="Gbreve" unicode="&#x11e;" horiz-adv-x="1218" 
d="M375 1422q-53 0 -94 -17.5t-69.5 -48t-43.5 -71t-15 -86.5v-975q0 -46 17.5 -86.5t47.5 -71t70.5 -48.5t86.5 -18h521q46 0 86.5 18t70.5 48.5t47.5 71t17.5 86.5v331q0 36 -5.5 55.5t-19 28.5t-36.5 11t-57 2h-296v-50h194v-329q0 -62 -12 -105t-39.5 -69t-71 -37.5
t-106.5 -11.5h-67q-63 0 -106.5 11.5t-70 37.5t-38.5 69t-12 105v877q0 63 12 105.5t38.5 68.5t70 37t106.5 11h67q77 0 140.5 -29.5t110 -79t74.5 -116t33 -139.5h56v191q0 46 -17.5 86.5t-47.5 71t-70.5 48t-86.5 17.5h-486zM808 1730q0 -25 -6 -55t-24.5 -56.5t-52.5 -44
t-90 -17.5t-89.5 18t-51 44.5t-23 56.5t-5.5 54h55q0 -21 4 -41t16 -36.5t34.5 -26.5t59.5 -10q38 0 61.5 10.5t36 27t16.5 37t4 39.5h55z" />
    <glyph glyph-name="gbreve" unicode="&#x11f;" horiz-adv-x="1080" 
d="M100 -103q0 -32 7 -70.5t29 -71.5t63.5 -55.5t111.5 -22.5h387q55 0 98 10.5t72 34.5t44 63t15 95v1222h-616q-46 0 -85 -17.5t-67 -48t-43.5 -71t-15.5 -85.5v-658q0 -45 16.5 -85t45 -70.5t67 -48.5t82.5 -18h387v-120q0 -85 -57.5 -119t-163.5 -34h-92q-56 0 -97 9
t-68 29t-42 52.5t-19 79.5h-59zM511 51q-103 0 -146 53t-43 166v559q0 63 12 105.5t39 68.5t70.5 37.5t106.5 11.5h148v-782q0 -113 -42 -166t-145 -53zM722 1421q0 -25 -6 -55t-24.5 -56.5t-52.5 -44t-90 -17.5t-89.5 18t-51 44.5t-23 56.5t-5.5 54h55q0 -21 4 -41
t16 -36.5t34.5 -26.5t59.5 -10q38 0 61.5 10.5t36 27t16.5 37t4 39.5h55z" />
    <glyph glyph-name="Idotaccent" horiz-adv-x="528" 
d="M377 234q0 -65 -10.5 -110t-36 -72.5t-69 -39.5t-110.5 -12v1201q0 67 12 113t38.5 74.5t69.5 40.5t106 12v-1207zM255 1756q54 0 93.5 -39.5t39.5 -92.5q0 -55 -38.5 -93t-94.5 -38q-55 0 -92 38t-37 93q0 53 38.5 92.5t90.5 39.5z" />
    <glyph glyph-name="Scedilla" unicode="&#x15e;" horiz-adv-x="1139" 
d="M324 0q-46 0 -86.5 17.5t-71 48t-48 71t-17.5 86.5v328h55v-100q0 -79 25 -151.5t71.5 -128t113 -89t149.5 -33.5h74q63 0 106.5 14t70 42t38.5 70t12 97v68q0 54 -15.5 93t-42 68t-62.5 50t-78 40q-54 24 -114 49.5t-119 55.5t-112.5 65.5t-92.5 77.5q-21 22 -36 50.5
t-24.5 60t-14 64t-4.5 63.5q0 25 1 60.5t8.5 74t25.5 76t51.5 67.5t86.5 48.5t131 18.5h350q46 0 87.5 -17.5t72 -48t48.5 -71t18 -86.5v-190h-58q-5 73 -33 139t-75 115.5t-110.5 79t-139.5 29.5h-14q-67 0 -110.5 -11.5t-69.5 -37.5t-36.5 -68.5t-10.5 -105.5
q0 -36 8.5 -71t39 -70.5t89 -73.5t158.5 -80q42 -18 89 -36.5t94 -42t89.5 -53t75.5 -69.5t52.5 -92t19.5 -119v-88q0 -172 -81 -263t-247 -91h-220q0 -29 5.5 -43.5t18.5 -22t33 -9.5t49 -5q20 0 43 1.5t44 -1.5q33 -3 69 -20t66.5 -44t50 -62t19.5 -75q0 -39 -17.5 -73
t-46.5 -59.5t-66.5 -40.5t-78.5 -16h-221q-69 1 -110.5 23.5t-63 55t-28.5 70t-7 69.5h61q6 -88 49.5 -129t135.5 -41q52 1 88 21.5t56 50.5t23 65.5t-11.5 67t-46.5 55t-82 29.5q-36 3 -53.5 11t-24 22.5t-6 38t0.5 58.5v3h-116z" />
    <glyph glyph-name="scedilla" unicode="&#x15f;" horiz-adv-x="1024" 
d="M434 0q0 -29 5.5 -43.5t18.5 -22t33 -9.5t49 -5q20 0 43 1.5t44 -1.5q33 -3 69 -20t66.5 -44t50 -62t19.5 -75q0 -39 -17.5 -73t-46.5 -59.5t-66.5 -40.5t-78.5 -16h-221q-69 1 -110.5 23.5t-63 55t-28.5 70t-7 69.5h61q6 -88 49.5 -129t135.5 -41q52 1 88 21.5t56 50.5
t23 65.5t-11.5 67t-46.5 55t-82 29.5q-36 3 -53.5 11t-24 22.5t-6 38t0.5 58.5v3q-75 0 -129 14t-88 46t-50 84t-16 127v96h57v-96q0 -62 12 -104.5t38.5 -68.5t69.5 -37t106 -11h139q63 0 106 7.5t69.5 29.5t38 60t11.5 100v25q0 50 -28 81.5t-73.5 53t-103.5 36t-118.5 31
t-118.5 37.5t-103.5 55.5t-73.5 85.5t-28 126v102q0 46 17.5 86.5t47.5 70.5t70.5 47.5t86.5 17.5h354q74 0 114.5 -22.5t59.5 -56t22.5 -72t3.5 -71.5v-73h-61q-8 53 -29.5 98t-56 77.5t-81 51t-103.5 18.5h-57q-62 0 -103 -10t-65.5 -33t-35 -60.5t-10.5 -93.5
q0 -42 24.5 -73t65.5 -54.5t93.5 -41.5t108 -33t109.5 -29.5t99 -31.5q32 -12 59.5 -32.5t47.5 -48t31.5 -60.5t11.5 -69v-159q0 -46 -17.5 -86.5t-48 -71t-71.5 -48t-87 -17.5h-266z" />
    <glyph glyph-name="Cacute" unicode="&#x106;" horiz-adv-x="1177" 
d="M829 1422q46 0 86.5 -17.5t71 -48t48.5 -71.5t18 -87v-191h-57q-7 93 -35 161.5t-71 113.5t-97.5 67t-114.5 22h-75q-60 0 -103 -12t-70.5 -38.5t-40.5 -68.5t-13 -102v-878q0 -61 13 -103.5t40.5 -69t70.5 -38.5t103 -12h75q61 0 122 26t110 76.5t79.5 125.5t30.5 173
v100h57v-327q0 -46 -18 -86.5t-48.5 -71t-71 -48t-86.5 -17.5h-477q-46 0 -86.5 17.5t-71 48t-48 71t-17.5 86.5v975q0 46 17.5 87t48 71.5t71 48t86.5 17.5h453zM697 1888q42 3 69 -26q14 -14 20 -32t5 -36.5t-7.5 -35.5t-17.5 -29q-21 -21 -55 -35.5t-74.5 -33
t-85.5 -45.5t-90 -72h-31q50 46 80 93t50.5 90t36 78t37.5 57q21 22 63 27z" />
    <glyph glyph-name="cacute" unicode="&#x107;" horiz-adv-x="976" 
d="M816 807q-8 52 -32 96.5t-61 77.5t-85.5 51.5t-105.5 18.5t-97 -11.5t-65 -38t-36.5 -69t-11.5 -103.5v-557q0 -63 11.5 -105.5t38.5 -68.5t70.5 -37t106.5 -11h46q62 0 104 11.5t68 38t37.5 68.5t11.5 104v95h60v-143q0 -33 -7 -72.5t-30.5 -73t-68 -56t-118.5 -22.5
h-328q-44 0 -84.5 17.5t-71.5 48t-49.5 71t-18.5 87.5v654q0 46 18.5 87t50 71.5t71.5 48t84 17.5h328q74 0 118.5 -22.5t68 -56t30.5 -73t7 -72.5v-71h-60zM548 1509q42 3 69 -26q14 -14 20 -32t5 -36.5t-7.5 -35.5t-17.5 -29q-21 -21 -55 -35.5t-74.5 -33t-85.5 -45.5
t-90 -72h-31q50 46 80 93t50.5 90t36 78t37.5 57q21 22 63 27z" />
    <glyph glyph-name="Ccaron" unicode="&#x10c;" horiz-adv-x="1177" 
d="M376 1422q-46 0 -86.5 -17.5t-71 -48t-48 -71.5t-17.5 -87v-975q0 -46 17.5 -86.5t48 -71t71 -48t86.5 -17.5h477q46 0 86.5 17.5t71 48t48.5 71t18 86.5v327h-57v-100q0 -98 -30.5 -173t-79.5 -125.5t-110 -76.5t-122 -26h-75q-60 0 -103 12t-70.5 38.5t-40.5 69
t-13 103.5v878q0 60 13 102t40.5 68.5t70.5 38.5t103 12h75q60 0 114.5 -22t97.5 -67t71 -113.5t35 -161.5h57v191q0 46 -18 87t-48.5 71.5t-71 48t-86.5 17.5h-453zM704 1524q-14 -23 -31.5 -26.5t-47.5 -3.5h-2q-30 0 -47.5 3.5t-31.5 26.5l-201 266l281 -185l281 185z
" />
    <glyph glyph-name="ccaron" unicode="&#x10d;" horiz-adv-x="976" 
d="M876 807v71q0 33 -7 72.5t-30.5 73t-68 56t-118.5 22.5h-328q-44 0 -84 -17.5t-71.5 -48t-50 -71.5t-18.5 -87v-654q0 -47 18.5 -87.5t49.5 -71t71.5 -48t84.5 -17.5h328q74 0 118.5 22.5t68 56t30.5 73t7 72.5v143h-60v-95q0 -62 -11.5 -104t-37.5 -68.5t-68 -38
t-104 -11.5h-46q-63 0 -106.5 11t-70.5 37t-38.5 68.5t-11.5 105.5v557q0 61 11.5 103.5t36.5 69t65 38t97 11.5t105.5 -18.5t85.5 -51.5t61 -77.5t32 -96.5h60zM601 1293q-14 -23 -31.5 -26.5t-47.5 -3.5h-2q-30 0 -47.5 3.5t-31.5 26.5l-201 266l281 -185l281 185z" />
    <glyph glyph-name="dcroat" horiz-adv-x="1065" 
d="M1065 1217h-140v-1013q0 -55 -15 -93.5t-44 -62.5t-71.5 -35.5t-96.5 -12.5h-375q-44 0 -84 15.5t-71 42.5t-49.5 64.5t-18.5 81.5v673q0 46 17.5 87t48 71t71 47.5t86.5 17.5h375v117h-166v63h170q6 45 22 75.5t43 50t66 28t92 8.5v-162h140v-63zM698 1050h-150
q-63 0 -106 -11t-69.5 -37t-38 -68.5t-11.5 -104.5v-557q0 -56 10 -97.5t32 -69t58 -41t88 -13.5q103 0 145 54t42 167v778z" />
    <glyph glyph-name="sfthyphen" unicode="&#xad;" horiz-adv-x="819" 
d="M100 539q0 24 6 36.5t20 17.5t37 5h58h445q0 -24 -6 -36t-20 -17t-37.5 -5.5t-57.5 -0.5h-445z" />
    <glyph glyph-name="periodcentered" horiz-adv-x="547" 
d="M281 846q53 0 90 -37.5t37 -89.5t-37.5 -90.5t-89.5 -38.5q-51 0 -89.5 39t-38.5 90t38 89t90 38z" />
    <glyph glyph-name="dollar" unicode="$" horiz-adv-x="1139" 
d="M603 1421h152q46 0 87.5 -17.5t72 -48t48.5 -71t18 -86.5v-190h-58q-5 68 -29.5 130t-66.5 111t-99 80.5t-125 39.5v-508q6 -4 16 -7q42 -18 89 -36.5t94 -42t89.5 -53t75.5 -69.5t52.5 -92t19.5 -119v-88q0 -172 -81 -263t-247 -91h-108v-89q0 -35 -1.5 -58t-8.5 -37
t-20 -20t-37 -6v210h-212q-46 0 -86.5 17.5t-71 48t-48 71t-17.5 86.5v328h55v-100q0 -79 25 -151.5t71.5 -128t113 -89t149.5 -33.5h21v577q-48 21 -97.5 43.5t-96 48.5t-88.5 56t-74 65q-21 22 -36 50.5t-24.5 59.5t-14 63.5t-4.5 63.5q0 25 1 60.5t8.5 74t25.5 76
t51.5 67.5t86.5 48.5t131 18.5h131v15q0 34 1.5 57.5t8 37.5t20 20t37.5 6v-136zM603 597v-548q59 1 99.5 16t66 43t36.5 69t11 95v68q0 54 -15.5 93t-42 68t-62.5 50t-78 40zM324 1148q0 -32 6.5 -63t28.5 -62t64 -63.5t113 -67.5v479q-62 -1 -103 -13.5t-65 -38.5t-34 -68
t-10 -103z" />
    <glyph glyph-name="percent" horiz-adv-x="1866" 
d="M153 1243q0 41 15 77t41 62.5t61.5 42t77.5 15.5h308q41 0 77 -15.5t62.5 -42t42 -62.5t15.5 -77v-158q0 -41 -15.5 -77.5t-42 -63.5t-62.5 -43t-77 -16h-308q-42 0 -77.5 16t-61.5 43t-41 63.5t-15 77.5v158zM661 1200q0 99 -36.5 147t-120.5 48q-88 0 -123.5 -47.5
t-35.5 -147.5v-73q0 -99 35.5 -147.5t123.5 -48.5q84 0 120.5 49t36.5 147v73zM1013 333q0 41 14.5 77t41 63t62 43t77.5 16h307q42 0 78 -16t62.5 -43t42 -63t15.5 -77v-155q0 -41 -15.5 -77.5t-42 -63.5t-62.5 -43t-78 -16h-307q-42 0 -77.5 16t-62 43t-41 63.5
t-14.5 77.5v155zM1520 290q0 100 -35.5 148t-119.5 48q-87 0 -123.5 -48t-36.5 -148v-70q0 -101 36.5 -148t123.5 -47q84 0 119.5 47t35.5 148v70zM1269 1387q13 25 20.5 37t16 16t22 3.5t39.5 -0.5l-746 -1393q-14 -25 -21 -39t-17 -21t-26.5 -8.5t-47.5 -1.5z" />
    <glyph glyph-name="mu" unicode="&#xb5;" horiz-adv-x="1083" 
d="M869 -1l4 62q-29 -29 -74.5 -45t-114.5 -16h-353l-4 -330q-66 0 -110 12t-70 39.5t-36.5 72t-10.5 109.5l4 984q0 65 10.5 109.5t36.5 72t70 39.5t110 12v-905q1 -43 13.5 -74t39.5 -51.5t69.5 -30t103.5 -9.5h89q112 0 169.5 40t57.5 130v781q0 34 1.5 57t7 36.5
t17 19.5t31.5 6l-4 -1240q-20 0 -31.5 6t-17 19.5t-7 36.5t-1.5 57z" />
    <glyph glyph-name="uni0025" unicode="%" horiz-adv-x="1625" 
d="M50 1243q0 41 15 77t41 62.5t61.5 42t77.5 15.5h308q41 0 77 -15.5t62.5 -42t42 -62.5t15.5 -77v-158q0 -41 -15.5 -77.5t-42 -63.5t-62.5 -43t-77 -16h-308q-42 0 -77.5 16t-61.5 43t-41 63.5t-15 77.5v158zM558 1200q0 99 -36.5 147t-120.5 48q-88 0 -123.5 -47.5
t-35.5 -147.5v-73q0 -99 35.5 -147.5t123.5 -48.5q84 0 120.5 49t36.5 147v73zM910 357q0 41 14.5 77t41 63t62 43t77.5 16h307q42 0 78 -16t62.5 -43t42 -63t15.5 -77v-155q0 -41 -15.5 -77.5t-42 -63.5t-62.5 -43t-78 -16h-307q-42 0 -77.5 16t-62 43t-41 63.5t-14.5 77.5
v155zM1417 314q0 100 -35.5 148t-119.5 48q-87 0 -123.5 -48t-36.5 -148v-70q0 -101 36.5 -148t123.5 -47q84 0 119.5 47t35.5 148v70zM1168 1387q13 25 20.5 37t16 16t22 3.5t39.5 -0.5l-746 -1393q-14 -25 -21 -39t-17 -21t-26.5 -8.5t-47.5 -1.5z" />
    <glyph glyph-name="dagger" unicode="&#x2020;" horiz-adv-x="861" 
d="M0 1043q0 24 6 36.5t20 17.5t37 5h58h273v334q0 34 1.5 57.5t8 37.5t20 20t37.5 6v-455h399q0 -24 -6 -36t-20 -17t-37.5 -5.5t-57.5 -0.5h-278v-1132q0 -35 -1.5 -58t-8.5 -37t-20 -20t-37 -6v1253h-394z" />
    <glyph glyph-name="daggerdbl" unicode="&#x2021;" horiz-adv-x="861" 
d="M1 250q0 24 6 36.5t20 17.5t37 5h58h276v734h-397q0 24 6 36.5t20 17.5t37 5h58h276v334q0 34 1.5 57.5t8 37.5t20 20t37.5 6v-455h396q0 -24 -6 -36t-20 -17t-37.5 -5.5t-57.5 -0.5h-275v-734h396q0 -24 -6 -36t-20 -17t-37.5 -5.5t-57.5 -0.5h-275v-339q0 -35 -1.5 -58
t-8.5 -37t-20 -20t-37 -6v460h-397z" />
    <glyph glyph-name="ellipsis" unicode="&#x2026;" horiz-adv-x="1262" 
d="M229 224q26 0 49.5 -10t41 -27.5t27.5 -41t10 -49.5t-10 -49.5t-27.5 -41.5t-41 -28.5t-49.5 -10.5t-49.5 10.5t-41 28.5t-28 41.5t-10.5 49.5t10.5 49t28 40.5t41 28t49.5 10.5zM632 224q26 0 49 -10t40.5 -27.5t28 -41t10.5 -49.5t-10.5 -49.5t-28 -41.5t-40.5 -28.5
t-49 -10.5t-49.5 10.5t-41.5 28.5t-28.5 41.5t-10.5 49.5t10.5 49t28.5 40.5t41.5 28t49.5 10.5zM1035 224q26 0 49 -10t40.5 -27.5t27.5 -41t10 -49.5t-10 -49.5t-27.5 -41.5t-40.5 -28.5t-49 -10.5t-49.5 10.5t-41.5 28.5t-28.5 41.5t-10.5 49.5t10.5 49t28 40.5t41 28
t50.5 10.5z" />
    <glyph glyph-name="AEacute" unicode="&#x1fc;" horiz-adv-x="1527" 
d="M503 553h-377l-274 -502q-16 -29 -43.5 -40t-55.5 -11h-47q-2 0 -2 2t2 2q26 0 49.5 15.5t37.5 43.5l687 1258q5 9 9 22t14.5 26t31 25t58.5 19q11 2 27.5 3.5t35 2.5t38 1.5t37.5 0.5h539q45 0 68.5 -3t34.5 -16t12.5 -39t1.5 -72v-284h-55v142q0 63 -12 105.5t-39 69
t-70.5 37.5t-106.5 11h-373v-619h78q42 0 83.5 16t75.5 47.5t57 79t28 111.5h43v-542h-43q-8 59 -32 103t-58 73.5t-74 44.5t-80 16h-78v-653h281q83 0 149.5 33.5t113 89t71.5 128.5t25 151v100h56v-329q0 -46 -17.5 -86.5t-48 -70.5t-71.5 -47.5t-87 -17.5h-699zM503 605
l3 662l-353 -662h350zM652 1810q42 3 69 -26q14 -14 20 -32t5 -36.5t-7.5 -35.5t-17.5 -29q-21 -21 -55 -35.5t-74.5 -33t-85.5 -45.5t-90 -72h-31q50 46 80 93t50.5 90t36 78t37.5 57q21 22 63 27z" />
    <glyph glyph-name="Ibreve" unicode="&#x12c;" horiz-adv-x="542" 
d="M375 234q0 -65 -10.5 -110t-36 -72.5t-69 -39.5t-110.5 -12v1201q0 67 12 113t38.5 74.5t69.5 40.5t106 12v-1207zM442 1730q0 -25 -6 -55t-24.5 -56.5t-52.5 -44t-90 -17.5t-89.5 18t-51 44.5t-23 56.5t-5.5 54h55q0 -21 4 -41t16 -36.5t34.5 -26.5t59.5 -10
q38 0 61.5 10.5t36 27t16.5 37t4 39.5h55z" />
    <glyph glyph-name="Idotaccent" unicode="&#x130;" horiz-adv-x="533" 
d="M379 234q0 -65 -10.5 -110t-36 -72.5t-69 -39.5t-110.5 -12v1201q0 67 12 113t38.5 74.5t69.5 40.5t106 12v-1207zM270 1819q54 0 93.5 -39.5t39.5 -92.5q0 -55 -38.5 -93t-94.5 -38q-55 0 -92 38t-37 93q0 53 38.5 92.5t90.5 39.5z" />
    <glyph glyph-name="Hcircumflex" unicode="&#x124;" horiz-adv-x="1197" 
d="M870 709h-543v-465q0 -81 -12.5 -129t-40 -73.5t-70.5 -33.5t-104 -8v1196q1 244 227 244v-681h543v438q0 244 227 244v-1197q0 -81 -12.5 -129t-40 -73.5t-70.5 -33.5t-104 -8v709zM886 1470l-281 185l-281 -185l201 266q14 23 31.5 26.5t47.5 3.5h2q30 0 47.5 -3.5
t31.5 -26.5z" />
    <glyph glyph-name="Hbar" unicode="&#x126;" horiz-adv-x="1303" 
d="M923 709h-543v-465q0 -81 -12.5 -129t-40 -73.5t-70.5 -33.5t-104 -8v1196q1 244 227 244v-681h543v438q0 244 227 244v-1197q0 -81 -12.5 -129t-40 -73.5t-70.5 -33.5t-104 -8v709z" />
    <glyph glyph-name="Gdotaccent" unicode="&#x120;" horiz-adv-x="1218" 
d="M375 1422q-53 0 -94 -17.5t-69.5 -48t-43.5 -71t-15 -86.5v-975q0 -46 17.5 -86.5t47.5 -71t70.5 -48.5t86.5 -18h521q46 0 86.5 18t70.5 48.5t47.5 71t17.5 86.5v331q0 36 -5.5 55.5t-19 28.5t-36.5 11t-57 2h-296v-50h194v-329q0 -62 -12 -105t-39.5 -69t-71 -37.5
t-106.5 -11.5h-67q-63 0 -106.5 11.5t-70 37.5t-38.5 69t-12 105v877q0 63 12 105.5t38.5 68.5t70 37t106.5 11h67q77 0 140.5 -29.5t110 -79t74.5 -116t33 -139.5h56v191q0 46 -17.5 86.5t-47.5 71t-70.5 48t-86.5 17.5h-486zM657 1819q54 0 93.5 -39.5t39.5 -92.5
q0 -55 -38.5 -93t-94.5 -38q-55 0 -92 38t-37 93q0 53 38.5 92.5t90.5 39.5z" />
    <glyph glyph-name="Amacron" unicode="&#x100;" horiz-adv-x="1134" 
d="M211 1558q0 24 6 36.5t20 17.5t37 5h58h570q0 -24 -6 -36t-20 -17t-37.5 -5.5t-57.5 -0.5h-570zM1139 4q-18 0 -30 8t-20.5 20.5t-13.5 28t-10 30.5l-430 1351q-10 0 -33.5 -2.5t-50.5 -14.5t-52.5 -36.5t-39.5 -67.5l-400 -1258q-9 -25 -20 -42t-37 -17q-2 0 -2 -2t2 -2
h47q28 0 40.5 9.5t23.5 41.5l162 502h417l115 -387q9 -29 27 -58.5t48 -53.5t73 -39t101 -15h83q2 0 2 2t-2 2zM493 1244l184 -639h-386z" />
    <glyph glyph-name="Oslashacute" unicode="&#x1fe;" horiz-adv-x="1321" 
d="M170 -137q23 43 46 85l46 84q-49 30 -79 80.5t-30 111.5v972q0 47 18 88t48.5 71t71 47.5t86.5 17.5h567q30 0 60 -8q12 22 24 43.5t24 44.5q13 25 20.5 37t16 16t22 3.5t39.5 -0.5q-23 -42 -45.5 -84t-45.5 -84q49 -29 79 -79.5t30 -112.5v-972q0 -46 -17.5 -87
t-48 -71.5t-71.5 -48t-87 -17.5h-567q-31 0 -55 7q-11 -18 -20.5 -36.5t-19.5 -37.5q-15 -26 -22.5 -40t-17 -20.5t-25.5 -8t-47 -1.5zM603 1371q-63 0 -106 -11t-70 -37t-38.5 -68.5t-11.5 -104.5v-903q139 257 275 511t275 511q-21 56 -71 79t-139 23h-114zM943 1172
q-137 -257 -272.5 -513t-274.5 -514q22 -52 71 -73.5t136 -21.5h114q63 0 106.5 11.5t70 37.5t38.5 68.5t12 104.5zM734 1799q38 3 62 -23q13 -12 18.5 -28.5t5 -33.5t-7 -33t-16.5 -26q-19 -19 -49.5 -32.5t-67.5 -30t-78.5 -41t-81.5 -65.5h-28q46 42 73 84.5t45.5 81.5
t32.5 71t34 52q21 21 58 24z" />
    <glyph glyph-name="Omacron" unicode="&#x14c;" horiz-adv-x="1321" 
d="M944 1422h-567q-46 0 -86.5 -17.5t-71 -47.5t-48.5 -71t-18 -88v-974q0 -46 18 -87t48.5 -71.5t71 -48t86.5 -17.5h567q46 0 87 17.5t71.5 48t48 71.5t17.5 87v974q0 47 -17.5 88t-48 71t-71.5 47.5t-87 17.5zM717 1373q63 0 106.5 -11t70 -37t38.5 -68.5t12 -104.5v-880
q0 -62 -12 -104.5t-38.5 -68.5t-70 -37.5t-106.5 -11.5h-114q-63 0 -106 11.5t-70 37.5t-38.5 68.5t-11.5 104.5v880q0 62 11.5 104.5t38.5 68.5t70 37t106 11h114zM377 1556q0 24 6 36.5t20 17.5t37 5h58h455q0 -24 -6 -36t-20 -17t-37.5 -5.5t-57.5 -0.5h-455z" />
    <glyph glyph-name="glyph250" horiz-adv-x="1001" 
d="M1001 654l-999 -535q-1 26 -1.5 42.5t5.5 29t20.5 23t44.5 25.5l849 455l-849 464q-27 15 -41 22.5t-20 17t-7 25t-1 45.5l999 -525v-89zM1000 4q0 24 -6 36.5t-20 17.5t-37.5 5h-57.5h-879q0 -24 6 -36t20 -17t37 -5.5t58 -0.5h879z" />
    <glyph glyph-name="glyph251" horiz-adv-x="1001" 
d="M0 743l999 525q0 -30 -1 -45.5t-7 -25t-20 -17t-41 -22.5l-849 -464l849 -455q30 -15 44.5 -25.5t20.5 -23t5.5 -29t-1.5 -42.5l-999 535v89zM1 4q0 24 6 36.5t20 17.5t37 5h58h879q0 -24 -6 -36t-20 -17t-37.5 -5.5t-57.5 -0.5h-879z" />
    <glyph glyph-name="glyph252" horiz-adv-x="1195" 
d="M167 826q31 36 76 57t96.5 28.5t105 2t101.5 -22.5q56 -20 112 -31t125 -11q71 2 128 17.5t104 51.5q18 -18 20 -32.5t-13 -28.5q-23 -23 -55.5 -33t-65.5 -27q-30 -14 -65 -21t-70.5 -8t-69.5 5t-64 18q-33 13 -63.5 23.5t-62 18t-66 11t-74.5 2.5q-67 0 -112.5 -22.5
t-86.5 -56.5q-11 16 -13 30t13 29zM173 523q31 36 76 57t96.5 28.5t105 2t101.5 -22.5q56 -20 112 -31t125 -11q71 2 128 17.5t104 51.5q18 -18 20 -32.5t-13 -28.5q-23 -23 -55.5 -33t-65.5 -27q-30 -14 -65 -21t-70.5 -8t-69.5 5t-64 18q-33 13 -63.5 23.5t-62 18t-66 11
t-74.5 2.5q-67 0 -112.5 -22.5t-86.5 -56.5q-11 16 -13 30t13 29z" />
    <glyph glyph-name="glyph253" horiz-adv-x="1077" 
d="M326 1440v-338h372q46 0 87 -17.5t72 -47.5t49 -71t18 -87v-646q0 -66 -10.5 -110.5t-36 -71.5t-69.5 -39t-110 -12v830q0 114 -42.5 167.5t-145.5 53.5h-184v-818q0 -66 -10.5 -110.5t-36 -71.5t-69.5 -39t-110 -12v1200q0 68 11.5 114t38.5 74t70 40t106 12zM807 1202
l-281 185l-281 -185l201 266q14 23 31.5 26.5t47.5 3.5h2q30 0 47.5 -3.5t31.5 -26.5z" />
    <glyph glyph-name="glyph254" horiz-adv-x="1065" 
d="M0 1237q0 24 6 36.5t20 17.5t37 5h58h398q0 -24 -6 -36t-20 -17t-37.5 -5.5t-57.5 -0.5h-398zM314 1440v-338h372q46 0 87 -17.5t72 -47.5t49 -71t18 -87v-646q0 -66 -10.5 -110.5t-36 -71.5t-69.5 -39t-110 -12v830q0 114 -42.5 167.5t-145.5 53.5h-184v-818
q0 -66 -10.5 -110.5t-36 -71.5t-69.5 -39t-110 -12v1200q0 68 11.5 114t38.5 74t70 40t106 12z" />
    <glyph glyph-name="glyph255" horiz-adv-x="1023" 
d="M511 1050q-104 0 -147 -52.5t-43 -166.5v-95h380v95q0 57 -10 98.5t-32.5 68t-58.5 39.5t-89 13zM321 687v-416q0 -62 12 -105t38.5 -69t70 -37.5t106.5 -11.5h11q63 0 106 11.5t70 37.5t38.5 69t11.5 105v95h57v-144q0 -33 -7 -72t-30 -72.5t-67 -55.5t-118 -22h-299
q-40 0 -79.5 19t-71 50.5t-51 71t-19.5 81.5v658q0 44 18 83t49 69t70.5 48.5t83.5 21.5h380q46 0 86.5 -17.5t70.5 -48t47.5 -71t17.5 -85.5v-193h-602zM506 1477q54 0 93.5 -39.5t39.5 -92.5q0 -55 -38.5 -93t-94.5 -38q-55 0 -92 38t-37 93q0 53 38.5 92.5t90.5 39.5z
" />
    <glyph glyph-name="glyph256" horiz-adv-x="1023" 
d="M511 1050q-104 0 -147 -52.5t-43 -166.5v-95h380v95q0 57 -10 98.5t-32.5 68t-58.5 39.5t-89 13zM321 687v-416q0 -62 12 -105t38.5 -69t70 -37.5t106.5 -11.5h11q63 0 106 11.5t70 37.5t38.5 69t11.5 105v95h57v-144q0 -33 -7 -72t-30 -72.5t-67 -55.5t-118 -22h-299
q-40 0 -79.5 19t-71 50.5t-51 71t-19.5 81.5v658q0 44 18 83t49 69t70.5 48.5t83.5 21.5h380q46 0 86.5 -17.5t70.5 -48t47.5 -71t17.5 -85.5v-193h-602zM682 1419q0 -25 -6 -55t-24.5 -56.5t-52.5 -44t-90 -17.5t-89.5 18t-51 44.5t-23 56.5t-5.5 54h55q0 -21 4 -41
t16 -36.5t34.5 -26.5t59.5 -10q38 0 61.5 10.5t36 27t16.5 37t4 39.5h55z" />
    <glyph glyph-name="Aogonek" unicode="&#x104;" horiz-adv-x="1111" 
d="M1139 4q2 0 2 -2t-2 -2h-83q-58 0 -101 15t-73 39t-48 53.5t-27 58.5l-115 387h-417l-162 -502q-11 -32 -23.5 -41.5t-40.5 -9.5h-47q-2 0 -2 2t2 2q26 0 37 17t20 42l400 1258q14 43 39.5 67.5t52.5 36.5t50.5 14.5t33.5 2.5l430 -1351q5 -15 10 -30.5t13.5 -28
t20.5 -20.5t30 -8zM291 605h386l-184 639zM1100 0v-3q0 -35 0.5 -58.5t-6 -38t-24 -22.5t-53.5 -11q-50 -6 -82 -29.5t-46.5 -55t-11.5 -67t23 -65.5t56 -50.5t88 -21.5q92 0 135.5 41t49.5 129h61q0 -32 -7 -69.5t-28.5 -70t-63 -55t-110.5 -23.5h-221q-41 1 -78.5 16
t-66.5 40.5t-46.5 59.5t-17.5 73q0 40 19.5 75t50 62t66.5 44t69 20q21 3 44 1.5t43 -1.5q29 3 49 5t33 9.5t18.5 22t5.5 43.5h51z" />
    <glyph glyph-name="Ccircumflex" unicode="&#x108;" horiz-adv-x="1177" 
d="M829 1422q46 0 86.5 -17.5t71 -48t48.5 -71.5t18 -87v-191h-57q-7 93 -35 161.5t-71 113.5t-97.5 67t-114.5 22h-75q-60 0 -103 -12t-70.5 -38.5t-40.5 -68.5t-13 -102v-878q0 -61 13 -103.5t40.5 -69t70.5 -38.5t103 -12h75q61 0 122 26t110 76.5t79.5 125.5t30.5 173
v100h57v-327q0 -46 -18 -86.5t-48.5 -71t-71 -48t-86.5 -17.5h-477q-46 0 -86.5 17.5t-71 48t-48 71t-17.5 86.5v975q0 46 17.5 87t48 71.5t71 48t86.5 17.5h453zM922 1470l-281 185l-281 -185l201 266q14 23 31.5 26.5t47.5 3.5h2q30 0 47.5 -3.5t31.5 -26.5z" />
    <glyph glyph-name="Itilde" unicode="&#x128;" horiz-adv-x="484" 
d="M338 234q0 -65 -10.5 -110t-36 -72.5t-69 -39.5t-110.5 -12v1201q0 67 12 113t38.5 74.5t69.5 40.5t106 12v-1207zM-41 1632q21 33 50.5 53t63.5 27t69.5 2t67.5 -21q37 -19 74 -29.5t83 -10.5q47 2 84.5 16.5t68.5 48.5q23 -32 5 -57q-15 -22 -36.5 -44t-43.5 -38
q-41 -26 -90 -27.5t-88 21.5q-22 12 -42.5 26t-41 26t-43 19.5t-49.5 6.5q-45 0 -75 -21.5t-57 -53.5q-8 15 -9 28.5t9 27.5z" />
    <glyph glyph-name="Iogonek" unicode="&#x12e;" horiz-adv-x="589" 
d="M404 213q0 -22 -1.5 -41.5t-3.5 -36.5q0 -41 -2 -87t-10.5 -85.5t-25 -66t-45.5 -29.5q-50 -6 -82 -29.5t-46.5 -55t-11.5 -67t23 -65.5t56 -50.5t88 -21.5q92 0 135.5 41t49.5 129h61q0 -32 -7 -69.5t-28.5 -70t-63 -55t-110.5 -23.5h-221q-41 1 -78.5 16t-66.5 40.5
t-46.5 59.5t-17.5 73q0 40 19.5 75t50 62t66.5 44t69 20q21 3 44 1.5t43 -1.5q19 2 34.5 4.5t27.5 11t20.5 26.5t13.5 52q-51 -35 -160 -35v1222q0 67 12 113t38.5 74.5t69.5 40.5t106 12v-1228z" />
    <glyph glyph-name="Cdotaccent" unicode="&#x10a;" horiz-adv-x="1177" 
d="M376 1422q-46 0 -86.5 -17.5t-71 -48t-48 -71.5t-17.5 -87v-975q0 -46 17.5 -86.5t48 -71t71 -48t86.5 -17.5h477q46 0 86.5 17.5t71 48t48.5 71t18 86.5v327h-57v-100q0 -98 -30.5 -173t-79.5 -125.5t-110 -76.5t-122 -26h-75q-60 0 -103 12t-70.5 38.5t-40.5 69
t-13 103.5v878q0 60 13 102t40.5 68.5t70.5 38.5t103 12h75q60 0 114.5 -22t97.5 -67t71 -113.5t35 -161.5h57v191q0 46 -18 87t-48.5 71.5t-71 48t-86.5 17.5h-453zM633 1820q54 0 93.5 -39.5t39.5 -92.5q0 -55 -38.5 -93t-94.5 -38q-55 0 -92 38t-37 93q0 53 38.5 92.5
t90.5 39.5z" />
    <glyph glyph-name="Dcaron" unicode="&#x10e;" horiz-adv-x="1326" 
d="M382 1371v-1320h393q47 4 79.5 18.5t53 40.5t29.5 65.5t9 94.5v882q0 109 -38.5 164t-132.5 55h-393zM154 1290q0 46 1.5 72.5t12 39.5t35 16.5t70.5 3.5h673q46 0 87.5 -18t72.5 -48.5t49 -71.5t18 -87v-972q0 -46 -18 -87t-49 -71.5t-72.5 -48.5t-87.5 -18h-792v1290z
M720 1537q-14 -23 -31.5 -26.5t-47.5 -3.5h-2q-30 0 -47.5 3.5t-31.5 26.5l-201 266l281 -185l281 185z" />
    <glyph glyph-name="Dcroat" unicode="&#x110;" horiz-adv-x="1300" 
d="M128 1291q0 46 1.5 72.5t12 39.5t35 16.5t70.5 3.5h673q46 0 87.5 -18t72.5 -48.5t49 -71.5t18 -87v-973q0 -46 -18 -87t-49 -71.5t-72.5 -48.5t-87.5 -18h-792v699h-128q0 24 6 36.5t20 17.5t37 5h58h7v533zM356 1372v-614h251q0 -24 -6 -36t-20 -17t-37.5 -5.5
t-57.5 -0.5h-130v-648h393q47 4 79.5 18.5t53 40.5t29.5 65.5t9 94.5v883q0 109 -38.5 164t-132.5 55h-393z" />
    <glyph glyph-name="IJ" unicode="&#x132;" horiz-adv-x="1494" 
d="M379 234q0 -65 -10.5 -110t-36 -72.5t-69 -39.5t-110.5 -12v1201q0 67 12 113t38.5 74.5t69.5 40.5t106 12v-1207zM1341 226q0 -46 -17.5 -87t-47.5 -72t-70.5 -49t-85.5 -18h-392q-41 0 -76.5 19.5t-61.5 51.5t-41 72.5t-15 82.5v325h56v-99q0 -100 31.5 -174.5t81 -124
t111.5 -74.5t124 -25q50 0 84.5 13t55.5 40t30.5 68.5t9.5 97.5v928q0 68 11.5 114t38 74t69 40t104.5 12v-1215z" />
    <glyph glyph-name="Jcircumflex" unicode="&#x134;" horiz-adv-x="964" 
d="M832 226q0 -46 -17.5 -87t-47.5 -72t-70.5 -49t-85.5 -18h-392q-41 0 -76.5 19.5t-61.5 51.5t-41 72.5t-15 82.5v325h56v-99q0 -100 31.5 -174.5t81 -124t111.5 -74.5t124 -25q50 0 84.5 13t55.5 40t30.5 68.5t9.5 97.5v928q0 68 11.5 114t38 74t69 40t104.5 12v-1215z
M1014 1483l-281 185l-281 -185l201 266q14 23 31.5 26.5t47.5 3.5h2q30 0 47.5 -3.5t31.5 -26.5z" />
    <glyph glyph-name="Kcommaaccent" unicode="&#x136;" horiz-adv-x="1228" 
d="M591 -342q-21 0 -40.5 1.5t-37.5 8t-33 19.5t-27 34t-14 47t5 50.5t22.5 46t38.5 35.5t50 16.5t52.5 -5.5t46.5 -25.5t33 -43.5q24 -56 12.5 -112t-45 -105.5t-81.5 -87t-97 -55.5q24 20 42.5 39.5t33 40t24 44t15.5 52.5zM378 740l565 640l19.5 19.5t25 20t33.5 15.5
t44 6h65q5 0 4 -2.5t-4 -2.5q-38 0 -62 -13t-51 -43l-468 -525l560 -755q12 -17 25 -34t27.5 -30.5t32 -22.5t39.5 -9q2 0 2 -3q0 -1 -2 -1h-183q-47 0 -76.5 2t-53.5 14t-47 37.5t-56 72.5l-439 608v-503q0 -65 -10.5 -109t-36 -71t-69 -39t-109.5 -12v1203q0 67 12 112.5
t38.5 73.5t69.5 40t105 12v-701z" />
    <glyph glyph-name="Lacute" unicode="&#x139;" horiz-adv-x="971" 
d="M364 50h169q83 0 149 33.5t112.5 89t71.5 127.5t25 150v101h55v-328q0 -46 -18 -86.5t-48.5 -71t-71 -48t-85.5 -17.5h-587v1200q0 67 12 113t39 74t70.5 40t106.5 12v-1389zM295 1840q42 3 69 -26q14 -14 20 -32t5 -36.5t-7.5 -35.5t-17.5 -29q-21 -21 -55 -35.5
t-74.5 -33t-85.5 -45.5t-90 -72h-31q50 46 80 93t50.5 90t36 78t37.5 57q21 22 63 27z" />
    <glyph glyph-name="Lcaron" unicode="&#x13d;" horiz-adv-x="988" 
d="M381 1439q-63 0 -106.5 -12t-70.5 -40t-39 -74t-12 -113v-1200h587q45 0 85.5 17.5t71 48t48.5 71t18 86.5v328h-55v-101q0 -78 -25 -150t-71.5 -127.5t-112.5 -89t-149 -33.5h-169v1389zM521 1393q33 32 60 74t37 90q-21 0 -40.5 1.5t-37.5 8t-33 19.5t-27 34t-14 47
t5 50.5t22.5 46t38.5 35.5t50 16.5t52.5 -5.5t46.5 -25.5t33 -43.5q22 -52 11 -108t-43 -106t-78 -90.5t-92 -62.5q0 8 1 9.5t8 9.5z" />
    <glyph glyph-name="Lcommaaccent" unicode="&#x13b;" horiz-adv-x="988" 
d="M541 -343q-21 0 -40.5 1.5t-37.5 8t-33 19.5t-27 34t-14 47t5 50.5t22.5 46t38.5 35.5t50 16.5t52.5 -5.5t46.5 -25.5t33 -43.5q24 -56 12.5 -112t-45 -105.5t-81.5 -87t-97 -55.5q24 20 42.5 39.5t33 40t24 44t15.5 52.5zM381 50h169q83 0 149 33.5t112.5 89t71.5 127.5
t25 150v101h55v-328q0 -46 -18 -86.5t-48.5 -71t-71 -48t-85.5 -17.5h-587v1200q0 67 12 113t39 74t70.5 40t106.5 12v-1389z" />
    <glyph glyph-name="Ldot" unicode="&#x13f;" horiz-adv-x="988" 
d="M381 50h169q83 0 149 33.5t112.5 89t71.5 127.5t25 150v101h55v-328q0 -46 -18 -86.5t-48.5 -71t-71 -48t-85.5 -17.5h-587v1200q0 67 12 113t39 74t70.5 40t106.5 12v-1389zM666 944q53 0 90 -37.5t37 -89.5t-37.5 -90.5t-89.5 -38.5q-51 0 -89.5 39t-38.5 90t38 89
t90 38z" />
    <glyph glyph-name="Nacute" unicode="&#x143;" horiz-adv-x="1294" 
d="M1141 1441v-1441q-52 0 -96 0.5t-78.5 7t-60 21.5t-40.5 44l-660 1266l2 -1221q0 -33 -1 -55.5t-6 -36.5t-16 -20t-32 -6v1230q0 57 10 97.5t36 65.5t71.5 36.5t116.5 11.5l699 -1349v1229q0 34 1.5 57t7.5 37t17 20t29 6zM753 1836q42 3 69 -26q14 -14 20 -32t5 -36.5
t-7.5 -35.5t-17.5 -29q-21 -21 -55 -35.5t-74.5 -33t-85.5 -45.5t-90 -72h-31q50 46 80 93t50.5 90t36 78t37.5 57q21 22 63 27z" />
    <glyph glyph-name="Ncaron" unicode="&#x147;" horiz-adv-x="1294" 
d="M1141 1441v-1441q-52 0 -96 0.5t-78.5 7t-60 21.5t-40.5 44l-660 1266l2 -1221q0 -33 -1 -55.5t-6 -36.5t-16 -20t-32 -6v1230q0 57 10 97.5t36 65.5t71.5 36.5t116.5 11.5l699 -1349v1229q0 34 1.5 57t7.5 37t17 20t29 6zM781 1583q-14 -23 -31.5 -26.5t-47.5 -3.5h-2
q-30 0 -47.5 3.5t-31.5 26.5l-201 266l281 -185l281 185z" />
    <glyph glyph-name="Ncommaaccent" unicode="&#x145;" horiz-adv-x="1294" 
d="M1141 1441v-1441q-52 0 -96 0.5t-78.5 7t-60 21.5t-40.5 44l-660 1266l2 -1221q0 -33 -1 -55.5t-6 -36.5t-16 -20t-32 -6v1230q0 57 10 97.5t36 65.5t71.5 36.5t116.5 11.5l699 -1349v1229q0 34 1.5 57t7.5 37t17 20t29 6z" />
    <glyph glyph-name="Uogonek" unicode="&#x172;" horiz-adv-x="1053" 
d="M324 0q-46 0 -87 17.5t-71.5 48.5t-48 71.5t-17.5 87.5v976q0 67 12 112.5t39 73.5t70.5 40.5t106.5 12.5v-1169q0 -72 22.5 -115t53.5 -66.5t63 -31t51 -7.5h151q63 0 106.5 11t71 37t39.5 69t12 106v1047q0 34 1 56.5t6 36.5t16.5 20t31.5 6v-1215q0 -34 -7 -73.5
t-30 -73t-68 -56t-120 -22.5h-72v-3q0 -35 0.5 -58.5t-6 -38t-24 -22.5t-53.5 -11q-50 -6 -82 -29.5t-46.5 -55t-11.5 -67t23 -65.5t56 -50.5t88 -21.5q92 0 135.5 41t49.5 129h61q0 -32 -7 -69.5t-28.5 -70t-63 -55t-110.5 -23.5h-221q-41 1 -78.5 16t-66.5 40.5
t-46.5 59.5t-17.5 73q0 40 19.5 75t50 62t66.5 44t69 20q21 3 44 1.5t43 -1.5q29 3 49 5t33 9.5t18.5 22t5.5 43.5h-281z" />
    <glyph glyph-name="Uring" unicode="&#x16e;" horiz-adv-x="1159" 
d="M153 225q0 -47 17.5 -87.5t48 -71.5t71.5 -48.5t87 -17.5h404q75 0 120 22.5t68 56t30 73t7 73.5v1215q-20 0 -31.5 -6t-16.5 -20t-6 -36.5t-1 -56.5v-1047q0 -63 -12 -106t-39.5 -69t-71 -37t-106.5 -11h-151q-19 0 -51 7.5t-63 31t-53.5 66.5t-22.5 115v1169
q-63 0 -106.5 -12.5t-70.5 -40.5t-39 -73.5t-12 -112.5v-976zM834 1726q0 -25 -6 -54.5t-24.5 -55t-52.5 -42.5t-90 -17t-89.5 17.5t-51 43t-23 55t-5.5 53.5v3q0 24 5.5 54t23 56.5t51 44.5t89.5 18t90 -17.5t52.5 -44t24.5 -57.5t6 -57zM779 1729q0 19 -4 39.5t-16.5 37
t-36 27t-61.5 10.5q-37 0 -59.5 -10t-34.5 -26.5t-16 -36.5t-4 -41q0 -19 3.5 -39.5t15.5 -38t34.5 -28.5t60.5 -11q40 0 63.5 11t35.5 28.5t15.5 38t3.5 39.5z" />
    <glyph glyph-name="Utilde" unicode="&#x168;" horiz-adv-x="1159" 
d="M153 1201q0 67 12 112.5t39 73.5t70.5 40.5t106.5 12.5v-1169q0 -72 22.5 -115t53.5 -66.5t63 -31t51 -7.5h151q63 0 106.5 11t71 37t39.5 69t12 106v1047q0 34 1 56.5t6 36.5t16.5 20t31.5 6v-1215q0 -34 -7 -73.5t-30 -73t-68 -56t-120 -22.5h-404q-46 0 -87 17.5
t-71.5 48.5t-48 71.5t-17.5 87.5v976zM390 1696q21 33 50.5 53t63.5 27t69.5 2t67.5 -21q37 -19 74 -29.5t83 -10.5q47 2 84.5 16.5t68.5 48.5q23 -32 5 -57q-15 -22 -36.5 -44t-43.5 -38q-41 -26 -90 -27.5t-88 21.5q-22 12 -42.5 26t-41 26t-43 19.5t-49.5 6.5
q-45 0 -75 -21.5t-57 -53.5q-8 15 -9 28.5t9 27.5z" />
    <glyph glyph-name="Wacute" unicode="&#x1e82;" horiz-adv-x="1642" 
d="M573 218l218 800l-88 310q-5 17 -11 33t-14.5 28t-21.5 19.5t-33 7.5h-1q-1 0 -1 3l2 2h91q57 0 98.5 -15.5t70 -39.5t45.5 -53.5t25 -57.5l276 -1037q82 284 161 576t160 574q8 32 21 42.5t37 10.5h59q-1 1 -10 -4t-20 -14t-21 -20.5t-13 -24.5l-392 -1378q-9 0 -32.5 3
t-50.5 17.5t-53.5 46t-41.5 88.5l-216 789l-261 -944q-8 0 -30.5 3t-50 17.5t-55 46t-44.5 88.5l-327 1193q-6 17 -11.5 33t-13.5 28t-20.5 19.5t-32.5 7.5q-3 0 -3 3v1h1q1 1 2 1h87q56 0 98 -15.5t71.5 -39.5t47.5 -53.5t26 -57.5zM892 1811q42 3 69 -26q14 -14 20 -32
t5 -36.5t-7.5 -35.5t-17.5 -29q-21 -21 -55 -35.5t-74.5 -33t-85.5 -45.5t-90 -72h-31q50 46 80 93t50.5 90t36 78t37.5 57q21 22 63 27z" />
    <glyph glyph-name="Wcircumflex" unicode="&#x174;" horiz-adv-x="1642" 
d="M573 218l218 800l-88 310q-5 17 -11 33t-14.5 28t-21.5 19.5t-33 7.5h-1q-1 0 -1 3l2 2h91q57 0 98.5 -15.5t70 -39.5t45.5 -53.5t25 -57.5l276 -1037q82 284 161 576t160 574q8 32 21 42.5t37 10.5h59q-1 1 -10 -4t-20 -14t-21 -20.5t-13 -24.5l-392 -1378q-9 0 -32.5 3
t-50.5 17.5t-53.5 46t-41.5 88.5l-216 789l-261 -944q-8 0 -30.5 3t-50 17.5t-55 46t-44.5 88.5l-327 1193q-6 17 -11.5 33t-13.5 28t-20.5 19.5t-32.5 7.5q-3 0 -3 3v1h1q1 1 2 1h87q56 0 98 -15.5t71.5 -39.5t47.5 -53.5t26 -57.5zM1076 1478l-281 185l-281 -185l201 266
q14 23 31.5 26.5t47.5 3.5h2q30 0 47.5 -3.5t31.5 -26.5z" />
    <glyph glyph-name="Wdieresis" unicode="&#x1e84;" horiz-adv-x="1642" 
d="M573 218l218 800l-88 310q-5 17 -11 33t-14.5 28t-21.5 19.5t-33 7.5h-1q-1 0 -1 3l2 2h91q57 0 98.5 -15.5t70 -39.5t45.5 -53.5t25 -57.5l276 -1037q82 284 161 576t160 574q8 32 21 42.5t37 10.5h59q-1 1 -10 -4t-20 -14t-21 -20.5t-13 -24.5l-392 -1378q-9 0 -32.5 3
t-50.5 17.5t-53.5 46t-41.5 88.5l-216 789l-261 -944q-8 0 -30.5 3t-50 17.5t-55 46t-44.5 88.5l-327 1193q-6 17 -11.5 33t-13.5 28t-20.5 19.5t-32.5 7.5q-3 0 -3 3v1h1q1 1 2 1h87q56 0 98 -15.5t71.5 -39.5t47.5 -53.5t26 -57.5zM1049 1819q52 0 90.5 -39.5t38.5 -92.5
q0 -55 -37 -93t-92 -38q-57 0 -95.5 38t-38.5 93q0 53 40 92.5t94 39.5zM573 1819q54 0 93.5 -39.5t39.5 -92.5q0 -55 -38.5 -93t-94.5 -38q-55 0 -92 38t-37 93q0 53 38.5 92.5t90.5 39.5z" />
    <glyph glyph-name="Wgrave" unicode="&#x1e80;" horiz-adv-x="1642" 
d="M573 218l218 800l-88 310q-5 17 -11 33t-14.5 28t-21.5 19.5t-33 7.5h-1q-1 0 -1 3l2 2h91q57 0 98.5 -15.5t70 -39.5t45.5 -53.5t25 -57.5l276 -1037q82 284 161 576t160 574q8 32 21 42.5t37 10.5h59q-1 1 -10 -4t-20 -14t-21 -20.5t-13 -24.5l-392 -1378q-9 0 -32.5 3
t-50.5 17.5t-53.5 46t-41.5 88.5l-216 789l-261 -944q-8 0 -30.5 3t-50 17.5t-55 46t-44.5 88.5l-327 1193q-6 17 -11.5 33t-13.5 28t-20.5 19.5t-32.5 7.5q-3 0 -3 3v1h1q1 1 2 1h87q56 0 98 -15.5t71.5 -39.5t47.5 -53.5t26 -57.5zM731 1801q42 -5 63 -27q22 -22 37.5 -57
t36 -78t50.5 -90t80 -93h-31q-45 45 -90 72t-85.5 45.5t-74.5 33t-55 35.5q-11 12 -17.5 29t-7.5 35.5t5 36.5t20 32q27 29 69 26z" />
    <glyph glyph-name="Ycircumflex" unicode="&#x176;" horiz-adv-x="1084" 
d="M414 681l-301 637q-9 19 -19.5 37t-23.5 31.5t-29.5 22t-38.5 8.5q-2 0 -2 2t2 2h111q46 0 82 -2.5t65 -15t53.5 -39t46.5 -73.5l245 -522l305 586q18 35 43.5 50.5t69.5 15.5h59q2 0 2 -2t-2 -2q-35 0 -57 -14t-39 -48l-344 -655v-461q0 -66 -12 -112t-39 -74
t-70.5 -40.5t-106.5 -12.5v681zM900 1474l-281 185l-281 -185l201 266q14 23 31.5 26.5t47.5 3.5h2q30 0 47.5 -3.5t31.5 -26.5z" />
    <glyph glyph-name="Ygrave" unicode="&#x1ef2;" horiz-adv-x="1084" 
d="M414 681l-301 637q-9 19 -19.5 37t-23.5 31.5t-29.5 22t-38.5 8.5q-2 0 -2 2t2 2h111q46 0 82 -2.5t65 -15t53.5 -39t46.5 -73.5l245 -522l305 586q18 35 43.5 50.5t69.5 15.5h59q2 0 2 -2t-2 -2q-35 0 -57 -14t-39 -48l-344 -655v-461q0 -66 -12 -112t-39 -74
t-70.5 -40.5t-106.5 -12.5v681zM530 1815q42 -5 63 -27q22 -22 37.5 -57t36 -78t50.5 -90t80 -93h-31q-45 45 -90 72t-85.5 45.5t-74.5 33t-55 35.5q-11 12 -17.5 29t-7.5 35.5t5 36.5t20 32q27 29 69 26z" />
    <glyph glyph-name="Zacute" unicode="&#x179;" horiz-adv-x="1178" 
d="M819 1372h-276q-77 0 -140.5 -29.5t-110 -79.5t-74 -116t-32.5 -140h-57v192q0 46 17.5 86.5t48 71t71 48t86.5 17.5h733l-722 -1374h300q83 0 149.5 34t113 90.5t71 129t24.5 149.5v100h57v-327q0 -46 -17.5 -87t-48 -71.5t-71.5 -48t-87 -17.5h-754zM670 1811
q42 3 69 -26q14 -14 20 -32t5 -36.5t-7.5 -35.5t-17.5 -29q-21 -21 -55 -35.5t-74.5 -33t-85.5 -45.5t-90 -72h-31q50 46 80 93t50.5 90t36 78t37.5 57q21 22 63 27z" />
    <glyph glyph-name="Zdotaccent" unicode="&#x17b;" horiz-adv-x="1178" 
d="M819 1372h-276q-77 0 -140.5 -29.5t-110 -79.5t-74 -116t-32.5 -140h-57v192q0 46 17.5 86.5t48 71t71 48t86.5 17.5h733l-722 -1374h300q83 0 149.5 34t113 90.5t71 129t24.5 149.5v100h57v-327q0 -46 -17.5 -87t-48 -71.5t-71.5 -48t-87 -17.5h-754zM637 1820
q54 0 93.5 -39.5t39.5 -92.5q0 -55 -38.5 -93t-94.5 -38q-55 0 -92 38t-37 93q0 53 38.5 92.5t90.5 39.5z" />
    <glyph glyph-name="Uhungarumlaut" unicode="&#x170;" horiz-adv-x="1159" 
d="M153 1201q0 67 12 112.5t39 73.5t70.5 40.5t106.5 12.5v-1169q0 -72 22.5 -115t53.5 -66.5t63 -31t51 -7.5h151q63 0 106.5 11t71 37t39.5 69t12 106v1047q0 34 1 56.5t6 36.5t16.5 20t31.5 6v-1215q0 -34 -7 -73.5t-30 -73t-68 -56t-120 -22.5h-404q-46 0 -87 17.5
t-71.5 48.5t-48 71.5t-17.5 87.5v976zM614 1828q42 3 69 -26q14 -14 20 -32t5 -36.5t-7.5 -35.5t-17.5 -29q-21 -21 -55 -35.5t-74.5 -33t-85.5 -45.5t-90 -72h-31q50 46 80 93t50.5 90t36 78t37.5 57q21 22 63 27zM863 1828q42 3 69 -26q14 -14 20 -32t5 -36.5t-7.5 -35.5
t-17.5 -29q-21 -21 -55 -35.5t-74.5 -33t-85.5 -45.5t-90 -72h-31q50 46 80 93t50.5 90t36 78t37.5 57q21 22 63 27z" />
    <glyph glyph-name="Umacron" unicode="&#x16a;" horiz-adv-x="1159" 
d="M153 225q0 -47 17.5 -87.5t48 -71.5t71.5 -48.5t87 -17.5h404q75 0 120 22.5t68 56t30 73t7 73.5v1215q-20 0 -31.5 -6t-16.5 -20t-6 -36.5t-1 -56.5v-1047q0 -63 -12 -106t-39.5 -69t-71 -37t-106.5 -11h-151q-19 0 -51 7.5t-63 31t-53.5 66.5t-22.5 115v1169
q-63 0 -106.5 -12.5t-70.5 -40.5t-39 -73.5t-12 -112.5v-976zM378 1556q0 24 6 36.5t20 17.5t37 5h58h455q0 -24 -6 -36t-20 -17t-37.5 -5.5t-57.5 -0.5h-455z" />
    <glyph glyph-name="Tcommaaccent" unicode="&#x162;" horiz-adv-x="953" 
d="M362 0v1370h-78q-63 0 -106 -11t-70 -37t-38.5 -68t-11.5 -104v-142h-58v283q0 46 2.5 72t13.5 39t35 16.5t67 3.5h714q44 0 68.5 -3.5t36 -16.5t14 -39.5t2.5 -71.5v-283h-58v142q0 62 -12 104t-39 68t-70.5 37t-106.5 11h-79v-1131q0 -67 -11.5 -113t-38.5 -74t-70 -40
t-106 -12zM386 -504q33 32 60 74t37 90q-21 0 -40.5 1.5t-37.5 8t-33 19.5t-27 34t-14 47t5 50.5t22.5 46t38.5 35.5t50 16.5t52.5 -5.5t46.5 -25.5t33 -43.5q22 -52 11 -108t-43 -106t-78 -90.5t-92 -62.5q0 8 1 9.5t8 9.5z" />
    <glyph glyph-name="Tcaron" unicode="&#x164;" horiz-adv-x="953" 
d="M362 0v1370h-78q-63 0 -106 -11t-70 -37t-38.5 -68t-11.5 -104v-142h-58v283q0 46 2.5 72t13.5 39t35 16.5t67 3.5h714q44 0 68.5 -3.5t36 -16.5t14 -39.5t2.5 -71.5v-283h-58v142q0 62 -12 104t-39 68t-70.5 37t-106.5 11h-79v-1131q0 -67 -11.5 -113t-38.5 -74t-70 -40
t-106 -12zM556 1586q-14 -23 -31.5 -26.5t-47.5 -3.5h-2q-30 0 -47.5 3.5t-31.5 26.5l-201 266l281 -185l281 185z" />
    <glyph glyph-name="Obreve" unicode="&#x14e;" horiz-adv-x="1321" 
d="M944 1422h-567q-46 0 -86.5 -17.5t-71 -47.5t-48.5 -71t-18 -88v-974q0 -46 18 -87t48.5 -71.5t71 -48t86.5 -17.5h567q46 0 87 17.5t71.5 48t48 71.5t17.5 87v974q0 47 -17.5 88t-48 71t-71.5 47.5t-87 17.5zM717 1373q63 0 106.5 -11t70 -37t38.5 -68.5t12 -104.5v-880
q0 -62 -12 -104.5t-38.5 -68.5t-70 -37.5t-106.5 -11.5h-114q-63 0 -106 11.5t-70 37.5t-38.5 68.5t-11.5 104.5v880q0 62 11.5 104.5t38.5 68.5t70 37t106 11h114zM831 1730q0 -25 -6 -55t-24.5 -56.5t-52.5 -44t-90 -17.5t-89.5 18t-51 44.5t-23 56.5t-5.5 54h55
q0 -21 4 -41t16 -36.5t34.5 -26.5t59.5 -10q38 0 61.5 10.5t36 27t16.5 37t4 39.5h55z" />
    <glyph glyph-name="Ebreve" unicode="&#x114;" horiz-adv-x="1176" 
d="M380 1373v-620h78q42 0 83.5 16t75.5 47.5t57 79t28 111.5h43v-542h-43q-8 59 -32 103t-58 73.5t-74 44.5t-80 16h-78v-653h281q83 0 149.5 33.5t113 89t71.5 128.5t25 151v100h56v-329q0 -46 -17.5 -86.5t-48 -70.5t-71.5 -47.5t-87 -17.5h-699v1292q0 49 2 75.5
t12.5 38.5t34 14t66.5 2h651q45 0 68.5 -3t34.5 -16t12.5 -39t1.5 -72v-284h-55v142q0 63 -12 105.5t-39 69t-70.5 37.5t-106.5 11h-373zM791 1729q0 -25 -6 -55t-24.5 -56.5t-52.5 -44t-90 -17.5t-89.5 18t-51 44.5t-23 56.5t-5.5 54h55q0 -21 4 -41t16 -36.5t34.5 -26.5
t59.5 -10q38 0 61.5 10.5t36 27t16.5 37t4 39.5h55z" />
    <glyph glyph-name="Ecaron" unicode="&#x11a;" horiz-adv-x="1176" 
d="M380 1373v-620h78q42 0 83.5 16t75.5 47.5t57 79t28 111.5h43v-542h-43q-8 59 -32 103t-58 73.5t-74 44.5t-80 16h-78v-653h281q83 0 149.5 33.5t113 89t71.5 128.5t25 151v100h56v-329q0 -46 -17.5 -86.5t-48 -70.5t-71.5 -47.5t-87 -17.5h-699v1292q0 49 2 75.5
t12.5 38.5t34 14t66.5 2h651q45 0 68.5 -3t34.5 -16t12.5 -39t1.5 -72v-284h-55v142q0 63 -12 105.5t-39 69t-70.5 37.5t-106.5 11h-373zM744 1534q-14 -23 -31.5 -26.5t-47.5 -3.5h-2q-30 0 -47.5 3.5t-31.5 26.5l-201 266l281 -185l281 185z" />
    <glyph glyph-name="Edotaccent" unicode="&#x116;" horiz-adv-x="1176" 
d="M380 1373v-620h78q42 0 83.5 16t75.5 47.5t57 79t28 111.5h43v-542h-43q-8 59 -32 103t-58 73.5t-74 44.5t-80 16h-78v-653h281q83 0 149.5 33.5t113 89t71.5 128.5t25 151v100h56v-329q0 -46 -17.5 -86.5t-48 -70.5t-71.5 -47.5t-87 -17.5h-699v1292q0 49 2 75.5
t12.5 38.5t34 14t66.5 2h651q45 0 68.5 -3t34.5 -16t12.5 -39t1.5 -72v-284h-55v142q0 63 -12 105.5t-39 69t-70.5 37.5t-106.5 11h-373zM660 1821q54 0 93.5 -39.5t39.5 -92.5q0 -55 -38.5 -93t-94.5 -38q-55 0 -92 38t-37 93q0 53 38.5 92.5t90.5 39.5z" />
    <glyph glyph-name="Emacron" unicode="&#x112;" horiz-adv-x="1176" 
d="M333 1558q0 24 6 36.5t20 17.5t37 5h58h455q0 -24 -6 -36t-20 -17t-37.5 -5.5t-57.5 -0.5h-455zM380 1373v-620h78q42 0 83.5 16t75.5 47.5t57 79t28 111.5h43v-542h-43q-8 59 -32 103t-58 73.5t-74 44.5t-80 16h-78v-653h281q83 0 149.5 33.5t113 89t71.5 128.5t25 151
v100h56v-329q0 -46 -17.5 -86.5t-48 -70.5t-71.5 -47.5t-87 -17.5h-699v1292q0 49 2 75.5t12.5 38.5t34 14t66.5 2h651q45 0 68.5 -3t34.5 -16t12.5 -39t1.5 -72v-284h-55v142q0 63 -12 105.5t-39 69t-70.5 37.5t-106.5 11h-373z" />
    <glyph glyph-name="Eogonek" unicode="&#x118;" horiz-adv-x="1176" 
d="M722 0v-3q0 -35 0.5 -58.5t-6 -38t-24 -22.5t-53.5 -11q-50 -6 -82 -29.5t-46.5 -55t-11.5 -67t23 -65.5t56 -50.5t88 -21.5q92 0 135.5 41t49.5 129h61q0 -32 -7 -69.5t-28.5 -70t-63 -55t-110.5 -23.5h-221q-41 1 -78.5 16t-66.5 40.5t-46.5 59.5t-17.5 73
q0 40 19.5 75t50 62t66.5 44t69 20q21 3 44 1.5t43 -1.5q29 3 49 5t33 9.5t18.5 22t5.5 43.5h-518v1292q0 49 2 75.5t12.5 38.5t34 14t66.5 2h651q45 0 68.5 -3t34.5 -16t12.5 -39t1.5 -72v-284h-55v142q0 63 -12 105.5t-39 69t-70.5 37.5t-106.5 11h-373v-620h78
q42 0 83.5 16t75.5 47.5t57 79t28 111.5h43v-542h-43q-8 59 -32 103t-58 73.5t-74 44.5t-80 16h-78v-653h281q83 0 149.5 33.5t113 89t71.5 128.5t25 151v100h56v-329q0 -46 -17.5 -86.5t-48 -70.5t-71.5 -47.5t-87 -17.5h-130z" />
    <glyph glyph-name="Gcircumflex" unicode="&#x11c;" horiz-adv-x="1218" 
d="M861 1422q46 0 86.5 -17.5t70.5 -48t47.5 -71t17.5 -86.5v-191h-56q-5 73 -33 139.5t-74.5 116t-110 79t-140.5 29.5h-67q-63 0 -106.5 -11t-70 -37t-38.5 -68.5t-12 -105.5v-877q0 -62 12 -105t38.5 -69t70 -37.5t106.5 -11.5h67q63 0 106.5 11.5t71 37.5t39.5 69
t12 105v329h-194v50h296q34 0 57 -2t36.5 -11t19 -28.5t5.5 -55.5v-331q0 -46 -17.5 -86.5t-47.5 -71t-70.5 -48.5t-86.5 -18h-521q-46 0 -86.5 18t-70.5 48.5t-47.5 71t-17.5 86.5v975q0 46 15 86.5t43.5 71t69.5 48t94 17.5h486zM946 1465l-281 185l-281 -185l201 266
q14 23 31.5 26.5t47.5 3.5h2q30 0 47.5 -3.5t31.5 -26.5z" />
    <glyph glyph-name="Gcommaaccent" unicode="&#x122;" horiz-adv-x="1218" 
d="M861 1422q46 0 86.5 -17.5t70.5 -48t47.5 -71t17.5 -86.5v-191h-56q-5 73 -33 139.5t-74.5 116t-110 79t-140.5 29.5h-67q-63 0 -106.5 -11t-70 -37t-38.5 -68.5t-12 -105.5v-877q0 -62 12 -105t38.5 -69t70 -37.5t106.5 -11.5h67q63 0 106.5 11.5t71 37.5t39.5 69
t12 105v329h-194v50h296q34 0 57 -2t36.5 -11t19 -28.5t5.5 -55.5v-331q0 -46 -17.5 -86.5t-47.5 -71t-70.5 -48.5t-86.5 -18h-521q-46 0 -86.5 18t-70.5 48.5t-47.5 71t-17.5 86.5v975q0 46 15 86.5t43.5 71t69.5 48t94 17.5h486z" />
    <glyph glyph-name="Rcaron" unicode="&#x158;" horiz-adv-x="1192" 
d="M865 1422q46 0 86.5 -17.5t71 -48t48 -71.5t17.5 -87v-264q0 -46 -17.5 -87t-48 -71.5t-71 -48t-86.5 -17.5h-223l450 -613q12 -17 24.5 -33.5t27 -29t32 -21t41.5 -9.5q0 -4 -2 -4h-209q-28 0 -54 5.5t-51 19.5t-50 38t-52 60l-421 587v-477q0 -65 -10 -109.5t-35.5 -72
t-69 -39.5t-110.5 -12v1286q0 51 2 79t12.5 40.5t33.5 14.5t66 2h598zM378 1371v-610h261q63 0 106.5 11t70.5 37t39 68.5t12 105.5v166q0 63 -12 105.5t-39 68.5t-70.5 37t-106.5 11h-261zM686 1586q-14 -23 -31.5 -26.5t-47.5 -3.5h-2q-30 0 -47.5 3.5t-31.5 26.5
l-201 266l281 -185l281 185z" />
    <glyph glyph-name="Racute" unicode="&#x154;" horiz-adv-x="1192" 
d="M865 1422q46 0 86.5 -17.5t71 -48t48 -71.5t17.5 -87v-264q0 -46 -17.5 -87t-48 -71.5t-71 -48t-86.5 -17.5h-223l450 -613q12 -17 24.5 -33.5t27 -29t32 -21t41.5 -9.5q0 -4 -2 -4h-209q-28 0 -54 5.5t-51 19.5t-50 38t-52 60l-421 587v-477q0 -65 -10 -109.5t-35.5 -72
t-69 -39.5t-110.5 -12v1286q0 51 2 79t12.5 40.5t33.5 14.5t66 2h598zM378 1371v-610h261q63 0 106.5 11t70.5 37t39 68.5t12 105.5v166q0 63 -12 105.5t-39 68.5t-70.5 37t-106.5 11h-261zM674 1814q42 3 69 -26q14 -14 20 -32t5 -36.5t-7.5 -35.5t-17.5 -29
q-21 -21 -55 -35.5t-74.5 -33t-85.5 -45.5t-90 -72h-31q50 46 80 93t50.5 90t36 78t37.5 57q21 22 63 27z" />
    <glyph glyph-name="Ohungarumlaut" unicode="&#x150;" horiz-adv-x="1321" 
d="M944 1422q46 0 87 -17.5t71.5 -47.5t48 -71t17.5 -88v-974q0 -46 -17.5 -87t-48 -71.5t-71.5 -48t-87 -17.5h-567q-46 0 -86.5 17.5t-71 48t-48.5 71.5t-18 87v974q0 47 18 88t48.5 71t71 47.5t86.5 17.5h567zM603 1373q-63 0 -106 -11t-70 -37t-38.5 -68.5t-11.5 -104.5
v-880q0 -62 11.5 -104.5t38.5 -68.5t70 -37.5t106 -11.5h114q63 0 106.5 11.5t70 37.5t38.5 68.5t12 104.5v880q0 62 -12 104.5t-38.5 68.5t-70 37t-106.5 11h-114zM616 1831q42 3 69 -26q14 -14 20 -32t5 -36.5t-7.5 -35.5t-17.5 -29q-21 -21 -55 -35.5t-74.5 -33
t-85.5 -45.5t-90 -72h-31q50 46 80 93t50.5 90t36 78t37.5 57q21 22 63 27zM865 1831q42 3 69 -26q14 -14 20 -32t5 -36.5t-7.5 -35.5t-17.5 -29q-21 -21 -55 -35.5t-74.5 -33t-85.5 -45.5t-90 -72h-31q50 46 80 93t50.5 90t36 78t37.5 57q21 22 63 27z" />
    <glyph glyph-name="Ubreve" unicode="&#x16c;" horiz-adv-x="1159" 
d="M153 225q0 -47 17.5 -87.5t48 -71.5t71.5 -48.5t87 -17.5h404q75 0 120 22.5t68 56t30 73t7 73.5v1215q-20 0 -31.5 -6t-16.5 -20t-6 -36.5t-1 -56.5v-1047q0 -63 -12 -106t-39.5 -69t-71 -37t-106.5 -11h-151q-19 0 -51 7.5t-63 31t-53.5 66.5t-22.5 115v1169
q-63 0 -106.5 -12.5t-70.5 -40.5t-39 -73.5t-12 -112.5v-976zM844 1730q0 -25 -6 -55t-24.5 -56.5t-52.5 -44t-90 -17.5t-89.5 18t-51 44.5t-23 56.5t-5.5 54h55q0 -21 4 -41t16 -36.5t34.5 -26.5t59.5 -10q38 0 61.5 10.5t36 27t16.5 37t4 39.5h55z" />
    <glyph glyph-name="Tbar" unicode="&#x166;" horiz-adv-x="953" 
d="M362 0v707h-136q0 24 6 36.5t20 17.5t37 5h58h15v604h-78q-63 0 -106 -11t-70 -37t-38.5 -68t-11.5 -104v-142h-58v283q0 46 2.5 72t13.5 39t35 16.5t67 3.5h714q44 0 68.5 -3.5t36 -16.5t14 -39.5t2.5 -71.5v-283h-58v142q0 62 -12 104t-39 68t-70.5 37t-106.5 11h-79
v-604h131q0 -24 -6 -36t-20 -17t-37.5 -5.5t-57.5 -0.5h-10v-468q0 -67 -11.5 -113t-38.5 -74t-70 -40t-106 -12z" />
    <glyph glyph-name="Scircumflex" unicode="&#x15c;" horiz-adv-x="1139" 
d="M156 551v-100q0 -79 25 -151.5t71.5 -128t113 -89t149.5 -33.5h74q63 0 106.5 14t70 42t38.5 70t12 97v68q0 54 -15.5 93t-42 68t-62.5 50t-78 40q-54 24 -114 49.5t-119 55.5t-112.5 65.5t-92.5 77.5q-21 22 -36 50.5t-24.5 60t-14 64t-4.5 63.5q0 25 1 60.5t8.5 74
t25.5 76t51.5 67.5t86.5 48.5t131 18.5h350q46 0 87.5 -17.5t72 -48t48.5 -71t18 -86.5v-190h-58q-5 73 -33 139t-75 115.5t-110.5 79t-139.5 29.5h-14q-67 0 -110.5 -11.5t-69.5 -37.5t-36.5 -68.5t-10.5 -105.5q0 -36 8.5 -71t39 -70.5t89 -73.5t158.5 -80
q42 -18 89 -36.5t94 -42t89.5 -53t75.5 -69.5t52.5 -92t19.5 -119v-88q0 -172 -81 -263t-247 -91h-387q-46 0 -86.5 17.5t-71 48t-48 71t-17.5 86.5v328h55zM837 1470l-281 185l-281 -185l201 266q14 23 31.5 26.5t47.5 3.5h2q30 0 47.5 -3.5t31.5 -26.5z" />
    <glyph glyph-name="Scommaaccent" unicode="&#x218;" horiz-adv-x="1139" 
d="M156 551v-100q0 -79 25 -151.5t71.5 -128t113 -89t149.5 -33.5h74q63 0 106.5 14t70 42t38.5 70t12 97v68q0 54 -15.5 93t-42 68t-62.5 50t-78 40q-54 24 -114 49.5t-119 55.5t-112.5 65.5t-92.5 77.5q-21 22 -36 50.5t-24.5 60t-14 64t-4.5 63.5q0 25 1 60.5t8.5 74
t25.5 76t51.5 67.5t86.5 48.5t131 18.5h350q46 0 87.5 -17.5t72 -48t48.5 -71t18 -86.5v-190h-58q-5 73 -33 139t-75 115.5t-110.5 79t-139.5 29.5h-14q-67 0 -110.5 -11.5t-69.5 -37.5t-36.5 -68.5t-10.5 -105.5q0 -36 8.5 -71t39 -70.5t89 -73.5t158.5 -80
q42 -18 89 -36.5t94 -42t89.5 -53t75.5 -69.5t52.5 -92t19.5 -119v-88q0 -172 -81 -263t-247 -91h-387q-46 0 -86.5 17.5t-71 48t-48 71t-17.5 86.5v328h55zM495 -504q33 32 60 74t37 90q-21 0 -40.5 1.5t-37.5 8t-33 19.5t-27 34t-14 47t5 50.5t22.5 46t38.5 35.5t50 16.5
t52.5 -5.5t46.5 -25.5t33 -43.5q22 -52 11 -108t-43 -106t-78 -90.5t-92 -62.5q0 8 1 9.5t8 9.5z" />
    <glyph glyph-name="Sacute" unicode="&#x15a;" horiz-adv-x="1139" 
d="M156 551v-100q0 -79 25 -151.5t71.5 -128t113 -89t149.5 -33.5h74q63 0 106.5 14t70 42t38.5 70t12 97v68q0 54 -15.5 93t-42 68t-62.5 50t-78 40q-54 24 -114 49.5t-119 55.5t-112.5 65.5t-92.5 77.5q-21 22 -36 50.5t-24.5 60t-14 64t-4.5 63.5q0 25 1 60.5t8.5 74
t25.5 76t51.5 67.5t86.5 48.5t131 18.5h350q46 0 87.5 -17.5t72 -48t48.5 -71t18 -86.5v-190h-58q-5 73 -33 139t-75 115.5t-110.5 79t-139.5 29.5h-14q-67 0 -110.5 -11.5t-69.5 -37.5t-36.5 -68.5t-10.5 -105.5q0 -36 8.5 -71t39 -70.5t89 -73.5t158.5 -80
q42 -18 89 -36.5t94 -42t89.5 -53t75.5 -69.5t52.5 -92t19.5 -119v-88q0 -172 -81 -263t-247 -91h-387q-46 0 -86.5 17.5t-71 48t-48 71t-17.5 86.5v328h55zM651 1823q42 3 69 -26q14 -14 20 -32t5 -36.5t-7.5 -35.5t-17.5 -29q-21 -21 -55 -35.5t-74.5 -33t-85.5 -45.5
t-90 -72h-31q50 46 80 93t50.5 90t36 78t37.5 57q21 22 63 27z" />
    <glyph glyph-name="macron" horiz-adv-x="776" 
d="M100 1363q0 24 6 36.5t20 17.5t37 5h58h455q0 -24 -6 -36t-20 -17t-37.5 -5.5t-57.5 -0.5h-455z" />
    <glyph glyph-name="cyrbreve" horiz-adv-x="798" 
d="M360 1196q-75 0 -124.5 18.5t-79 50t-42.5 72t-14 85.5h162q0 -47 6.5 -80t22 -54.5t42 -31t66.5 -9.5q80 1 111.5 41.5t31.5 133.5h156q0 -45 -12.5 -85.5t-42 -72t-79 -50t-122.5 -18.5h-82z" />
    <glyph glyph-name="Breve" horiz-adv-x="648" 
d="M495 1701q0 -25 -6 -55t-24.5 -56.5t-52.5 -44t-90 -17.5t-89.5 18t-51 44.5t-23 56.5t-5.5 54h55q0 -21 4 -41t16 -36.5t34.5 -26.5t59.5 -10q38 0 61.5 10.5t36 27t16.5 37t4 39.5h55z" />
    <glyph glyph-name="cyrBreve" horiz-adv-x="798" 
d="M360 1555q-75 0 -124.5 18.5t-79 50t-42.5 72t-14 85.5h162q0 -47 6.5 -80t22 -54.5t42 -31t66.5 -9.5q80 1 111.5 41.5t31.5 133.5h156q0 -45 -12.5 -85.5t-42 -72t-79 -50t-122.5 -18.5h-82z" />
    <glyph glyph-name="Acute" horiz-adv-x="525" 
d="M348 1812q42 3 69 -26q14 -14 20 -32t5 -36.5t-7.5 -35.5t-17.5 -29q-21 -21 -55 -35.5t-74.5 -33t-85.5 -45.5t-90 -72h-31q50 46 80 93t50.5 90t36 78t37.5 57q21 22 63 27z" />
    <glyph glyph-name="Caron" horiz-adv-x="762" 
d="M461 1587q-14 -23 -31.5 -26.5t-47.5 -3.5h-2q-30 0 -47.5 3.5t-31.5 26.5l-201 266l281 -185l281 185z" />
    <glyph glyph-name="Abreve" unicode="&#x102;" horiz-adv-x="1134" 
d="M1139 4q-18 0 -30 8t-20.5 20.5t-13.5 28t-10 30.5l-430 1351q-10 0 -33.5 -2.5t-50.5 -14.5t-52.5 -36.5t-39.5 -67.5l-400 -1258q-9 -25 -20 -42t-37 -17q-2 0 -2 -2t2 -2h47q28 0 40.5 9.5t23.5 41.5l162 502h417l115 -387q9 -29 27 -58.5t48 -53.5t73 -39t101 -15h83
q2 0 2 2t-2 2zM493 1244l184 -639h-386zM738 1730q0 -25 -6 -55t-24.5 -56.5t-52.5 -44t-90 -17.5t-89.5 18t-51 44.5t-23 56.5t-5.5 54h55q0 -21 4 -41t16 -36.5t34.5 -26.5t59.5 -10q38 0 61.5 10.5t36 27t16.5 37t4 39.5h55z" />
    <glyph glyph-name="commaaccent" horiz-adv-x="608" 
d="M213 -504q33 32 60 74t37 90q-21 0 -40.5 1.5t-37.5 8t-33 19.5t-27 34t-14 47t5 50.5t22.5 46t38.5 35.5t50 16.5t52.5 -5.5t46.5 -25.5t33 -43.5q22 -52 11 -108t-43 -106t-78 -90.5t-92 -62.5q0 8 1 9.5t8 9.5z" />
    <glyph glyph-name="undercommaaccent" horiz-adv-x="465" 
d="M253 -296q-21 0 -40.5 1.5t-37.5 8t-33 19.5t-27 34t-14 47t5 50.5t22.5 46t38.5 35.5t50 16.5t52.5 -5.5t46.5 -25.5t33 -43.5q24 -56 12.5 -112t-45 -105.5t-81.5 -87t-97 -55.5q24 20 42.5 39.5t33 40t24 44t15.5 52.5z" />
    <glyph glyph-name="Ring" horiz-adv-x="670" 
d="M495 1698q0 -25 -6 -54.5t-24.5 -55t-52.5 -42.5t-90 -17t-89.5 17.5t-51 43t-23 55t-5.5 53.5v3q0 24 5.5 54t23 56.5t51 44.5t89.5 18t90 -17.5t52.5 -44t24.5 -57.5t6 -57zM440 1701q0 19 -4 39.5t-16.5 37t-36 27t-61.5 10.5q-37 0 -59.5 -10t-34.5 -26.5t-16 -36.5
t-4 -41q0 -19 3.5 -39.5t15.5 -38t34.5 -28.5t60.5 -11q40 0 63.5 11t35.5 28.5t15.5 38t3.5 39.5z" />
    <glyph glyph-name="glyph315" horiz-adv-x="1076" 
d="M702 734v95q0 119 -57 170t-176 51q-59 0 -100.5 -11.5t-67.5 -38t-37.5 -68.5t-11.5 -103v-24h-58v164q0 46 3 72t15 39t35.5 16.5t65.5 3.5h389q41 0 80.5 -19.5t71 -51t50.5 -71.5t19 -81v-653q0 -45 -18 -84.5t-49 -69.5t-71 -48.5t-83 -21.5h-381q-46 0 -86 17.5
t-70 48t-47.5 71.5t-17.5 87v287q0 46 17.5 86.5t47.5 71t70 48t86 17.5h381zM702 684h-153q-63 0 -106.5 -11.5t-70.5 -37.5t-39 -68.5t-12 -103.5v-190q0 -57 10 -97t32 -66.5t57.5 -40.5t86.5 -18q54 3 91 16.5t60.5 40t33.5 67t10 98.5v411zM236 1363q0 24 6 36.5
t20 17.5t37 5h58h455q0 -24 -6 -36t-20 -17t-37.5 -5.5t-57.5 -0.5h-455z" />
    <glyph glyph-name="glyph316" horiz-adv-x="1076" 
d="M702 734v95q0 119 -57 170t-176 51q-59 0 -100.5 -11.5t-67.5 -38t-37.5 -68.5t-11.5 -103v-24h-58v164q0 46 3 72t15 39t35.5 16.5t65.5 3.5h389q41 0 80.5 -19.5t71 -51t50.5 -71.5t19 -81v-653q0 -45 -18 -84.5t-49 -69.5t-71 -48.5t-83 -21.5h-381q-46 0 -86 17.5
t-70 48t-47.5 71.5t-17.5 87v287q0 46 17.5 86.5t47.5 71t70 48t86 17.5h381zM702 684h-153q-63 0 -106.5 -11.5t-70.5 -37.5t-39 -68.5t-12 -103.5v-190q0 -57 10 -97t32 -66.5t57.5 -40.5t86.5 -18q54 3 91 16.5t60.5 40t33.5 67t10 98.5v411zM705 1418q0 -25 -6 -55
t-24.5 -56.5t-52.5 -44t-90 -17.5t-89.5 18t-51 44.5t-23 56.5t-5.5 54h55q0 -21 4 -41t16 -36.5t34.5 -26.5t59.5 -10q38 0 61.5 10.5t36 27t16.5 37t4 39.5h55z" />
    <glyph glyph-name="Rcommaaccent" unicode="&#x156;" horiz-adv-x="1192" 
d="M865 1422q46 0 86.5 -17.5t71 -48t48 -71.5t17.5 -87v-264q0 -46 -17.5 -87t-48 -71.5t-71 -48t-86.5 -17.5h-223l450 -613q12 -17 24.5 -33.5t27 -29t32 -21t41.5 -9.5q0 -4 -2 -4h-209q-28 0 -54 5.5t-51 19.5t-50 38t-52 60l-421 587v-477q0 -65 -10 -109.5t-35.5 -72
t-69 -39.5t-110.5 -12v1286q0 51 2 79t12.5 40.5t33.5 14.5t66 2h598zM378 1371v-610h261q63 0 106.5 11t70.5 37t39 68.5t12 105.5v166q0 63 -12 105.5t-39 68.5t-70.5 37t-106.5 11h-261zM523 -504q33 32 60 74t37 90q-21 0 -40.5 1.5t-37.5 8t-33 19.5t-27 34t-14 47
t5 50.5t22.5 46t38.5 35.5t50 16.5t52.5 -5.5t46.5 -25.5t33 -43.5q22 -52 11 -108t-43 -106t-78 -90.5t-92 -62.5q0 8 1 9.5t8 9.5z" />
    <glyph glyph-name="Imacron" horiz-adv-x="481" 
d="M355 234q0 -65 -10.5 -110t-36 -72.5t-69 -39.5t-110.5 -12v1201q0 67 12 113t38.5 74.5t69.5 40.5t106 12v-1207zM-37 1559q0 24 6 36.5t20 17.5t37 5h58h455q0 -24 -6 -36t-20 -17t-37.5 -5.5t-57.5 -0.5h-455z" />
    <glyph glyph-name="dieresisacute" horiz-adv-x="928" 
d="M328 1812q41 3 68 -26q14 -14 20 -32t5.5 -36.5t-7 -35.5t-18.5 -29q-21 -21 -54.5 -35.5t-74.5 -33t-86 -45.5t-90 -72h-31q50 46 80.5 93t50.5 90t36 78t37 57t64 27zM719 1812q42 3 68 -26q14 -14 20.5 -32t5.5 -36.5t-7.5 -35.5t-18.5 -29q-21 -21 -54.5 -35.5
t-74 -33t-86 -45.5t-89.5 -72h-31q50 46 80 93t50.5 90t36 78t36.5 57q12 12 28 18.5t36 8.5z" />
    <glyph glyph-name="glyph320" horiz-adv-x="976" 
d="M816 807q-8 52 -32 96.5t-61 77.5t-85.5 51.5t-105.5 18.5t-97 -11.5t-65 -38t-36.5 -69t-11.5 -103.5v-557q0 -63 11.5 -105.5t38.5 -68.5t70.5 -37t106.5 -11h46q62 0 104 11.5t68 38t37.5 68.5t11.5 104v95h60v-143q0 -33 -7 -72.5t-30.5 -73t-68 -56t-118.5 -22.5
h-328q-44 0 -84.5 17.5t-71.5 48t-49.5 71t-18.5 87.5v654q0 46 18.5 87t50 71.5t71.5 48t84 17.5h328q74 0 118.5 -22.5t68 -56t30.5 -73t7 -72.5v-71h-60zM802 1183l-281 185l-281 -185l201 266q14 23 31.5 26.5t47.5 3.5h2q30 0 47.5 -3.5t31.5 -26.5z" />
    <glyph glyph-name="Tilde" horiz-adv-x="784" 
d="M109 1355q21 33 50.5 53t63.5 27t69.5 2t67.5 -21q37 -19 74 -29.5t83 -10.5q47 2 84.5 16.5t68.5 48.5q23 -32 5 -57q-15 -22 -36.5 -44t-43.5 -38q-41 -26 -90 -27.5t-88 21.5q-22 12 -42.5 26t-41 26t-43 19.5t-49.5 6.5q-45 0 -75 -21.5t-57 -53.5q-8 15 -9 28.5
t9 27.5z" />
    <glyph glyph-name="Cedilla" horiz-adv-x="839" 
d="M341 0q0 -29 5.5 -43.5t18.5 -22t33 -9.5t49 -5q20 0 43 1.5t44 -1.5q33 -3 69 -20t66.5 -44t50 -62t19.5 -75q0 -39 -17.5 -73t-46.5 -59.5t-66.5 -40.5t-78.5 -16h-8h-213q-69 1 -110.5 23.5t-63 55t-28.5 70t-7 69.5h61q6 -88 49.5 -129t135.5 -41q52 1 88 21.5
t56 50.5t23 65.5t-11.5 67t-46.5 55t-82 29.5q-36 3 -53.5 11t-24 22.5t-6 38t0.5 58.5v3h51z" />
    <glyph glyph-name="ij" unicode="&#x133;" horiz-adv-x="411" 
d="M215 1470q25 0 48 -10t40 -27t27 -40t10 -49t-10 -49.5t-27 -41t-40 -28t-48 -10.5q-26 0 -49 10.5t-40.5 28t-28 41t-10.5 49.5q0 25 10.5 48t28 40.5t40.5 27.5t49 10zM326 232q0 -65 -10.5 -109.5t-36 -71.5t-69 -39t-109.5 -12v881q0 67 12 112.5t38.5 73.5
t69.5 40.5t105 12.5v-888zM780 -100q0 -46 -5.5 -86.5t-28 -71t-67 -48t-122.5 -17.5h-149q-2 0 -2 2t2 2q55 0 85 27t43.5 67.5t16 87t2.5 85.5v935q0 68 11.5 114t38 73.5t69.5 39.5t106 12v-1222zM667 1471q26 0 49 -10.5t40.5 -27.5t27.5 -40.5t10 -48.5
q0 -27 -10 -50.5t-27.5 -41.5t-40.5 -28t-49 -10t-49 10.5t-41 28t-28.5 41t-10.5 50.5q0 25 10.5 48t28.5 40.5t41 28t49 10.5z" />
    <glyph glyph-name="itilde" unicode="&#x129;" horiz-adv-x="382" 
d="M303 211q0 -65 -10.5 -109.5t-36 -71.5t-69 -39t-109.5 -12v902q0 67 12 112.5t38.5 73.5t69.5 40.5t105 12.5v-909zM-92 1337q21 33 50.5 53t63.5 27t69.5 2t67.5 -21q37 -19 74 -29.5t83 -10.5q47 2 84.5 16.5t68.5 48.5q23 -32 5 -57q-15 -22 -36.5 -44t-43.5 -38
q-41 -26 -90 -27.5t-88 21.5q-22 12 -42.5 26t-41 26t-43 19.5t-49.5 6.5q-45 0 -75 -21.5t-57 -53.5q-8 15 -9 28.5t9 27.5z" />
    <glyph glyph-name="iogonek" unicode="&#x12f;" horiz-adv-x="439" 
d="M350 232q-1 -32 -2 -71t-3.5 -79t-8 -78t-15 -68t-23 -49t-32.5 -20q-50 -6 -82 -29.5t-46.5 -55t-11.5 -67t23 -65.5t56 -50.5t88 -21.5q92 0 135.5 41t49.5 129h61q0 -32 -7 -69.5t-28.5 -70t-63 -55t-110.5 -23.5h-221q-41 1 -78.5 16t-66.5 40.5t-46.5 59.5t-17.5 73
q0 40 19.5 75t50 62t66.5 44t69 20q21 3 44 1.5t43 -1.5q18 2 32.5 7.5t26 18t19.5 34t14 55.5q-51 -35 -159 -35v881q0 67 12 112.5t38.5 73.5t69.5 40.5t105 12.5v-888zM249 1470q25 0 48 -10t40 -27t27 -40t10 -49t-10 -49.5t-27 -41t-40 -28t-48 -10.5q-26 0 -49 10.5
t-40.5 28t-28 41t-10.5 49.5q0 25 10.5 48t28 40.5t40.5 27.5t49 10z" />
    <glyph glyph-name="imacron" unicode="&#x12b;" horiz-adv-x="376" 
d="M296 232q0 -65 -10.5 -109.5t-36 -71.5t-69 -39t-109.5 -12v881q0 67 12 112.5t38.5 73.5t69.5 40.5t105 12.5v-888zM-100 1363q0 24 6 36.5t20 17.5t37 5h58h455q0 -24 -6 -36t-20 -17t-37.5 -5.5t-57.5 -0.5h-455z" />
    <glyph glyph-name="jcircumflex" unicode="&#x135;" horiz-adv-x="487" 
d="M345 -100q0 -46 -5.5 -86.5t-28 -71t-67 -48t-122.5 -17.5h-149q-2 0 -2 2t2 2q55 0 85 27t43.5 67.5t16 87t2.5 85.5v935q0 68 11.5 114t38 73.5t69.5 39.5t106 12v-1222zM512 1192l-281 185l-281 -185l201 266q14 23 31.5 26.5t47.5 3.5h2q30 0 47.5 -3.5t31.5 -26.5z
" />
    <glyph glyph-name="kcommaaccent" unicode="&#x137;" horiz-adv-x="993" 
d="M325 1442v-894l420 480q8 9 18.5 21t25 23t33.5 18.5t43 7.5h51h4q0 -4 -2 -4q-1 -1 -2 0q-17 0 -30.5 -6.5t-25 -16t-22.5 -21.5t-21 -22l-312 -356l388 -577q8 -12 19 -27.5t24.5 -29.5t29 -24t31.5 -10h3q0 -4 -3 -4h-118h-81.5t-69.5 10.5t-64 36.5t-64 77l-275 419
v-309q0 -66 -10.5 -110.5t-36.5 -72t-69 -39.5t-109 -12v1202q0 68 12 114t38.5 74t69.5 40t105 12zM405 -504q33 32 60 74t37 90q-21 0 -40.5 1.5t-37.5 8t-33 19.5t-27 34t-14 47t5 50.5t22.5 46t38.5 35.5t50 16.5t52.5 -5.5t46.5 -25.5t33 -43.5q22 -52 11 -108
t-43 -106t-78 -90.5t-92 -62.5q0 8 1 9.5t8 9.5z" />
    <glyph glyph-name="kgreenlandic" unicode="&#x138;" horiz-adv-x="993" 
d="M325 1126v-578l420 480q8 9 18.5 21t25 23t33.5 18.5t43 7.5h51h4q0 -4 -2 -4q-1 -1 -2 0q-17 0 -30.5 -6.5t-25 -16t-22.5 -21.5t-21 -22l-319 -362l388 -571q8 -11 19.5 -27t25 -30t28.5 -24t31 -10h3q0 -4 -3 -4h-111h-81.5t-69.5 10.5t-64 36.5t-64 77l-275 419v-309
q0 -66 -10.5 -110.5t-36.5 -72t-69 -39.5t-109 -12v886q0 68 12 114t38.5 74t69.5 40t105 12z" />
    <glyph glyph-name="Grave" horiz-adv-x="525" 
d="M177 1792q42 -5 63 -27q22 -22 37.5 -57t36 -78t50.5 -90t80 -93h-31q-45 45 -90 72t-85.5 45.5t-74.5 33t-55 35.5q-11 12 -17.5 29t-7.5 35.5t5 36.5t20 32q27 29 69 26z" />
    <glyph glyph-name="Circumflex" horiz-adv-x="762" 
d="M662 1403l-281 185l-281 -185l201 266q14 23 31.5 26.5t47.5 3.5h2q30 0 47.5 -3.5t31.5 -26.5z" />
    <glyph glyph-name="dieresisgrave" horiz-adv-x="928" 
d="M600 1812q43 -5 64 -27t37 -57t36 -78t50.5 -90t80.5 -93h-31q-45 45 -90 72t-86 45.5t-74.5 33t-54.5 35.5q-12 12 -18.5 29t-7 35.5t5.5 36.5t20 32q27 29 68 26zM209 1812q20 -2 36 -8.5t28 -18.5q21 -22 36.5 -57t36 -78t50.5 -90t80 -93h-31q-44 45 -89.5 72
t-86 45.5t-74 33t-54.5 35.5q-12 12 -18.5 29t-7.5 35.5t5.5 36.5t20.5 32q26 29 68 26z" />
    <glyph glyph-name="dblgrave" horiz-adv-x="876" 
d="M548 1519q43 -5 64 -27t37 -57t36 -78t50.5 -90t80.5 -93h-31q-45 45 -90 72t-86 45.5t-74.5 33t-54.5 35.5q-12 12 -18.5 29t-7 35.5t5.5 36.5t20 32q27 29 68 26zM157 1519q20 -2 36 -8.5t28 -18.5q21 -22 36.5 -57t36 -78t50.5 -90t80 -93h-31q-44 45 -89.5 72
t-86 45.5t-74 33t-54.5 35.5q-12 12 -18.5 29t-7.5 35.5t5.5 36.5t20.5 32q26 29 68 26z" />
    <glyph glyph-name="dblGrave" horiz-adv-x="876" 
d="M548 1807q43 -5 64 -27t37 -57t36 -78t50.5 -90t80.5 -93h-31q-45 45 -90 72t-86 45.5t-74.5 33t-54.5 35.5q-12 12 -18.5 29t-7 35.5t5.5 36.5t20 32q27 29 68 26zM157 1807q20 -2 36 -8.5t28 -18.5q21 -22 36.5 -57t36 -78t50.5 -90t80 -93h-31q-44 45 -89.5 72
t-86 45.5t-74 33t-54.5 35.5q-12 12 -18.5 29t-7.5 35.5t5.5 36.5t20.5 32q26 29 68 26z" />
    <glyph glyph-name="amacron" unicode="&#x101;" horiz-adv-x="1076" 
d="M702 734v95q0 119 -57 170t-176 51q-59 0 -100.5 -11.5t-67.5 -38t-37.5 -68.5t-11.5 -103v-24h-58v164q0 46 3 72t15 39t35.5 16.5t65.5 3.5h389q41 0 80.5 -19.5t71 -51t50.5 -71.5t19 -81v-653q0 -45 -18 -84.5t-49 -69.5t-71 -48.5t-83 -21.5h-381q-46 0 -86 17.5
t-70 48t-47.5 71.5t-17.5 87v287q0 46 17.5 86.5t47.5 71t70 48t86 17.5h381zM702 684h-153q-63 0 -106.5 -11.5t-70.5 -37.5t-39 -68.5t-12 -103.5v-190q0 -57 10 -97t32 -66.5t57.5 -40.5t86.5 -18q54 3 91 16.5t60.5 40t33.5 67t10 98.5v411zM236 1363q0 24 6 36.5
t20 17.5t37 5h58h455q0 -24 -6 -36t-20 -17t-37.5 -5.5t-57.5 -0.5h-455z" />
    <glyph glyph-name="abreve" unicode="&#x103;" horiz-adv-x="1076" 
d="M702 734v95q0 119 -57 170t-176 51q-59 0 -100.5 -11.5t-67.5 -38t-37.5 -68.5t-11.5 -103v-24h-58v164q0 46 3 72t15 39t35.5 16.5t65.5 3.5h389q41 0 80.5 -19.5t71 -51t50.5 -71.5t19 -81v-653q0 -45 -18 -84.5t-49 -69.5t-71 -48.5t-83 -21.5h-381q-46 0 -86 17.5
t-70 48t-47.5 71.5t-17.5 87v287q0 46 17.5 86.5t47.5 71t70 48t86 17.5h381zM702 684h-153q-63 0 -106.5 -11.5t-70.5 -37.5t-39 -68.5t-12 -103.5v-190q0 -57 10 -97t32 -66.5t57.5 -40.5t86.5 -18q54 3 91 16.5t60.5 40t33.5 67t10 98.5v411zM686 1420q0 -25 -6 -55
t-24.5 -56.5t-52.5 -44t-90 -17.5t-89.5 18t-51 44.5t-23 56.5t-5.5 54h55q0 -21 4 -41t16 -36.5t34.5 -26.5t59.5 -10q38 0 61.5 10.5t36 27t16.5 37t4 39.5h55z" />
    <glyph glyph-name="aogonek" unicode="&#x105;" horiz-adv-x="1076" 
d="M664 0v-3q0 -35 0.5 -58.5t-6 -38t-24 -22.5t-53.5 -11q-50 -6 -82 -29.5t-46.5 -55t-11.5 -67t23 -65.5t56 -50.5t88 -21.5q92 0 135.5 41t49.5 129h61q0 -32 -7 -69.5t-28.5 -70t-63 -55t-110.5 -23.5h-221q-41 1 -78.5 16t-66.5 40.5t-46.5 59.5t-17.5 73
q0 40 19.5 75t50 62t66.5 44t69 20q21 3 44 1.5t43 -1.5q29 3 49 5t33 9.5t18.5 22t5.5 43.5h-292q-46 0 -86 17.5t-70 48t-47.5 71.5t-17.5 87v287q0 46 17.5 86.5t47.5 71t70 48t86 17.5h381v95q0 119 -57 170t-176 51q-59 0 -100.5 -11.5t-67.5 -38t-37.5 -68.5
t-11.5 -103v-24h-58v164q0 46 3 72t15 39t35.5 16.5t65.5 3.5h389q41 0 80.5 -19.5t71 -51t50.5 -71.5t19 -81v-653q0 -45 -18 -84.5t-49 -69.5t-71 -48.5t-83 -21.5h-38zM702 684h-153q-63 0 -106.5 -11.5t-70.5 -37.5t-39 -68.5t-12 -103.5v-190q0 -57 10 -97t32 -66.5
t57.5 -40.5t86.5 -18q54 3 91 16.5t60.5 40t33.5 67t10 98.5v411z" />
    <glyph glyph-name="dcaron" unicode="&#x10f;" horiz-adv-x="1271" 
d="M699 272q0 -113 -42.5 -167t-145.5 -54q-52 0 -88 13.5t-58 41t-32 69t-10 97.5v559q0 62 11.5 104.5t38 68.5t69.5 37t106 11h151v-780zM698 0q54 1 96.5 12.5t71.5 35.5t44 62.5t15 93.5v1238q-63 0 -106.5 -12t-70 -40t-38 -74t-11.5 -113v-101h-376
q-46 0 -86.5 -17.5t-71 -47.5t-48 -71t-17.5 -87v-675q0 -44 18.5 -81.5t49.5 -64.5t71 -42.5t84 -15.5h375zM1020 1051q33 32 60 74t37 90q-21 0 -40.5 1.5t-37.5 8t-33 19.5t-27 34t-14 47t5 50.5t22.5 46t38.5 35.5t50 16.5t52.5 -5.5t46.5 -25.5t33 -43.5
q22 -52 11 -108t-43 -106t-78 -90.5t-92 -62.5q0 8 1 9.5t8 9.5z" />
    <glyph glyph-name="dcroat" unicode="&#x111;" horiz-adv-x="1058" 
d="M323 0q-44 0 -84 15.5t-71 42.5t-49.5 64.5t-18.5 81.5v675q0 46 17.5 87t48 71t71 47.5t86.5 17.5h376v101v29h-160q0 24 6 36.5t20 17.5t37 5h58h45q7 42 23 70.5t42.5 46.5t64.5 26t90 8v-151h133q0 -24 -6 -36t-20 -17t-37.5 -5.5t-57.5 -0.5h-12v-1028
q0 -55 -15 -93.5t-44 -62.5t-71.5 -35.5t-96.5 -12.5h-375zM699 1052h-151q-63 0 -106 -11t-69.5 -37t-38 -68.5t-11.5 -104.5v-559q0 -56 10 -97.5t32 -69t58 -41t88 -13.5q103 0 145.5 54t42.5 167v780z" />
    <glyph glyph-name="aeacute" unicode="&#x1fd;" horiz-adv-x="1678" 
d="M923 683v-412q0 -62 12 -105t38.5 -69t70 -37.5t106.5 -11.5h92q63 0 106 11.5t70 37.5t38.5 69t11.5 105v95h57v-144q0 -33 -7 -72t-30 -72.5t-67 -55.5t-118 -22h-380q-29 0 -56.5 9.5t-53.5 26.5q-26 -16 -54 -25t-57 -11h-381q-46 0 -86 17.5t-70 48t-47.5 71.5
t-17.5 87v287q0 46 17.5 86.5t47.5 71t70 48t86 17.5h381v95q0 119 -57 170t-176 51q-59 0 -100.5 -11.5t-67.5 -38t-37.5 -68.5t-11.5 -103v-24h-58v164q0 46 3 72t15 39t35.5 16.5t65.5 3.5h389q29 0 57 -10t54 -27q50 30 110 35h380q46 0 86.5 -17.5t70.5 -48t47.5 -71
t17.5 -85.5v-193h-602zM702 684h-153q-63 0 -106.5 -11.5t-70.5 -37.5t-39 -68.5t-12 -103.5v-190q0 -57 10 -97t32 -66.5t57.5 -40.5t86.5 -18q54 3 91 16.5t60.5 40t33.5 67t10 98.5v411zM1113 1046q-104 0 -147 -52.5t-43 -166.5v-95h380v95q0 57 -10 98.5t-32.5 68
t-58.5 39.5t-89 13zM847 1518q42 3 69 -26q14 -14 20 -32t5 -36.5t-7.5 -35.5t-17.5 -29q-21 -21 -55 -35.5t-74.5 -33t-85.5 -45.5t-90 -72h-31q50 46 80 93t50.5 90t36 78t37.5 57q21 22 63 27z" />
    <glyph glyph-name="ccircumflex" unicode="&#x109;" horiz-adv-x="976" 
d="M788 1185l-281 185l-281 -185l201 266q14 23 31.5 26.5t47.5 3.5h2q30 0 47.5 -3.5t31.5 -26.5zM816 807q-8 52 -32 96.5t-61 77.5t-85.5 51.5t-105.5 18.5t-97 -11.5t-65 -38t-36.5 -69t-11.5 -103.5v-557q0 -63 11.5 -105.5t38.5 -68.5t70.5 -37t106.5 -11h46
q62 0 104 11.5t68 38t37.5 68.5t11.5 104v95h60v-143q0 -33 -7 -72.5t-30.5 -73t-68 -56t-118.5 -22.5h-328q-44 0 -84.5 17.5t-71.5 48t-49.5 71t-18.5 87.5v654q0 46 18.5 87t50 71.5t71.5 48t84 17.5h328q74 0 118.5 -22.5t68 -56t30.5 -73t7 -72.5v-71h-60z" />
    <glyph glyph-name="cdotaccent" unicode="&#x10b;" horiz-adv-x="976" 
d="M876 807v71q0 33 -7 72.5t-30.5 73t-68 56t-118.5 22.5h-328q-44 0 -84 -17.5t-71.5 -48t-50 -71.5t-18.5 -87v-654q0 -47 18.5 -87.5t49.5 -71t71.5 -48t84.5 -17.5h328q74 0 118.5 22.5t68 56t30.5 73t7 72.5v143h-60v-95q0 -62 -11.5 -104t-37.5 -68.5t-68 -38
t-104 -11.5h-46q-63 0 -106.5 11t-70.5 37t-38.5 68.5t-11.5 105.5v557q0 61 11.5 103.5t36.5 69t65 38t97 11.5t105.5 -18.5t85.5 -51.5t61 -77.5t32 -96.5h60zM508 1478q54 0 93.5 -39.5t39.5 -92.5q0 -55 -38.5 -93t-94.5 -38q-55 0 -92 38t-37 93q0 53 38.5 92.5
t90.5 39.5z" />
    <glyph glyph-name="gcircumflex" unicode="&#x11d;" horiz-adv-x="1080" 
d="M159 -103q4 -47 19 -79.5t42 -52.5t68 -29t97 -9h92q106 0 163.5 34t57.5 119v120h-387q-44 0 -82.5 18t-67 48.5t-45 70.5t-16.5 85v658q0 45 15.5 85.5t43.5 71t67 48t85 17.5h616v-1222q0 -56 -15 -95t-44 -63t-72 -34.5t-98 -10.5h-387q-70 0 -111.5 22.5t-63.5 55.5
t-29 71.5t-7 70.5h59zM511 51q103 0 145 53t42 166v782h-148q-63 0 -106.5 -11.5t-70.5 -37.5t-39 -68.5t-12 -105.5v-559q0 -113 43 -166t146 -53zM819 1187l-281 185l-281 -185l201 266q14 23 31.5 26.5t47.5 3.5h2q30 0 47.5 -3.5t31.5 -26.5z" />
    <glyph glyph-name="gcommaaccent" unicode="&#x123;" horiz-adv-x="1080" 
d="M100 -103q0 -32 7 -70.5t29 -71.5t63.5 -55.5t111.5 -22.5h387q55 0 98 10.5t72 34.5t44 63t15 95v1222h-616q-46 0 -85 -17.5t-67 -48t-43.5 -71t-15.5 -85.5v-658q0 -45 16.5 -85t45 -70.5t67 -48.5t82.5 -18h387v-120q0 -85 -57.5 -119t-163.5 -34h-92q-56 0 -97 9
t-68 29t-42 52.5t-19 79.5h-59zM511 51q-103 0 -146 53t-43 166v559q0 63 12 105.5t39 68.5t70.5 37.5t106.5 11.5h148v-782q0 -113 -42 -166t-145 -53zM581 1637q-33 -32 -60 -74t-37 -90q21 0 40.5 -1.5t37.5 -8t33 -19.5t27 -34t14 -47t-5 -50.5t-22.5 -46.5t-38.5 -35
q-23 -14 -50 -16.5t-52.5 5.5t-46.5 25.5t-33 43.5q-23 52 -11.5 108t43.5 106t77.5 90.5t92.5 62.5q0 -8 -1 -9.5t-8 -9.5z" />
    <glyph glyph-name="Macron" horiz-adv-x="776" 
d="M100 1553q0 24 6 36.5t20 17.5t37 5h58h455q0 -24 -6 -36t-20 -17t-37.5 -5.5t-57.5 -0.5h-455z" />
    <glyph glyph-name="Ogonek" horiz-adv-x="839" 
d="M549 0v-3q0 -35 0.5 -58.5t-6 -38t-24 -22.5t-53.5 -11q-50 -6 -82 -29.5t-46.5 -55t-11.5 -67t23 -65.5t56 -50.5t88 -21.5q92 0 135.5 41t49.5 129h61q0 -32 -7 -69.5t-28.5 -70t-63 -55t-110.5 -23.5h-213h-8q-41 1 -78.5 16t-66.5 40.5t-46.5 59.5t-17.5 73
q0 40 19.5 75t50 62t66.5 44t69 20q21 3 44 1.5t43 -1.5q29 3 49 5t33 9.5t18.5 22t5.5 43.5h51z" />
    <glyph glyph-name="T_h" horiz-adv-x="1870" 
d="M0 1290q0 46 2.5 72t13.5 39t35 16.5t67 3.5h1054v-319h372q46 0 87 -17.5t72 -47.5t49 -71t18 -87v-646q0 -66 -10.5 -110.5t-36 -71.5t-69.5 -39t-110 -12v830q0 114 -42.5 167.5t-145.5 53.5q-98 0 -140.5 -51t-43.5 -159v-608q0 -66 -10.5 -110.5t-36 -71.5
t-69.5 -39t-110 -12v1183q0 57 8 98t27 70q-40 6 -83 9.5t-84.5 5.5t-79.5 2.5t-67 0.5h-79v-1131q0 -67 -11.5 -113t-38.5 -74t-70 -40t-106 -12v1370h-78q-63 0 -106 -11t-70 -37t-38.5 -68t-11.5 -104v-142h-58v283v0z" />
    <glyph glyph-name="T_h.caron" horiz-adv-x="1870" 
d="M0 1290v-283h58v142q0 62 11.5 104t38.5 68t70 37t106 11h78v-1370q63 0 106 12t70 40t38.5 74t11.5 113v1131h79q29 0 67 -0.5t79.5 -2.5t84.5 -5.5t83 -9.5q-19 -29 -27 -70t-8 -98v-1183q66 0 110 12t69.5 39t36 71.5t10.5 110.5v608q1 108 43.5 159t140.5 51
q103 0 145.5 -53.5t42.5 -167.5v-830q66 0 110 12t69.5 39t36 71.5t10.5 110.5v646q0 46 -18 87t-49 71t-72 47.5t-87 17.5h-372v319h-1054q-43 0 -67 -3.5t-35 -16.5t-13.5 -39t-2.5 -72zM960 1588q-14 -23 -31.5 -26.5t-47.5 -3.5h-2q-30 0 -47.5 3.5t-31.5 26.5l-201 266
l281 -185l281 185z" />
    <glyph glyph-name="T_h.commaaccent" horiz-adv-x="1870" 
d="M0 1290q0 46 2.5 72t13.5 39t35 16.5t67 3.5h1054v-319h372q46 0 87 -17.5t72 -47.5t49 -71t18 -87v-646q0 -66 -10.5 -110.5t-36 -71.5t-69.5 -39t-110 -12v830q0 114 -42.5 167.5t-145.5 53.5q-98 0 -140.5 -51t-43.5 -159v-608q0 -66 -10.5 -110.5t-36 -71.5
t-69.5 -39t-110 -12v1183q0 57 8 98t27 70q-40 6 -83 9.5t-84.5 5.5t-79.5 2.5t-67 0.5h-79v-1131q0 -67 -11.5 -113t-38.5 -74t-70 -40t-106 -12v1370h-78q-63 0 -106 -11t-70 -37t-38.5 -68t-11.5 -104v-142h-58v283zM972 -507q33 32 60 74t37 90q-21 0 -40.5 1.5t-37.5 8
t-33 19.5t-27 34t-14 47t5 50.5t22.5 46t38.5 35.5t50 16.5t52.5 -5.5t46.5 -25.5t33 -43.5q22 -52 11 -108t-43 -106t-78 -90.5t-92 -62.5q0 8 1 9.5t8 9.5z" />
    <glyph glyph-name="c_t" horiz-adv-x="1526" 
d="M1083 1099v103q0 67 11.5 113t38.5 74t70 40t106 12v-342h217v-49h-217v-780q0 -24 -0.5 -53t1.5 -58.5t8 -57t19.5 -49t35 -34.5t55.5 -13q4 0 4 -3q0 -2 -4 -2h-119q-78 0 -123 19t-68 54t-29 85t-6 112v780l-562 -1q-54 -1 -92 -13.5t-61.5 -38.5t-34.5 -68t-11 -102
v-555q0 -63 11.5 -105.5t38.5 -68.5t70.5 -37t106.5 -11h46q62 0 104 11.5t68 38t37.5 68.5t11.5 104v95h60v-143q0 -33 -7 -72.5t-30.5 -73t-68 -56t-118.5 -22.5h-328q-47 0 -87.5 17.5t-71 48t-48 71t-17.5 87.5v652q0 46 17.5 87t48 71t71 47.5t87.5 17.5h759z" />
    <glyph glyph-name="ebreve" unicode="&#x115;" horiz-adv-x="1023" 
d="M511 1050q-104 0 -147 -52.5t-43 -166.5v-95h380v95q0 57 -10 98.5t-32.5 68t-58.5 39.5t-89 13zM321 687v-416q0 -62 12 -105t38.5 -69t70 -37.5t106.5 -11.5h11q63 0 106 11.5t70 37.5t38.5 69t11.5 105v95h57v-144q0 -33 -7 -72t-30 -72.5t-67 -55.5t-118 -22h-299
q-40 0 -79.5 19t-71 50.5t-51 71t-19.5 81.5v658q0 44 18 83t49 69t70.5 48.5t83.5 21.5h380q46 0 86.5 -17.5t70.5 -48t47.5 -71t17.5 -85.5v-193h-602zM690 1421q0 -25 -6 -55t-24.5 -56.5t-52.5 -44t-90 -17.5t-89.5 18t-51 44.5t-23 56.5t-5.5 54h55q0 -21 4 -41
t16 -36.5t34.5 -26.5t59.5 -10q38 0 61.5 10.5t36 27t16.5 37t4 39.5h55z" />
    <glyph glyph-name="ecaron" unicode="&#x11b;" horiz-adv-x="1023" 
d="M511 1050q-104 0 -147 -52.5t-43 -166.5v-95h380v95q0 57 -10 98.5t-32.5 68t-58.5 39.5t-89 13zM321 687v-416q0 -62 12 -105t38.5 -69t70 -37.5t106.5 -11.5h11q63 0 106 11.5t70 37.5t38.5 69t11.5 105v95h57v-144q0 -33 -7 -72t-30 -72.5t-67 -55.5t-118 -22h-299
q-40 0 -79.5 19t-71 50.5t-51 71t-19.5 81.5v658q0 44 18 83t49 69t70.5 48.5t83.5 21.5h380q46 0 86.5 -17.5t70.5 -48t47.5 -71t17.5 -85.5v-193h-602zM591 1293q-14 -23 -31.5 -26.5t-47.5 -3.5h-2q-30 0 -47.5 3.5t-31.5 26.5l-201 266l281 -185l281 185z" />
    <glyph glyph-name="gdotaccent" unicode="&#x121;" horiz-adv-x="1080" 
d="M100 -103q0 -32 7 -70.5t29 -71.5t63.5 -55.5t111.5 -22.5h387q55 0 98 10.5t72 34.5t44 63t15 95v1222h-616q-46 0 -85 -17.5t-67 -48t-43.5 -71t-15.5 -85.5v-658q0 -45 16.5 -85t45 -70.5t67 -48.5t82.5 -18h387v-120q0 -85 -57.5 -119t-163.5 -34h-92q-56 0 -97 9
t-68 29t-42 52.5t-19 79.5h-59zM511 51q-103 0 -146 53t-43 166v559q0 63 12 105.5t39 68.5t70.5 37.5t106.5 11.5h148v-782q0 -113 -42 -166t-145 -53zM526 1479q54 0 93.5 -39.5t39.5 -92.5q0 -55 -38.5 -93t-94.5 -38q-55 0 -92 38t-37 93q0 53 38.5 92.5t90.5 39.5z" />
    <glyph glyph-name="Dotaccent" horiz-adv-x="302" 
d="M150 1795q50 0 87.5 -37t37.5 -89q0 -53 -35.5 -89t-89.5 -36q-52 0 -87.5 36.5t-35.5 88.5q0 51 36.5 88.5t86.5 37.5z" />
    <glyph glyph-name="edotaccent" unicode="&#x117;" horiz-adv-x="1023" 
d="M511 1050q-104 0 -147 -52.5t-43 -166.5v-95h380v95q0 57 -10 98.5t-32.5 68t-58.5 39.5t-89 13zM321 687v-416q0 -62 12 -105t38.5 -69t70 -37.5t106.5 -11.5h11q63 0 106 11.5t70 37.5t38.5 69t11.5 105v95h57v-144q0 -33 -7 -72t-30 -72.5t-67 -55.5t-118 -22h-299
q-40 0 -79.5 19t-71 50.5t-51 71t-19.5 81.5v658q0 44 18 83t49 69t70.5 48.5t83.5 21.5h380q46 0 86.5 -17.5t70.5 -48t47.5 -71t17.5 -85.5v-193h-602zM499 1478q54 0 93.5 -39.5t39.5 -92.5q0 -55 -38.5 -93t-94.5 -38q-55 0 -92 38t-37 93q0 53 38.5 92.5t90.5 39.5z
" />
    <glyph glyph-name="emacron" unicode="&#x113;" horiz-adv-x="1023" 
d="M511 1050q-104 0 -147 -52.5t-43 -166.5v-95h380v95q0 57 -10 98.5t-32.5 68t-58.5 39.5t-89 13zM321 687v-416q0 -62 12 -105t38.5 -69t70 -37.5t106.5 -11.5h11q63 0 106 11.5t70 37.5t38.5 69t11.5 105v95h57v-144q0 -33 -7 -72t-30 -72.5t-67 -55.5t-118 -22h-299
q-40 0 -79.5 19t-71 50.5t-51 71t-19.5 81.5v658q0 44 18 83t49 69t70.5 48.5t83.5 21.5h380q46 0 86.5 -17.5t70.5 -48t47.5 -71t17.5 -85.5v-193h-602zM223 1363q0 24 6 36.5t20 17.5t37 5h58h455q0 -24 -6 -36t-20 -17t-37.5 -5.5t-57.5 -0.5h-455z" />
    <glyph glyph-name="eogonek" unicode="&#x119;" horiz-adv-x="1023" 
d="M641 0v-3q0 -35 0.5 -58.5t-6 -38t-24 -22.5t-53.5 -11q-50 -6 -82 -29.5t-46.5 -55t-11.5 -67t23 -65.5t56 -50.5t88 -21.5q92 0 135.5 41t49.5 129h61q0 -32 -7 -69.5t-28.5 -70t-63 -55t-110.5 -23.5h-221q-41 1 -78.5 16t-66.5 40.5t-46.5 59.5t-17.5 73
q0 40 19.5 75t50 62t66.5 44t69 20q21 3 44 1.5t43 -1.5q29 3 49 5t33 9.5t18.5 22t5.5 43.5h-269q-40 0 -79.5 19t-71 50.5t-51 71t-19.5 81.5v658q0 44 18 83t49 69t70.5 48.5t83.5 21.5h380q46 0 86.5 -17.5t70.5 -48t47.5 -71t17.5 -85.5v-193h-602v-416q0 -62 12 -105
t38.5 -69t70 -37.5t106.5 -11.5h11q63 0 106 11.5t70 37.5t38.5 69t11.5 105v95h57v-144q0 -33 -6.5 -70.5t-28.5 -70.5t-63 -56t-110 -25h7zM511 1050q-104 0 -147 -52.5t-43 -166.5v-95h380v95q0 57 -10 98.5t-32.5 68t-58.5 39.5t-89 13z" />
    <glyph glyph-name="Kcommaaccent.alt" horiz-adv-x="1228" 
d="M613 -302q-21 0 -40.5 1.5t-37.5 8t-33 19.5t-27 34t-14 47t5 50.5t22.5 46t38.5 35.5t50 16.5t52.5 -5.5t46.5 -25.5t33 -43.5q24 -56 12.5 -112t-45 -105.5t-81.5 -87t-97 -55.5q24 20 42.5 39.5t33 40t24 44t15.5 52.5zM378 740l565 640l19.5 19.5t25 20t33.5 15.5
t44 6h65q5 0 4 -2.5t-4 -2.5q-38 0 -62 -13t-51 -43l-468 -525l560 -755q12 -17 25 -34t27.5 -30.5t32 -22.5t39.5 -9q2 0 2 -3q0 -1 -2 -1h-183q-47 0 -76.5 2t-53.5 14t-47 37.5t-56 72.5l-439 608v-503q0 -65 -10.5 -109t-36 -71t-69 -39t-109.5 -12v1203q0 67 12 112.5
t38.5 73.5t69.5 40t105 12v-701z" />
    <glyph glyph-name="uring" unicode="&#x16f;" 
d="M680 0q72 0 119.5 18.5t75.5 49t39.5 70t11.5 82.5v900q-20 0 -31.5 -6t-17 -19.5t-7 -36.5t-1.5 -57v-781q0 -90 -57.5 -130t-169.5 -40h-89q-63 0 -106 10t-69.5 31.5t-38.5 54.5t-12 78v896q-66 0 -110 -12t-70 -39.5t-36.5 -72t-10.5 -109.5v-620q0 -60 8.5 -109
t33 -84.5t68 -54.5t113.5 -19h357zM748 1384q0 -25 -6 -54.5t-24.5 -55t-52.5 -42.5t-90 -17t-89.5 17.5t-51 43t-23 55t-5.5 53.5v3q0 24 5.5 54t23 56.5t51 44.5t89.5 18t90 -17.5t52.5 -44t24.5 -57.5t6 -57zM693 1387q0 19 -4 39.5t-16.5 37t-36 27t-61.5 10.5
q-37 0 -59.5 -10t-34.5 -26.5t-16 -36.5t-4 -41q0 -19 3.5 -39.5t15.5 -38t34.5 -28.5t60.5 -11q40 0 63.5 11t35.5 28.5t15.5 38t3.5 39.5z" />
    <glyph glyph-name="g.end" horiz-adv-x="1080" 
d="M159 -103q4 -47 19 -79.5t42 -52.5t68 -29t97 -9h92q106 0 163.5 34t57.5 119v120h-387q-44 0 -82.5 18t-67 48.5t-45 70.5t-16.5 85v656q0 45 15.5 85.5t43.5 71t67 48t85 17.5h616v-1220q0 -56 -15 -95t-44 -63t-72 -34.5t-98 -10.5h-387q-70 0 -111.5 22.5t-63.5 55.5
t-29 71.5t-7 70.5h59zM511 51q103 0 145 53t42 166v780h-148q-63 0 -106.5 -11.5t-70.5 -37.5t-39 -68.5t-12 -105.5v-557q0 -113 43 -166t146 -53z" />
    <glyph glyph-name="hbar" unicode="&#x127;" horiz-adv-x="1075" 
d="M324 1440v-138h195q0 -24 -6 -36t-20 -17t-37.5 -5.5t-57.5 -0.5h-74v-141h372q46 0 87 -17.5t72 -47.5t49 -71t18 -87v-646q0 -66 -10.5 -110.5t-36 -71.5t-69.5 -39t-110 -12v830q0 114 -42.5 167.5t-145.5 53.5h-184v-818q0 -66 -10.5 -110.5t-36 -71.5t-69.5 -39
t-110 -12v1200v21.5t1 21.5h-99q0 23 5.5 35t18.5 17.5t33 6t50 0.5q8 38 24.5 64.5t42.5 43t63 23.5t87 7z" />
    <glyph glyph-name="hcircumflex" unicode="&#x125;" horiz-adv-x="1077" 
d="M815 1188l-281 185l-208 -137v-134h372q46 0 87 -17.5t72 -47.5t49 -71t18 -87v-646q0 -66 -10.5 -110.5t-36 -71.5t-69.5 -39t-110 -12v830q0 114 -42.5 167.5t-145.5 53.5h-184v-818q0 -66 -10.5 -110.5t-36 -71.5t-69.5 -39t-110 -12v1200q0 68 11.5 114t38.5 74
t70 40t106 12v-156l128 170q14 23 31.5 26.5t47.5 3.5h2q30 0 47.5 -3.5t31.5 -26.5z" />
    <glyph glyph-name="lacute" unicode="&#x13a;" horiz-adv-x="522" 
d="M359 0q-78 0 -122.5 17.5t-67 48t-28 71.5t-5.5 87l-1 613v89t-11.5 86.5t-39 65.5t-81.5 26q-3 0 -3 3t3 3h135q78 0 122.5 -17.5t67 -48t28 -71.5t5.5 -87l1 -613v-89t11.5 -86.5t39 -65.5t81.5 -26q3 0 3 -3t-3 -3h-135zM273 1518q42 3 69 -26q14 -14 20 -32t5 -36.5
t-7.5 -35.5t-17.5 -29q-21 -21 -55 -35.5t-74.5 -33t-85.5 -45.5t-90 -72h-31q50 46 80 93t50.5 90t36 78t37.5 57q21 22 63 27z" />
    <glyph glyph-name="lcaron" unicode="&#x13e;" horiz-adv-x="733" 
d="M359 0h135q3 0 3 3t-3 3q-54 0 -81.5 26t-39 65.5t-11.5 86.5v89l-1 613q0 46 -5.5 87t-28 71.5t-67 48t-122.5 17.5h-135q-3 0 -3 -3t3 -3q54 0 81.5 -26t39 -65.5t11.5 -86.5v-89l1 -613q0 -46 5.5 -87t28 -71.5t67 -48t122.5 -17.5zM482 729q33 32 60 74t37 90
q-21 0 -40.5 1.5t-37.5 8t-33 19.5t-27 34t-14 47t5 50.5t22.5 46t38.5 35.5t50 16.5t52.5 -5.5t46.5 -25.5t33 -43.5q22 -52 11 -108t-43 -106t-78 -90.5t-92 -62.5q0 8 1 9.5t8 9.5z" />
    <glyph glyph-name="lcommaaccent" unicode="&#x13c;" horiz-adv-x="518" 
d="M326 1443v-1170v-89t11.5 -86.5t39 -65.5t81.5 -26q3 0 3 -3t-3 -3h-135q-78 0 -122.5 17.5t-67 48t-28 71.5t-5.5 87v980q0 67 12 113t38.5 74t69.5 40t106 12zM156 -508q33 32 60 74t37 90q-21 0 -40.5 1.5t-37.5 8t-33 19.5t-27 34t-14 47t5 50.5t22.5 46t38.5 35.5
t50 16.5t52.5 -5.5t46.5 -25.5t33 -43.5q22 -52 11 -108t-43 -106t-78 -90.5t-92 -62.5q0 8 1 9.5t8 9.5z" />
    <glyph glyph-name="ldot" unicode="&#x140;" horiz-adv-x="702" 
d="M359 0h135q3 0 3 3t-3 3q-54 0 -81.5 26t-39 65.5t-11.5 86.5v89l-1 613q0 46 -5.5 87t-28 71.5t-67 48t-122.5 17.5h-135q-3 0 -3 -3t3 -3q54 0 81.5 -26t39 -65.5t11.5 -86.5v-89l1 -613q0 -46 5.5 -87t28 -71.5t67 -48t122.5 -17.5zM588 1115q53 0 90 -37.5t37 -89.5
t-37.5 -90.5t-89.5 -38.5q-51 0 -89.5 39t-38.5 90t38 89t90 38z" />
    <glyph glyph-name="nacute" unicode="&#x144;" 
d="M673 1102q45 0 86 -17.5t72 -48t49.5 -71.5t18.5 -87v-644q0 -65 -10.5 -110t-36 -72.5t-69.5 -39.5t-110 -12v830q0 115 -44.5 168t-141.5 53h-186v-817q0 -65 -10.5 -110t-37 -72.5t-70.5 -39.5t-110 -12v1102h414h186zM572 1511q42 3 69 -26q14 -14 20 -32t5 -36.5
t-7.5 -35.5t-17.5 -29q-21 -21 -55 -35.5t-74.5 -33t-85.5 -45.5t-90 -72h-31q50 46 80 93t50.5 90t36 78t37.5 57q21 22 63 27z" />
    <glyph glyph-name="napostrophe" unicode="&#x149;" horiz-adv-x="1354" 
d="M948 1102h-186h-414v-1102q66 0 110 12t70.5 39.5t37 72.5t10.5 110v817h186q97 0 141.5 -53t44.5 -168v-830q66 0 110 12t69.5 39.5t36 72.5t10.5 110v644q0 46 -18.5 87t-49.5 71.5t-72 48t-86 17.5zM56 694q33 32 60 74t37 90q-21 0 -40.5 1.5t-37.5 8t-33 19.5
t-27 34t-14 47t5 50.5t22.5 46t38.5 35.5t50 16.5t52.5 -5.5t46.5 -25.5t33 -43.5q22 -52 11 -108t-43 -106t-78 -90.5t-92 -62.5q0 8 1 9.5t8 9.5z" />
    <glyph glyph-name="ncaron" unicode="&#x148;" 
d="M673 1102h-186h-414v-1102q66 0 110 12t70.5 39.5t37 72.5t10.5 110v817h186q97 0 141.5 -53t44.5 -168v-830q66 0 110 12t69.5 39.5t36 72.5t10.5 110v644q0 46 -18.5 87t-49.5 71.5t-72 48t-86 17.5zM593 1290q-14 -23 -31.5 -26.5t-47.5 -3.5h-2q-30 0 -47.5 3.5
t-31.5 26.5l-201 266l281 -185l281 185z" />
    <glyph glyph-name="ncommaaccent" unicode="&#x146;" 
d="M673 1102q45 0 86 -17.5t72 -48t49.5 -71.5t18.5 -87v-644q0 -65 -10.5 -110t-36 -72.5t-69.5 -39.5t-110 -12v830q0 115 -44.5 168t-141.5 53h-186v-817q0 -65 -10.5 -110t-37 -72.5t-70.5 -39.5t-110 -12v1102h414h186zM420 -508q33 32 60 74t37 90q-21 0 -40.5 1.5
t-37.5 8t-33 19.5t-27 34t-14 47t5 50.5t22.5 46t38.5 35.5t50 16.5t52.5 -5.5t46.5 -25.5t33 -43.5q22 -52 11 -108t-43 -106t-78 -90.5t-92 -62.5q0 8 1 9.5t8 9.5z" />
    <glyph glyph-name="obreve" unicode="&#x14f;" horiz-adv-x="1075" 
d="M679 1102h-335q-48 0 -92 -15t-77.5 -43.5t-54 -70.5t-20.5 -96v-653q0 -54 20.5 -95.5t54 -70t77.5 -43.5t92 -15h335q48 0 92 15t77.5 43.5t53.5 70t20 95.5v653q0 54 -20 96t-53.5 70.5t-77.5 43.5t-92 15zM322 830q0 57 10 99t32.5 69t58.5 40t88 13t88.5 -13t59 -40
t32.5 -69t10 -99v-558q0 -57 -10 -99t-32.5 -69t-59 -40t-88.5 -13t-88 13t-58.5 40t-32.5 69t-10 99v558zM704 1423q0 -25 -6 -55t-24.5 -56.5t-52.5 -44t-90 -17.5t-89.5 18t-51 44.5t-23 56.5t-5.5 54h55q0 -21 4 -41t16 -36.5t34.5 -26.5t59.5 -10q38 0 61.5 10.5t36 27
t16.5 37t4 39.5h55z" />
    <glyph glyph-name="ohungarumlaut" unicode="&#x151;" horiz-adv-x="1075" 
d="M679 1102q48 0 92 -15t77.5 -43.5t53.5 -70.5t20 -96v-653q0 -54 -20 -95.5t-53.5 -70t-77.5 -43.5t-92 -15h-335q-48 0 -92 15t-77.5 43.5t-54 70t-20.5 95.5v653q0 54 20.5 96t54 70.5t77.5 43.5t92 15h335zM322 272q0 -57 10 -99t32.5 -69t58.5 -40t88 -13t88.5 13
t59 40t32.5 69t10 99v558q0 57 -10 99t-32.5 69t-59 40t-88.5 13t-88 -13t-58.5 -40t-32.5 -69t-10 -99v-558zM494 1516q42 3 69 -26q14 -14 20 -32t5 -36.5t-7.5 -35.5t-17.5 -29q-21 -21 -55 -35.5t-74.5 -33t-85.5 -45.5t-90 -72h-31q50 46 80 93t50.5 90t36 78t37.5 57
q21 22 63 27zM743 1516q42 3 69 -26q14 -14 20 -32t5 -36.5t-7.5 -35.5t-17.5 -29q-21 -21 -55 -35.5t-74.5 -33t-85.5 -45.5t-90 -72h-31q50 46 80 93t50.5 90t36 78t37.5 57q21 22 63 27z" />
    <glyph glyph-name="omacron" unicode="&#x14d;" horiz-adv-x="1075" 
d="M679 1102h-335q-48 0 -92 -15t-77.5 -43.5t-54 -70.5t-20.5 -96v-653q0 -54 20.5 -95.5t54 -70t77.5 -43.5t92 -15h335q48 0 92 15t77.5 43.5t53.5 70t20 95.5v653q0 54 -20 96t-53.5 70.5t-77.5 43.5t-92 15zM322 830q0 57 10 99t32.5 69t58.5 40t88 13t88.5 -13t59 -40
t32.5 -69t10 -99v-558q0 -57 -10 -99t-32.5 -69t-59 -40t-88.5 -13t-88 13t-58.5 40t-32.5 69t-10 99v558zM223 1363q0 24 6 36.5t20 17.5t37 5h58h455q0 -24 -6 -36t-20 -17t-37.5 -5.5t-57.5 -0.5h-455z" />
    <glyph glyph-name="oslashacute" unicode="&#x1ff;" horiz-adv-x="1083" 
d="M679 1102q67 0 121 -27l11 17q13 25 23.5 37t23 16t29.5 3.5t43 -0.5l-72 -114q29 -29 46.5 -68t17.5 -89v-653q0 -54 -20 -95.5t-53.5 -70t-77.5 -43.5t-92 -15h-335q-67 0 -122 27q-13 -19 -23 -29.5t-22 -15t-29.5 -5.5t-45.5 -1l59 94q-29 28 -45 66.5t-16 87.5v653
q0 54 20.5 96t54 70.5t77.5 43.5t92 15h335zM511 51q52 0 88.5 13t59 40t32.5 69t10 99v513l-373 -592q12 -74 55 -108t128 -34zM322 322l373 587q-13 73 -56 107.5t-128 34.5q-52 0 -88 -13t-58.5 -40t-32.5 -69t-10 -99v-508zM599 1521q42 3 69 -26q14 -14 20 -32t5 -36.5
t-7.5 -35.5t-17.5 -29q-21 -21 -55 -35.5t-74.5 -33t-85.5 -45.5t-90 -72h-31q50 46 80 93t50.5 90t36 78t37.5 57q21 22 63 27z" />
    <glyph glyph-name="racute" unicode="&#x155;" horiz-adv-x="754" 
d="M643 805q-7 43 -22.5 85.5t-39.5 75.5t-57 53.5t-75 20.5q-59 0 -91 -43t-32 -109v-655q0 -65 -10.5 -109.5t-36 -72t-69.5 -39.5t-110 -12v863q0 67 12 113t38.5 74t69.5 40t106 12h211q52 0 84 -17t50.5 -46t25 -68t7.5 -83v-83h-61zM489 1513q42 3 69 -26
q14 -14 20 -32t5 -36.5t-7.5 -35.5t-17.5 -29q-21 -21 -55 -35.5t-74.5 -33t-85.5 -45.5t-90 -72h-31q50 46 80 93t50.5 90t36 78t37.5 57q21 22 63 27z" />
    <glyph glyph-name="rcaron" unicode="&#x159;" horiz-adv-x="754" 
d="M704 805v83q-1 44 -7.5 83t-25 68t-50.5 46t-84 17h-211q-63 0 -106 -12t-69.5 -40t-38.5 -74t-12 -113v-863q66 0 110 12t69.5 39.5t36 72t10.5 109.5v655q0 66 32 109t91 43q42 0 75 -20.5t57 -53.5t39.5 -75.5t22.5 -85.5h61zM489 1288q-14 -23 -31.5 -26.5
t-47.5 -3.5h-2q-30 0 -47.5 3.5t-31.5 26.5l-201 266l281 -185l281 185z" />
    <glyph glyph-name="rcommaaccent" unicode="&#x157;" horiz-adv-x="751" 
d="M640 805q-7 43 -22.5 85.5t-39.5 75.5t-57 53.5t-75 20.5q-59 0 -91 -43t-32 -109v-655q0 -65 -10.5 -109.5t-36 -72t-69.5 -39.5t-110 -12v863q0 67 12 113t38.5 74t69.5 40t106 12h211q52 0 84 -17t50.5 -46t25 -68t7.5 -83v-83h-61zM132 -508q33 32 60 74t37 90
q-21 0 -40.5 1.5t-37.5 8t-33 19.5t-27 34t-14 47t5 50.5t22.5 46t38.5 35.5t50 16.5t52.5 -5.5t46.5 -25.5t33 -43.5q22 -52 11 -108t-43 -106t-78 -90.5t-92 -62.5q0 8 1 9.5t8 9.5z" />
    </font>
</defs>
</svg>
