<svg version="1.1" id="svg-socials-item" xmlns="http://www.w3.org/2000/svg" xmlns:xlink="http://www.w3.org/1999/xlink" x="0px" y="0px"
	  viewBox="0 0 400 228.198" enable-background="new 0 0 400 228.198" xml:space="preserve">
<g>
	<defs>
		<rect id="SVGID_1_" width="400" height="228.198"/>
	</defs>
	<clipPath id="SVGID_2_">
		<use xlink:href="#SVGID_1_"  overflow="visible"/>
	</clipPath>
	<path clip-path="url(#SVGID_2_)" fill="#FFFFFF" d="M195.709,227.244h23.907c0,0,7.22-0.798,10.91-4.77
		c3.397-3.649,3.289-10.502,3.289-10.502s-0.472-32.08,14.42-36.803c14.681-4.654,33.527,31.004,53.503,44.714
		c15.107,10.375,26.588,8.104,26.588,8.104l53.418-0.744c0,0,27.938-1.726,14.691-23.697c-1.084-1.794-7.721-16.25-39.717-45.95
		c-33.502-31.094-29.012-26.061,11.338-79.837c24.57-32.751,34.396-52.739,31.323-61.305c-2.925-8.158-20.997-6.006-20.997-6.006
		l-60.148,0.376c0,0-4.456-0.609-7.765,1.368c-3.23,1.937-5.305,6.454-5.305,6.454s-9.527,25.343-22.22,46.895
		c-26.777,45.474-37.487,47.882-41.865,45.052c-10.185-6.582-7.638-26.434-7.638-40.544c0-44.073,6.685-62.45-13.021-67.205
		c-6.539-1.579-11.354-2.626-28.075-2.794c-21.458-0.219-39.623,0.068-49.905,5.103c-6.842,3.359-12.123,10.818-8.903,11.251
		c3.975,0.53,12.976,2.425,17.747,8.922c6.164,8.387,5.948,27.216,5.948,27.216s3.544,51.88-8.27,58.321
		c-8.109,4.421-19.229-4.602-43.109-45.862c-12.23-21.131-21.468-44.497-21.468-44.497s-1.776-4.361-4.956-6.7
		c-3.854-2.833-9.242-3.729-9.242-3.729l-57.154,0.37c0,0-8.581,0.244-11.726,3.975c-2.807,3.321-0.224,10.182-0.224,10.182
		s44.742,104.686,95.407,157.439C142.958,230.423,195.709,227.244,195.709,227.244z"/>
</g>
</svg>
