<svg version="1.1" id="svg-socials-item" xmlns="http://www.w3.org/2000/svg" xmlns:xlink="http://www.w3.org/1999/xlink" x="0px" y="0px"
	  viewBox="0 0 38.349 26.972" enable-background="new 0 0 38.349 26.972" xml:space="preserve">
<g>
	<defs>
		<rect id="SVGID_1_" width="38.348" height="26.972"/>
	</defs>
	<clipPath id="SVGID_2_">
		<use xlink:href="#SVGID_1_"  overflow="visible"/>
	</clipPath>
	<path clip-path="url(#SVGID_2_)" fill="#FFFFFF" d="M37.966,5.819c0,0-0.375-2.643-1.525-3.807
		c-1.457-1.527-3.092-1.534-3.842-1.624C27.232,0,19.183,0,19.183,0h-0.018c0,0-8.049,0-13.416,0.388
		C5,0.478,3.366,0.485,1.907,2.012c-1.15,1.164-1.524,3.807-1.524,3.807S0,8.922,0,12.025v2.91c0,3.103,0.383,6.206,0.383,6.206
		s0.374,2.643,1.524,3.807c1.459,1.527,3.375,1.479,4.228,1.639c3.069,0.295,13.04,0.386,13.04,0.386s8.058-0.012,13.424-0.4
		c0.75-0.089,2.385-0.097,3.842-1.624c1.15-1.164,1.525-3.807,1.525-3.807s0.383-3.104,0.383-6.206v-2.91
		C38.349,8.922,37.966,5.819,37.966,5.819 M15.215,18.46L15.213,7.685l10.362,5.406L15.215,18.46z"/>
</g>
</svg>
