<svg version="1.1" id="svg-manufactured" xmlns="http://www.w3.org/2000/svg" xmlns:xlink="http://www.w3.org/1999/xlink" x="0px" y="0px"
	 viewBox="0 0 148.3 54.2" enable-background="new 0 0 148.3 54.2" xml:space="preserve">
<g>
	<defs>
		<rect id="SVGID_1_" y="0" />
	</defs>
	<clipPath id="SVGID_2_">
		<use xlink:href="#SVGID_1_"  overflow="visible"/>
	</clipPath>
	<path clip-path="url(#SVGID_2_)" fill="#FFFFFF" d="M43.3,1h-5.8c-1.1,0-2,0.8-2,1.9c0,10.3,0.1,20.5,0.1,30.8
		c0,6.6-5,11.9-11.3,11.9c-6.2,0-11.1-5.4-11.1-11.9V3c0-1.1-0.9-1.9-2-1.9H1.3C-0.1,1-0.6,2.5,1,3.4c1.5,0.9,2.5,2.4,2.5,5v25.2
		c0,11.3,9.4,20.6,20.9,20.6c11.6,0,21-9.3,21-20.6V3C45.3,1.9,44.4,1,43.3,1 M105.5,40l-4.5-2.8c-1.1-0.7-2.2-0.1-2.9,0.7
		c-3,3.9-8.8,7.8-16.2,7.8c-10.2,0-18.4-8.3-18.4-18.6c0-10.3,8.2-18.6,18.4-18.6c6.5,0,12.3,2.9,15.9,7.9c0.8,1.2,1.8,1.4,3,0.7
		l4.5-2.7c1.1-0.7,1.2-1.8,0.4-2.9C100.4,4.5,91.8,0,81.9,0C66.6,0,53.9,12.1,53.9,27.1c0,15,12.7,27,28.1,27
		c9.7,0,18.6-4.1,24.1-11.3C106.6,41.7,106.4,40.7,105.5,40 M146.3,1h-35.7c-1,0-1.9,0.8-1.9,1.9v4.7c0,1.1,0.9,1.9,1.9,1.9h11.1
		c1.1,0,1.9,0.9,1.9,2v8.1l0,0.7v30.8c0,1.1,0.9,1.9,2,1.9h9.9c1.4,0,1.9-1.5,0.4-2.4c-1.5-0.9-2.5-2.4-2.5-5V20.6l0-1.2v-7.8
		c0-1.1,0.9-2,1.9-2h11.1c1.1,0,1.9-0.7,1.9-1.9V3C148.3,1.9,147.5,1,146.3,1"/>
</g>
</svg>
